<svg viewBox="0.0 0.0 960.0 720.0" fill="#fff" xmlns="http://www.w3.org/2000/svg"><clipPath id="a"><path d="M0 0h960v720h-960v-720z"/></clipPath><g clip-path="url(#a)"><path d="M0 0h960v720h-960z" fill="none"/><path d="M92.328 475.635c0-123.529 100.14-223.669 223.669-223.669 59.321 0 116.212 23.565 158.158 65.511 41.946 41.946 65.511 98.837 65.511 158.158 0 123.529-100.14 223.669-223.669 223.669-123.529 0-223.669-100.14-223.669-223.669z" fill="none"/><path stroke="#000" stroke-width="2" stroke-linejoin="round" stroke-dasharray="2.0,6.0" d="M92.328 475.635c0-123.529 100.14-223.669 223.669-223.669 59.321 0 116.212 23.565 158.158 65.511 41.946 41.946 65.511 98.837 65.511 158.158 0 123.529-100.14 223.669-223.669 223.669-123.529 0-223.669-100.14-223.669-223.669z" fill-rule="evenodd"/><path fill="#fff" d="M418.848 170.845h215.181v84.22h-215.181z" fill-rule="evenodd"/><path stroke="#000" stroke-width="2" stroke-linejoin="round" d="M418.848 170.845h215.181v84.22h-215.181z" fill-rule="evenodd"/><path d="M473.177 215.464l2.281.578q-.719 2.797-2.578 4.281-1.859 1.469-4.547 1.469-2.766 0-4.516-1.125-1.734-1.141-2.641-3.281-.906-2.156-.906-4.609 0-2.688 1.016-4.688 1.031-2 2.922-3.031 1.891-1.031 4.172-1.031 2.578 0 4.328 1.313 1.766 1.313 2.453 3.688l-2.234.531q-.609-1.875-1.75-2.734-1.125-.859-2.844-.859-1.984 0-3.313.953-1.328.953-1.875 2.547-.531 1.594-.531 3.297 0 2.188.625 3.828.641 1.641 1.984 2.453 1.359.797 2.922.797 1.922 0 3.234-1.094 1.328-1.109 1.797-3.281zm4.02-.188q0-3.469 1.922-5.125 1.609-1.391 3.922-1.391 2.563 0 4.188 1.688 1.625 1.688 1.625 4.641 0 2.406-.719 3.781t-2.094 2.141q-1.375.766-3 .766-2.625 0-4.234-1.672-1.609-1.688-1.609-4.828zm2.172 0q0 2.391 1.031 3.578 1.047 1.188 2.641 1.188 1.563 0 2.609-1.188 1.047-1.203 1.047-3.656 0-2.313-1.063-3.5-1.047-1.188-2.594-1.188-1.594 0-2.641 1.188-1.031 1.188-1.031 3.578zm11.957 6.219v-12.453h1.906v1.781q1.375-2.063 3.953-2.063 1.125 0 2.063.406.953.406 1.422 1.063.469.656.656 1.563.125.578.125 2.047v7.656h-2.109v-7.578q0-1.281-.25-1.922t-.875-1.016q-.625-.391-1.469-.391-1.344 0-2.328.859-.984.859-.984 3.25v6.797h-2.109zm12.504-3.719l2.094-.328q.172 1.25.969 1.922.813.672 2.25.672 1.453 0 2.156-.594.703-.594.703-1.391 0-.719-.625-1.125-.422-.281-2.156-.719-2.313-.578-3.219-1-.891-.438-1.359-1.188-.453-.766-.453-1.672 0-.828.375-1.531.391-.719 1.047-1.188.484-.359 1.328-.609.859-.266 1.828-.266 1.469 0 2.578.422 1.109.422 1.625 1.156.531.719.734 1.922l-2.063.281q-.141-.969-.813-1.5-.672-.547-1.906-.547-1.453 0-2.078.484-.625.484-.625 1.125 0 .406.266.734.25.344.813.563.313.125 1.859.547 2.234.594 3.109.984.891.375 1.391 1.109.516.719.516 1.797 0 1.047-.625 1.984-.609.938-1.766 1.453-1.156.5-2.625.5-2.422 0-3.703-1-1.266-1.016-1.625-3zm21 3.719v-1.828q-1.453 2.109-3.938 2.109-1.109 0-2.063-.422-.953-.422-1.422-1.063-.453-.641-.641-1.563-.141-.625-.141-1.969v-7.719h2.109v6.906q0 1.656.141 2.234.188.828.828 1.313.656.469 1.609.469.938 0 1.766-.484.844-.5 1.188-1.328.344-.844.344-2.438v-6.672h2.109v12.453h-1.891zm5.191 0v-12.453h1.891v1.75q.594-.906 1.563-1.469.969-.563 2.219-.563 1.375 0 2.25.578.891.578 1.266 1.609 1.469-2.188 3.844-2.188 1.844 0 2.844 1.031 1 1.031 1 3.156v8.547h-2.109v-7.844q0-1.266-.203-1.813-.203-.563-.75-.906-.531-.344-1.25-.344-1.313 0-2.188.875-.859.875-.859 2.797v7.234h-2.109v-8.094q0-1.406-.516-2.109-.516-.703-1.688-.703-.891 0-1.656.469-.75.469-1.094 1.375-.344.906-.344 2.609v6.453h-2.109zm28.117-1.531q-1.172.984-2.266 1.406-1.078.406-2.313.406-2.047 0-3.156-1-1.094-1-1.094-2.563 0-.922.406-1.672.422-.75 1.094-1.203.672-.469 1.516-.703.625-.156 1.875-.313 2.563-.313 3.766-.734l.016-.547q0-1.281-.609-1.813-.797-.719-2.391-.719-1.5 0-2.203.531-.703.516-1.047 1.844l-2.063-.281q.281-1.328.922-2.141t1.859-1.25q1.219-.453 2.828-.453 1.594 0 2.594.375 1 .375 1.469.953.469.563.656 1.438.094.531.094 1.938v2.813q0 2.938.141 3.719.141.781.531 1.5h-2.203q-.328-.656-.422-1.531zm-.172-4.719q-1.156.469-3.453.797-1.297.188-1.844.422-.531.234-.828.688-.281.453-.281 1 0 .844.625 1.406.641.563 1.875.563 1.219 0 2.172-.531.953-.531 1.391-1.453.344-.719.344-2.109v-.781zm7.348 6.25h-1.953v-17.188h2.109v6.141q1.328-1.688 3.406-1.688 1.141 0 2.172.469 1.031.469 1.688 1.313.656.828 1.031 2.016.375 1.172.375 2.531 0 3.188-1.578 4.938-1.578 1.75-3.797 1.75-2.203 0-3.453-1.844v1.563zm-.031-6.313q0 2.234.609 3.234 1 1.625 2.703 1.625 1.375 0 2.375-1.203 1.016-1.203 1.016-3.578 0-2.438-.969-3.594-.953-1.172-2.328-1.172-1.391 0-2.406 1.203-1 1.203-1 3.484zm11.379 6.313v-17.188h2.109v17.188h-2.109zm13.91-4.016l2.172.281q-.516 1.906-1.906 2.969-1.391 1.047-3.563 1.047-2.734 0-4.344-1.672-1.594-1.688-1.594-4.734 0-3.141 1.609-4.875 1.625-1.734 4.203-1.734 2.5 0 4.078 1.703 1.594 1.703 1.594 4.781l-.016.563h-9.281q.109 2.047 1.156 3.141 1.047 1.094 2.609 1.094 1.156 0 1.969-.609.828-.609 1.313-1.953zm-6.938-3.406h6.953q-.141-1.563-.797-2.359-1-1.219-2.609-1.219-1.453 0-2.453.984-.984.969-1.094 2.594z"/><path d="M302.438 397.519l16 145.102" fill="none"/><path stroke="#000" stroke-width="2" stroke-linejoin="round" d="M303.486 407.021l14.952 135.6" fill-rule="evenodd"/><path stroke="#000" stroke-width="2" d="M299.232 407.49l-.938-8.508 8.508-.938.938 8.508-8.508.938z"/><path d="M122.701 572.304v-172.189h42.047v172.189z" fill="none"/><path d="M154.741 536.28l-17.188-6.594v-2.453l17.188-7.031v2.594l-5.203 2v7.188l5.203 1.891v2.406zm-7.063-4.953v-5.828l-4.75 1.797q-2.172.813-3.563 1.219 1.656.328 3.281.922l5.031 1.891zm7.063-20.82h-1.828q2.109 1.453 2.109 3.938 0 1.109-.422 2.063-.422.953-1.063 1.422-.641.453-1.563.641-.625.141-1.969.141h-7.719v-2.109h6.906q1.656 0 2.234-.141.828-.188 1.313-.828.469-.656.469-1.609 0-.938-.484-1.766-.5-.844-1.328-1.188-.844-.344-2.438-.344h-6.672v-2.109h12.453v1.891zm0-13.27h-1.578q1.859 1.188 1.859 3.484 0 1.484-.813 2.734-.828 1.25-2.297 1.938-1.469.672-3.391.672-1.859 0-3.375-.609-1.516-.625-2.328-1.859-.813-1.25-.813-2.781 0-1.125.484-2 .469-.891 1.234-1.438h-6.172v-2.094h17.188v1.953zm-6.219 6.672q2.391 0 3.578-1 1.188-1.016 1.188-2.391 0-1.391-1.125-2.344-1.141-.969-3.453-.969-2.563 0-3.75.984-1.203.984-1.203 2.422 0 1.406 1.156 2.359 1.141.938 3.609.938zm-8.531-11.957h-2.438v-2.109h2.438v2.109zm14.75 0h-12.453v-2.109h12.453v2.109zm-4.016-13.848l.281-2.172q1.906.516 2.969 1.906 1.047 1.391 1.047 3.563 0 2.734-1.672 4.344-1.688 1.594-4.734 1.594-3.141 0-4.875-1.609-1.734-1.625-1.734-4.203 0-2.5 1.703-4.078 1.703-1.594 4.781-1.594l.563.016v9.281q2.047-.109 3.141-1.156 1.094-1.047 1.094-2.609 0-1.156-.609-1.969-.609-.828-1.953-1.313zm-3.406 6.938v-6.953q-1.563.141-2.359.797-1.219 1-1.219 2.609 0 1.453.984 2.453.969.984 2.594 1.094zm7.422-11.754h-12.453v-1.906h1.781q-2.063-1.375-2.063-3.953 0-1.125.406-2.063.406-.953 1.063-1.422.656-.469 1.563-.656.578-.125 2.047-.125h7.656v2.109h-7.578q-1.281 0-1.922.25t-1.016.875q-.391.625-.391 1.469 0 1.344.859 2.328.859.984 3.25.984h6.797v2.109zm-4.563-21.473l.266-2.078q2.156.344 3.375 1.75 1.203 1.391 1.203 3.438 0 2.547-1.672 4.109-1.672 1.547-4.781 1.547-2.016 0-3.531-.672-1.516-.672-2.266-2.031-.766-1.359-.766-2.969 0-2.031 1.031-3.313 1.031-1.297 2.906-1.656l.328 2.047q-1.266.297-1.891 1.047-.641.734-.641 1.797 0 1.594 1.156 2.594 1.141.984 3.609.984 2.5 0 3.641-.953 1.141-.969 1.141-2.516 0-1.234-.766-2.063-.766-.844-2.344-1.063zm.547-12.406l.281-2.172q1.906.516 2.969 1.906 1.047 1.391 1.047 3.563 0 2.734-1.672 4.344-1.688 1.594-4.734 1.594-3.141 0-4.875-1.609-1.734-1.625-1.734-4.203 0-2.5 1.703-4.078 1.703-1.594 4.781-1.594l.563.016v9.281q2.047-.109 3.141-1.156 1.094-1.047 1.094-2.609 0-1.156-.609-1.969-.609-.828-1.953-1.313zm-3.406 6.937v-6.953q-1.563.141-2.359.797-1.219 1-1.219 2.609 0 1.453.984 2.453.969.984 2.594 1.094z"/><path d="M738.029 170.845h215.181v84.22h-215.181z" fill="none"/><path d="M751.888 211.995l-4.563-17.188h2.328l2.609 11.266q.422 1.766.734 3.516.656-2.75.766-3.172l3.281-11.609h2.734l2.469 8.703q.922 3.234 1.328 6.078.328-1.625.859-3.734l2.688-11.047h2.297l-4.719 17.188h-2.188l-3.625-13.094q-.453-1.641-.531-2.016-.281 1.188-.516 2.016l-3.641 13.094h-2.313zm19.371 0v-17.188h2.109v6.172q1.484-1.719 3.734-1.719 1.375 0 2.391.547 1.031.547 1.469 1.516.438.953.438 2.781v7.891h-2.109v-7.891q0-1.578-.688-2.297-.688-.719-1.938-.719-.938 0-1.766.484-.828.484-1.188 1.313-.344.828-.344 2.297v6.813h-2.109zm21.473-1.531q-1.172.984-2.266 1.406-1.078.406-2.313.406-2.047 0-3.156-1-1.094-1-1.094-2.563 0-.922.406-1.672.422-.75 1.094-1.203.672-.469 1.516-.703.625-.156 1.875-.313 2.563-.313 3.766-.734l.016-.547q0-1.281-.609-1.813-.797-.719-2.391-.719-1.5 0-2.203.531-.703.516-1.047 1.844l-2.063-.281q.281-1.328.922-2.141t1.859-1.25q1.219-.453 2.828-.453 1.594 0 2.594.375 1 .375 1.469.953.469.563.656 1.438.094.531.094 1.938v2.813q0 2.938.141 3.719.141.781.531 1.5h-2.203q-.328-.656-.422-1.531zm-.172-4.719q-1.156.469-3.453.797-1.297.188-1.844.422-.531.234-.828.688-.281.453-.281 1 0 .844.625 1.406.641.563 1.875.563 1.219 0 2.172-.531.953-.531 1.391-1.453.344-.719.344-2.109v-.781zm10.004 4.359l.313 1.859q-.891.203-1.594.203-1.156 0-1.797-.359-.625-.375-.891-.969-.25-.594-.25-2.484v-7.172h-1.547v-1.641h1.547v-3.078l2.094-1.266v4.344h2.125v1.641h-2.125v7.281q0 .906.109 1.172.125.25.375.406.25.141.719.141.344 0 .922-.078zM753.763 230.644l1.453.172q-.344 1.281-1.281 1.984-.922.703-2.359.703-1.828 0-2.891-1.125t-1.063-3.141q0-2.094 1.078-3.25 1.078-1.156 2.797-1.156 1.656 0 2.703 1.141 1.063 1.125 1.063 3.172v.375h-6.188q.078 1.375.766 2.109.703.719 1.734.719.781 0 1.328-.406t.859-1.297zm-4.609-2.281h4.625q-.094-1.047-.531-1.563-.672-.813-1.734-.813-.969 0-1.641.656-.656.641-.719 1.719zm8.227 4.953v-1.609h1.609v1.609h-1.609zm3.789.688l1.375.203q.078.641.469.922.531.391 1.438.391.969 0 1.5-.391t.719-1.094q.109-.422.109-1.813-.922 1.094-2.297 1.094-1.719 0-2.656-1.234-.938-1.234-.938-2.969 0-1.188.422-2.188.438-1 1.25-1.547.828-.547 1.922-.547 1.469 0 2.422 1.188v-1h1.297v7.172q0 1.938-.391 2.75-.391.813-1.25 1.281-.859.469-2.109.469-1.484 0-2.406-.672-.906-.672-.875-2.016zm1.172-4.984q0 1.625.641 2.375.656.75 1.625.75t1.625-.734q.656-.75.656-2.344 0-1.531-.672-2.297-.672-.781-1.625-.781-.938 0-1.594.766-.656.766-.656 2.266zm8.383 4.297v-1.609h1.609v1.609h-1.609zm13.906-1.031q-.781.672-1.5.953-.719.266-1.547.266-1.375 0-2.109-.672t-.734-1.703q0-.609.281-1.109.281-.516.719-.813.453-.313 1.016-.469.422-.109 1.25-.203 1.703-.203 2.516-.484v-.375q0-.859-.391-1.203-.547-.484-1.609-.484-.984 0-1.469.359-.469.344-.688 1.219l-1.375-.188q.188-.875.609-1.422.438-.547 1.25-.828.813-.297 1.875-.297 1.063 0 1.719.25.672.25.984.625.313.375.438.953.078.359.078 1.297v1.875q0 1.969.078 2.484.094.516.359 1h-1.469q-.219-.438-.281-1.031zm-.109-3.141q-.766.313-2.297.531-.875.125-1.234.281-.359.156-.563.469-.188.297-.188.656 0 .563.422.938.438.375 1.25.375.813 0 1.438-.344.641-.359.938-.984.234-.469.234-1.406v-.516zm9.344 4.172h-1.313v-11.453h1.406v4.078q.891-1.109 2.281-1.109.766 0 1.438.313.688.297 1.125.859.453.563.703 1.359.25.781.25 1.672 0 2.141-1.063 3.313-1.047 1.156-2.531 1.156-1.469 0-2.297-1.234v1.047zm-.016-4.219q0 1.5.406 2.156.656 1.094 1.797 1.094.922 0 1.594-.797.672-.813.672-2.391 0-1.625-.656-2.391-.641-.781-1.547-.781-.922 0-1.594.797t-.672 2.313zm7.602 4.219v-8.297h1.266v1.25q.484-.875.891-1.156.406-.281.906-.281.703 0 1.438.453l-.484 1.297q-.516-.297-1.031-.297-.453 0-.828.281-.359.266-.516.766-.234.75-.234 1.641v4.344h-1.406zm4.813-4.156q0-2.297 1.281-3.406 1.078-.922 2.609-.922 1.719 0 2.797 1.125 1.094 1.109 1.094 3.094 0 1.594-.484 2.516-.484.922-1.406 1.438-.906.5-2 .5-1.734 0-2.813-1.109-1.078-1.125-1.078-3.234zm1.453 0q0 1.594.688 2.391.703.797 1.75.797 1.047 0 1.734-.797.703-.797.703-2.438 0-1.531-.703-2.328-.688-.797-1.734-.797-1.047 0-1.75.797-.688.781-.688 2.375zm13.383 3.125q-.781.672-1.5.953-.719.266-1.547.266-1.375 0-2.109-.672t-.734-1.703q0-.609.281-1.109.281-.516.719-.813.453-.313 1.016-.469.422-.109 1.25-.203 1.703-.203 2.516-.484v-.375q0-.859-.391-1.203-.547-.484-1.609-.484-.984 0-1.469.359-.469.344-.688 1.219l-1.375-.188q.188-.875.609-1.422.438-.547 1.25-.828.813-.297 1.875-.297 1.063 0 1.719.25.672.25.984.625.313.375.438.953.078.359.078 1.297v1.875q0 1.969.078 2.484.094.516.359 1h-1.469q-.219-.438-.281-1.031zm-.109-3.141q-.766.313-2.297.531-.875.125-1.234.281-.359.156-.563.469-.188.297-.188.656 0 .563.422.938.438.375 1.25.375.813 0 1.438-.344.641-.359.938-.984.234-.469.234-1.406v-.516zm8.977 4.172v-1.047q-.781 1.234-2.313 1.234-1 0-1.828-.547-.828-.547-1.297-1.531-.453-.984-.453-2.25 0-1.25.406-2.25.422-1.016 1.25-1.547.828-.547 1.859-.547.75 0 1.328.313.594.313.953.828v-4.109h1.406v11.453h-1.313zm-4.438-4.141q0 1.594.672 2.391.672.781 1.578.781.922 0 1.563-.75.656-.766.656-2.313 0-1.703-.656-2.5-.656-.797-1.625-.797-.938 0-1.563.766t-.625 2.422zm13.367 1.094l1.391.188q-.234 1.422-1.172 2.234-.922.813-2.281.813-1.703 0-2.75-1.109-1.031-1.125-1.031-3.203 0-1.344.438-2.344.453-1.016 1.359-1.516.922-.5 1.984-.5 1.359 0 2.219.688.859.672 1.094 1.938l-1.359.203q-.203-.828-.703-1.25-.484-.422-1.188-.422-1.063 0-1.734.766-.656.75-.656 2.406 0 1.672.641 2.438.641.75 1.672.75.828 0 1.375-.5.563-.516.703-1.578zm8 2.016q-.781.672-1.5.953-.719.266-1.547.266-1.375 0-2.109-.672t-.734-1.703q0-.609.281-1.109.281-.516.719-.813.453-.313 1.016-.469.422-.109 1.25-.203 1.703-.203 2.516-.484v-.375q0-.859-.391-1.203-.547-.484-1.609-.484-.984 0-1.469.359-.469.344-.688 1.219l-1.375-.188q.188-.875.609-1.422.438-.547 1.25-.828.813-.297 1.875-.297 1.063 0 1.719.25.672.25.984.625.313.375.438.953.078.359.078 1.297v1.875q0 1.969.078 2.484.094.516.359 1h-1.469q-.219-.438-.281-1.031zm-.109-3.141q-.766.313-2.297.531-.875.125-1.234.281-.359.156-.563.469-.188.297-.188.656 0 .563.422.938.438.375 1.25.375.813 0 1.438-.344.641-.359.938-.984.234-.469.234-1.406v-.516zm3.039 1.688l1.391-.219q.109.844.641 1.297.547.438 1.5.438.969 0 1.438-.391.469-.406.469-.938 0-.469-.406-.75-.297-.188-1.438-.469-1.547-.391-2.156-.672-.594-.297-.906-.797-.297-.5-.297-1.109 0-.563.25-1.031.25-.469.688-.781.328-.25.891-.406.578-.172 1.219-.172.984 0 1.719.281.734.281 1.078.766.359.469.5 1.281l-1.375.188q-.094-.641-.547-1-.453-.359-1.266-.359-.969 0-1.391.328-.406.313-.406.734 0 .281.172.5.172.219.531.375.219.078 1.25.359 1.484.391 2.078.656.594.25.922.734.344.484.344 1.203 0 .703-.422 1.328-.406.609-1.188.953-.766.344-1.734.344-1.625 0-2.469-.672-.844-.672-1.078-2zm11.625 1.219l.203 1.25q-.594.125-1.063.125-.766 0-1.188-.234-.422-.25-.594-.641-.172-.406-.172-1.672v-4.766h-1.031v-1.094h1.031v-2.063l1.406-.844v2.906h1.406v1.094h-1.406v4.844q0 .609.063.781.078.172.25.281.172.094.484.094.234 0 .609-.063zm1.742 1.266v-1.609h1.609v1.609q0 .891-.313 1.422-.313.547-1 .844l-.391-.594q.453-.203.656-.578.219-.375.234-1.094h-.797zm13.938-1.031q-.781.672-1.5.953-.719.266-1.547.266-1.375 0-2.109-.672t-.734-1.703q0-.609.281-1.109.281-.516.719-.813.453-.313 1.016-.469.422-.109 1.25-.203 1.703-.203 2.516-.484v-.375q0-.859-.391-1.203-.547-.484-1.609-.484-.984 0-1.469.359-.469.344-.688 1.219l-1.375-.188q.188-.875.609-1.422.438-.547 1.25-.828.813-.297 1.875-.297 1.063 0 1.719.25.672.25.984.625.313.375.438.953.078.359.078 1.297v1.875q0 1.969.078 2.484.094.516.359 1h-1.469q-.219-.438-.281-1.031zm-.109-3.141q-.766.313-2.297.531-.875.125-1.234.281-.359.156-.563.469-.188.297-.188.656 0 .563.422.938.438.375 1.25.375.813 0 1.438-.344.641-.359.938-.984.234-.469.234-1.406v-.516zm8.031 4.172v-8.297h1.266v1.25q.484-.875.891-1.156.406-.281.906-.281.703 0 1.438.453l-.484 1.297q-.516-.297-1.031-.297-.453 0-.828.281-.359.266-.516.766-.234.75-.234 1.641v4.344h-1.406zm11.016-2.672l1.453.172q-.344 1.281-1.281 1.984-.922.703-2.359.703-1.828 0-2.891-1.125t-1.063-3.141q0-2.094 1.078-3.25 1.078-1.156 2.797-1.156 1.656 0 2.703 1.141 1.063 1.125 1.063 3.172v.375h-6.188q.078 1.375.766 2.109.703.719 1.734.719.781 0 1.328-.406t.859-1.297zm-4.609-2.281h4.625q-.094-1.047-.531-1.563-.672-.813-1.734-.813-.969 0-1.641.656-.656.641-.719 1.719zm7.805 4.953v-11.453h1.406v11.453h-1.406zm9.258-2.672l1.453.172q-.344 1.281-1.281 1.984-.922.703-2.359.703-1.828 0-2.891-1.125t-1.063-3.141q0-2.094 1.078-3.25 1.078-1.156 2.797-1.156 1.656 0 2.703 1.141 1.063 1.125 1.063 3.172v.375h-6.188q.078 1.375.766 2.109.703.719 1.734.719.781 0 1.328-.406t.859-1.297zm-4.609-2.281h4.625q-.094-1.047-.531-1.563-.672-.813-1.734-.813-.969 0-1.641.656-.656.641-.719 1.719zm13.242 3.922q-.781.672-1.5.953-.719.266-1.547.266-1.375 0-2.109-.672t-.734-1.703q0-.609.281-1.109.281-.516.719-.813.453-.313 1.016-.469.422-.109 1.25-.203 1.703-.203 2.516-.484v-.375q0-.859-.391-1.203-.547-.484-1.609-.484-.984 0-1.469.359-.469.344-.688 1.219l-1.375-.188q.188-.875.609-1.422.438-.547 1.25-.828.813-.297 1.875-.297 1.063 0 1.719.25.672.25.984.625.313.375.438.953.078.359.078 1.297v1.875q0 1.969.078 2.484.094.516.359 1h-1.469q-.219-.438-.281-1.031zm-.109-3.141q-.766.313-2.297.531-.875.125-1.234.281-.359.156-.563.469-.188.297-.188.656 0 .563.422.938.438.375 1.25.375.813 0 1.438-.344.641-.359.938-.984.234-.469.234-1.406v-.516zm3.039 1.688l1.391-.219q.109.844.641 1.297.547.438 1.5.438.969 0 1.438-.391.469-.406.469-.938 0-.469-.406-.75-.297-.188-1.438-.469-1.547-.391-2.156-.672-.594-.297-.906-.797-.297-.5-.297-1.109 0-.563.25-1.031.25-.469.688-.781.328-.25.891-.406.578-.172 1.219-.172.984 0 1.719.281.734.281 1.078.766.359.469.5 1.281l-1.375.188q-.094-.641-.547-1-.453-.359-1.266-.359-.969 0-1.391.328-.406.313-.406.734 0 .281.172.5.172.219.531.375.219.078 1.25.359 1.484.391 2.078.656.594.25.922.734.344.484.344 1.203 0 .703-.422 1.328-.406.609-1.188.953-.766.344-1.734.344-1.625 0-2.469-.672-.844-.672-1.078-2zm14.234-.188l1.453.172q-.344 1.281-1.281 1.984-.922.703-2.359.703-1.828 0-2.891-1.125t-1.063-3.141q0-2.094 1.078-3.25 1.078-1.156 2.797-1.156 1.656 0 2.703 1.141 1.063 1.125 1.063 3.172v.375h-6.188q.078 1.375.766 2.109.703.719 1.734.719.781 0 1.328-.406t.859-1.297zm-4.609-2.281h4.625q-.094-1.047-.531-1.563-.672-.813-1.734-.813-.969 0-1.641.656-.656.641-.719 1.719z"/><path d="M554.029 311.329h261.984v84.22h-261.984z" fill="none"/><path d="M567.888 352.479l-4.563-17.188h2.328l2.609 11.266q.422 1.766.734 3.516.656-2.75.766-3.172l3.281-11.609h2.734l2.469 8.703q.922 3.234 1.328 6.078.328-1.625.859-3.734l2.688-11.047h2.297l-4.719 17.188h-2.188l-3.625-13.094q-.453-1.641-.531-2.016-.281 1.188-.516 2.016l-3.641 13.094h-2.313zm19.371 0v-17.188h2.109v6.172q1.484-1.719 3.734-1.719 1.375 0 2.391.547 1.031.547 1.469 1.516.438.953.438 2.781v7.891h-2.109v-7.891q0-1.578-.688-2.297-.688-.719-1.938-.719-.938 0-1.766.484-.828.484-1.188 1.313-.344.828-.344 2.297v6.813h-2.109zm21.473-1.531q-1.172.984-2.266 1.406-1.078.406-2.313.406-2.047 0-3.156-1-1.094-1-1.094-2.563 0-.922.406-1.672.422-.75 1.094-1.203.672-.469 1.516-.703.625-.156 1.875-.313 2.563-.313 3.766-.734l.016-.547q0-1.281-.609-1.813-.797-.719-2.391-.719-1.5 0-2.203.531-.703.516-1.047 1.844l-2.063-.281q.281-1.328.922-2.141t1.859-1.25q1.219-.453 2.828-.453 1.594 0 2.594.375 1 .375 1.469.953.469.563.656 1.438.094.531.094 1.938v2.813q0 2.938.141 3.719.141.781.531 1.5h-2.203q-.328-.656-.422-1.531zm-.172-4.719q-1.156.469-3.453.797-1.297.188-1.844.422-.531.234-.828.688-.281.453-.281 1 0 .844.625 1.406.641.563 1.875.563 1.219 0 2.172-.531.953-.531 1.391-1.453.344-.719.344-2.109v-.781zm10.004 4.359l.313 1.859q-.891.203-1.594.203-1.156 0-1.797-.359-.625-.375-.891-.969-.25-.594-.25-2.484v-7.172h-1.547v-1.641h1.547v-3.078l2.094-1.266v4.344h2.125v1.641h-2.125v7.281q0 .906.109 1.172.125.25.375.406.25.141.719.141.344 0 .922-.078zM569.763 371.127l1.453.172q-.344 1.281-1.281 1.984-.922.703-2.359.703-1.828 0-2.891-1.125t-1.063-3.141q0-2.094 1.078-3.25 1.078-1.156 2.797-1.156 1.656 0 2.703 1.141 1.063 1.125 1.063 3.172v.375h-6.188q.078 1.375.766 2.109.703.719 1.734.719.781 0 1.328-.406t.859-1.297zm-4.609-2.281h4.625q-.094-1.047-.531-1.563-.672-.813-1.734-.813-.969 0-1.641.656-.656.641-.719 1.719zm8.227 4.953v-1.609h1.609v1.609h-1.609zm3.789.688l1.375.203q.078.641.469.922.531.391 1.438.391.969 0 1.5-.391t.719-1.094q.109-.422.109-1.813-.922 1.094-2.297 1.094-1.719 0-2.656-1.234-.938-1.234-.938-2.969 0-1.188.422-2.188.438-1 1.25-1.547.828-.547 1.922-.547 1.469 0 2.422 1.188v-1h1.297v7.172q0 1.938-.391 2.75-.391.813-1.25 1.281-.859.469-2.109.469-1.484 0-2.406-.672-.906-.672-.875-2.016zm1.172-4.984q0 1.625.641 2.375.656.75 1.625.75t1.625-.734q.656-.75.656-2.344 0-1.531-.672-2.297-.672-.781-1.625-.781-.938 0-1.594.766-.656.766-.656 2.266zm8.383 4.297v-1.609h1.609v1.609h-1.609zm13.906-3.047l1.391.188q-.234 1.422-1.172 2.234-.922.813-2.281.813-1.703 0-2.75-1.109-1.031-1.125-1.031-3.203 0-1.344.438-2.344.453-1.016 1.359-1.516.922-.5 1.984-.5 1.359 0 2.219.688.859.672 1.094 1.938l-1.359.203q-.203-.828-.703-1.25-.484-.422-1.188-.422-1.063 0-1.734.766-.656.75-.656 2.406 0 1.672.641 2.438.641.75 1.672.75.828 0 1.375-.5.563-.516.703-1.578zm2.063-1.109q0-2.297 1.281-3.406 1.078-.922 2.609-.922 1.719 0 2.797 1.125 1.094 1.109 1.094 3.094 0 1.594-.484 2.516-.484.922-1.406 1.438-.906.5-2 .5-1.734 0-2.813-1.109-1.078-1.125-1.078-3.234zm1.453 0q0 1.594.688 2.391.703.797 1.75.797 1.047 0 1.734-.797.703-.797.703-2.438 0-1.531-.703-2.328-.688-.797-1.734-.797-1.047 0-1.75.797-.688.781-.688 2.375zm7.977 4.156v-8.297h1.25v1.156q.391-.609 1.031-.969.656-.375 1.484-.375.922 0 1.516.391.594.375.828 1.063.984-1.453 2.563-1.453 1.234 0 1.891.688.672.672.672 2.094v5.703h-1.391v-5.234q0-.844-.141-1.203-.141-.375-.5-.594-.359-.234-.844-.234-.875 0-1.453.578-.578.578-.578 1.859v4.828h-1.406v-5.391q0-.938-.344-1.406-.344-.469-1.125-.469-.594 0-1.094.313-.5.313-.734.922-.219.594-.219 1.719v4.313h-1.406zm13.328 0v-8.297h1.25v1.156q.391-.609 1.031-.969.656-.375 1.484-.375.922 0 1.516.391.594.375.828 1.063.984-1.453 2.563-1.453 1.234 0 1.891.688.672.672.672 2.094v5.703h-1.391v-5.234q0-.844-.141-1.203-.141-.375-.5-.594-.359-.234-.844-.234-.875 0-1.453.578-.578.578-.578 1.859v4.828h-1.406v-5.391q0-.938-.344-1.406-.344-.469-1.125-.469-.594 0-1.094.313-.5.313-.734.922-.219.594-.219 1.719v4.313h-1.406zm19-2.672l1.453.172q-.344 1.281-1.281 1.984-.922.703-2.359.703-1.828 0-2.891-1.125t-1.063-3.141q0-2.094 1.078-3.25 1.078-1.156 2.797-1.156 1.656 0 2.703 1.141 1.063 1.125 1.063 3.172v.375h-6.188q.078 1.375.766 2.109.703.719 1.734.719.781 0 1.328-.406t.859-1.297zm-4.609-2.281h4.625q-.094-1.047-.531-1.563-.672-.813-1.734-.813-.969 0-1.641.656-.656.641-.719 1.719zm7.836 4.953v-8.297h1.266v1.172q.906-1.359 2.641-1.359.75 0 1.375.266t.938.703q.313.438.438 1.047.078.391.078 1.359v5.109h-1.406v-5.047q0-.859-.172-1.281-.156-.438-.578-.688-.406-.25-.969-.25-.906 0-1.563.578-.641.563-.641 2.156v4.531h-1.406zm11.961-1.266l.203 1.25q-.594.125-1.063.125-.766 0-1.188-.234-.422-.25-.594-.641-.172-.406-.172-1.672v-4.766h-1.031v-1.094h1.031v-2.063l1.406-.844v2.906h1.406v1.094h-1.406v4.844q0 .609.063.781.078.172.25.281.172.094.484.094.234 0 .609-.063zm1.742 1.266v-1.609h1.609v1.609q0 .891-.313 1.422-.313.547-1 .844l-.391-.594q.453-.203.656-.578.219-.375.234-1.094h-.797zm13.938-1.031q-.781.672-1.5.953-.719.266-1.547.266-1.375 0-2.109-.672t-.734-1.703q0-.609.281-1.109.281-.516.719-.813.453-.313 1.016-.469.422-.109 1.25-.203 1.703-.203 2.516-.484v-.375q0-.859-.391-1.203-.547-.484-1.609-.484-.984 0-1.469.359-.469.344-.688 1.219l-1.375-.188q.188-.875.609-1.422.438-.547 1.25-.828.813-.297 1.875-.297 1.063 0 1.719.25.672.25.984.625.313.375.438.953.078.359.078 1.297v1.875q0 1.969.078 2.484.094.516.359 1h-1.469q-.219-.438-.281-1.031zm-.109-3.141q-.766.313-2.297.531-.875.125-1.234.281-.359.156-.563.469-.188.297-.188.656 0 .563.422.938.438.375 1.25.375.813 0 1.438-.344.641-.359.938-.984.234-.469.234-1.406v-.516zm3.602 7.359v-11.484h1.281v1.078q.453-.641 1.016-.953.578-.313 1.391-.313 1.063 0 1.875.547.813.547 1.219 1.547.422.984.422 2.172 0 1.281-.469 2.297-.453 1.016-1.328 1.563-.859.547-1.828.547-.703 0-1.266-.297-.547-.297-.906-.75v4.047h-1.406zm1.266-7.297q0 1.609.641 2.375.656.766 1.578.766.938 0 1.609-.797.672-.797.672-2.453 0-1.594-.656-2.375-.656-.797-1.563-.797-.891 0-1.594.844-.688.844-.688 2.438zm7.633 7.297v-11.484h1.281v1.078q.453-.641 1.016-.953.578-.313 1.391-.313 1.063 0 1.875.547.813.547 1.219 1.547.422.984.422 2.172 0 1.281-.469 2.297-.453 1.016-1.328 1.563-.859.547-1.828.547-.703 0-1.266-.297-.547-.297-.906-.75v4.047h-1.406zm1.266-7.297q0 1.609.641 2.375.656.766 1.578.766.938 0 1.609-.797.672-.797.672-2.453 0-1.594-.656-2.375-.656-.797-1.563-.797-.891 0-1.594.844-.688.844-.688 2.438zm7.617 4.109v-8.297h1.266v1.25q.484-.875.891-1.156.406-.281.906-.281.703 0 1.438.453l-.484 1.297q-.516-.297-1.031-.297-.453 0-.828.281-.359.266-.516.766-.234.75-.234 1.641v4.344h-1.406zm11.016-2.672l1.453.172q-.344 1.281-1.281 1.984-.922.703-2.359.703-1.828 0-2.891-1.125t-1.063-3.141q0-2.094 1.078-3.25 1.078-1.156 2.797-1.156 1.656 0 2.703 1.141 1.063 1.125 1.063 3.172v.375h-6.188q.078 1.375.766 2.109.703.719 1.734.719.781 0 1.328-.406t.859-1.297zm-4.609-2.281h4.625q-.094-1.047-.531-1.563-.672-.813-1.734-.813-.969 0-1.641.656-.656.641-.719 1.719zm13.242 1.906l1.391.188q-.234 1.422-1.172 2.234-.922.813-2.281.813-1.703 0-2.75-1.109-1.031-1.125-1.031-3.203 0-1.344.438-2.344.453-1.016 1.359-1.516.922-.5 1.984-.5 1.359 0 2.219.688.859.672 1.094 1.938l-1.359.203q-.203-.828-.703-1.25-.484-.422-1.188-.422-1.063 0-1.734.766-.656.75-.656 2.406 0 1.672.641 2.438.641.75 1.672.75.828 0 1.375-.5.563-.516.703-1.578zm2.594-6.797v-1.609h1.406v1.609h-1.406zm0 9.844v-8.297h1.406v8.297h-1.406zm8.961-1.031q-.781.672-1.5.953-.719.266-1.547.266-1.375 0-2.109-.672t-.734-1.703q0-.609.281-1.109.281-.516.719-.813.453-.313 1.016-.469.422-.109 1.25-.203 1.703-.203 2.516-.484v-.375q0-.859-.391-1.203-.547-.484-1.609-.484-.984 0-1.469.359-.469.344-.688 1.219l-1.375-.188q.188-.875.609-1.422.438-.547 1.25-.828.813-.297 1.875-.297 1.063 0 1.719.25.672.25.984.625.313.375.438.953.078.359.078 1.297v1.875q0 1.969.078 2.484.094.516.359 1h-1.469q-.219-.438-.281-1.031zm-.109-3.141q-.766.313-2.297.531-.875.125-1.234.281-.359.156-.563.469-.188.297-.188.656 0 .563.422.938.438.375 1.25.375.813 0 1.438-.344.641-.359.938-.984.234-.469.234-1.406v-.516zm6.664 2.906l.203 1.25q-.594.125-1.063.125-.766 0-1.188-.234-.422-.25-.594-.641-.172-.406-.172-1.672v-4.766h-1.031v-1.094h1.031v-2.063l1.406-.844v2.906h1.406v1.094h-1.406v4.844q0 .609.063.781.078.172.25.281.172.094.484.094.234 0 .609-.063zm1.383-8.578v-1.609h1.406v1.609h-1.406zm0 9.844v-8.297h1.406v8.297h-1.406zm3.023-4.156q0-2.297 1.281-3.406 1.078-.922 2.609-.922 1.719 0 2.797 1.125 1.094 1.109 1.094 3.094 0 1.594-.484 2.516-.484.922-1.406 1.438-.906.5-2 .5-1.734 0-2.813-1.109-1.078-1.125-1.078-3.234zm1.453 0q0 1.594.688 2.391.703.797 1.75.797 1.047 0 1.734-.797.703-.797.703-2.438 0-1.531-.703-2.328-.688-.797-1.734-.797-1.047 0-1.75.797-.688.781-.688 2.375zm7.977 4.156v-8.297h1.266v1.172q.906-1.359 2.641-1.359.75 0 1.375.266t.938.703q.313.438.438 1.047.078.391.078 1.359v5.109h-1.406v-5.047q0-.859-.172-1.281-.156-.438-.578-.688-.406-.25-.969-.25-.906 0-1.563.578-.641.563-.641 2.156v4.531h-1.406z"/><path d="M530.029 542.633h261.984v84.22h-261.984z" fill="none"/><path d="M543.888 583.783l-4.563-17.188h2.328l2.609 11.266q.422 1.766.734 3.516.656-2.75.766-3.172l3.281-11.609h2.734l2.469 8.703q.922 3.234 1.328 6.078.328-1.625.859-3.734l2.688-11.047h2.297l-4.719 17.188h-2.188l-3.625-13.094q-.453-1.641-.531-2.016-.281 1.188-.516 2.016l-3.641 13.094h-2.313zm19.371 0v-17.188h2.109v6.172q1.484-1.719 3.734-1.719 1.375 0 2.391.547 1.031.547 1.469 1.516.438.953.438 2.781v7.891h-2.109v-7.891q0-1.578-.688-2.297-.688-.719-1.938-.719-.938 0-1.766.484-.828.484-1.188 1.313-.344.828-.344 2.297v6.813h-2.109zm12.566-6.219q0-3.469 1.922-5.125 1.609-1.391 3.922-1.391 2.563 0 4.188 1.688 1.625 1.688 1.625 4.641 0 2.406-.719 3.781t-2.094 2.141q-1.375.766-3 .766-2.625 0-4.234-1.672-1.609-1.688-1.609-4.828zm2.172 0q0 2.391 1.031 3.578 1.047 1.188 2.641 1.188 1.563 0 2.609-1.188 1.047-1.203 1.047-3.656 0-2.313-1.063-3.5-1.047-1.188-2.594-1.188-1.594 0-2.641 1.188-1.031 1.188-1.031 3.578zM545.763 602.431l1.453.172q-.344 1.281-1.281 1.984-.922.703-2.359.703-1.828 0-2.891-1.125t-1.063-3.141q0-2.094 1.078-3.25 1.078-1.156 2.797-1.156 1.656 0 2.703 1.141 1.063 1.125 1.063 3.172v.375h-6.188q.078 1.375.766 2.109.703.719 1.734.719.781 0 1.328-.406t.859-1.297zm-4.609-2.281h4.625q-.094-1.047-.531-1.563-.672-.813-1.734-.813-.969 0-1.641.656-.656.641-.719 1.719zm8.227 4.953v-1.609h1.609v1.609h-1.609zm3.789.688l1.375.203q.078.641.469.922.531.391 1.438.391.969 0 1.5-.391t.719-1.094q.109-.422.109-1.813-.922 1.094-2.297 1.094-1.719 0-2.656-1.234-.938-1.234-.938-2.969 0-1.188.422-2.188.438-1 1.25-1.547.828-.547 1.922-.547 1.469 0 2.422 1.188v-1h1.297v7.172q0 1.938-.391 2.75-.391.813-1.25 1.281-.859.469-2.109.469-1.484 0-2.406-.672-.906-.672-.875-2.016zm1.172-4.984q0 1.625.641 2.375.656.75 1.625.75t1.625-.734q.656-.75.656-2.344 0-1.531-.672-2.297-.672-.781-1.625-.781-.938 0-1.594.766-.656.766-.656 2.266zm8.383 4.297v-1.609h1.609v1.609h-1.609zm13.875 0v-1.047q-.781 1.234-2.313 1.234-1 0-1.828-.547-.828-.547-1.297-1.531-.453-.984-.453-2.25 0-1.25.406-2.25.422-1.016 1.25-1.547.828-.547 1.859-.547.75 0 1.328.313.594.313.953.828v-4.109h1.406v11.453h-1.313zm-4.438-4.141q0 1.594.672 2.391.672.781 1.578.781.922 0 1.563-.75.656-.766.656-2.313 0-1.703-.656-2.5-.656-.797-1.625-.797-.938 0-1.563.766t-.625 2.422zm13.633 1.469l1.453.172q-.344 1.281-1.281 1.984-.922.703-2.359.703-1.828 0-2.891-1.125t-1.063-3.141q0-2.094 1.078-3.25 1.078-1.156 2.797-1.156 1.656 0 2.703 1.141 1.063 1.125 1.063 3.172v.375h-6.188q.078 1.375.766 2.109.703.719 1.734.719.781 0 1.328-.406t.859-1.297zm-4.609-2.281h4.625q-.094-1.047-.531-1.563-.672-.813-1.734-.813-.969 0-1.641.656-.656.641-.719 1.719zm7.836 4.953v-8.297h1.25v1.156q.391-.609 1.031-.969.656-.375 1.484-.375.922 0 1.516.391.594.375.828 1.063.984-1.453 2.563-1.453 1.234 0 1.891.688.672.672.672 2.094v5.703h-1.391v-5.234q0-.844-.141-1.203-.141-.375-.5-.594-.359-.234-.844-.234-.875 0-1.453.578-.578.578-.578 1.859v4.828h-1.406v-5.391q0-.938-.344-1.406-.344-.469-1.125-.469-.594 0-1.094.313-.5.313-.734.922-.219.594-.219 1.719v4.313h-1.406zm12.797-4.156q0-2.297 1.281-3.406 1.078-.922 2.609-.922 1.719 0 2.797 1.125 1.094 1.109 1.094 3.094 0 1.594-.484 2.516-.484.922-1.406 1.438-.906.5-2 .5-1.734 0-2.813-1.109-1.078-1.125-1.078-3.234zm1.453 0q0 1.594.688 2.391.703.797 1.75.797 1.047 0 1.734-.797.703-.797.703-2.438 0-1.531-.703-2.328-.688-.797-1.734-.797-1.047 0-1.75.797-.688.781-.688 2.375zm7.711 4.844l1.375.203q.078.641.469.922.531.391 1.438.391.969 0 1.5-.391t.719-1.094q.109-.422.109-1.813-.922 1.094-2.297 1.094-1.719 0-2.656-1.234-.938-1.234-.938-2.969 0-1.188.422-2.188.438-1 1.25-1.547.828-.547 1.922-.547 1.469 0 2.422 1.188v-1h1.297v7.172q0 1.938-.391 2.75-.391.813-1.25 1.281-.859.469-2.109.469-1.484 0-2.406-.672-.906-.672-.875-2.016zm1.172-4.984q0 1.625.641 2.375.656.75 1.625.75t1.625-.734q.656-.75.656-2.344 0-1.531-.672-2.297-.672-.781-1.625-.781-.938 0-1.594.766-.656.766-.656 2.266zm7.977 4.297v-8.297h1.266v1.25q.484-.875.891-1.156.406-.281.906-.281.703 0 1.438.453l-.484 1.297q-.516-.297-1.031-.297-.453 0-.828.281-.359.266-.516.766-.234.75-.234 1.641v4.344h-1.406zm10.75-1.031q-.781.672-1.5.953-.719.266-1.547.266-1.375 0-2.109-.672t-.734-1.703q0-.609.281-1.109.281-.516.719-.813.453-.313 1.016-.469.422-.109 1.25-.203 1.703-.203 2.516-.484v-.375q0-.859-.391-1.203-.547-.484-1.609-.484-.984 0-1.469.359-.469.344-.688 1.219l-1.375-.188q.188-.875.609-1.422.438-.547 1.25-.828.813-.297 1.875-.297 1.063 0 1.719.25.672.25.984.625.313.375.438.953.078.359.078 1.297v1.875q0 1.969.078 2.484.094.516.359 1h-1.469q-.219-.438-.281-1.031zm-.109-3.141q-.766.313-2.297.531-.875.125-1.234.281-.359.156-.563.469-.188.297-.188.656 0 .563.422.938.438.375 1.25.375.813 0 1.438-.344.641-.359.938-.984.234-.469.234-1.406v-.516zm3.602 7.359v-11.484h1.281v1.078q.453-.641 1.016-.953.578-.313 1.391-.313 1.063 0 1.875.547.813.547 1.219 1.547.422.984.422 2.172 0 1.281-.469 2.297-.453 1.016-1.328 1.563-.859.547-1.828.547-.703 0-1.266-.297-.547-.297-.906-.75v4.047h-1.406zm1.266-7.297q0 1.609.641 2.375.656.766 1.578.766.938 0 1.609-.797.672-.797.672-2.453 0-1.594-.656-2.375-.656-.797-1.563-.797-.891 0-1.594.844-.688.844-.688 2.438zm7.633 4.109v-11.453h1.406v4.109q.984-1.141 2.484-1.141.922 0 1.594.359.688.359.969 1 .297.641.297 1.859v5.266h-1.406v-5.266q0-1.047-.453-1.531t-1.297-.484q-.625 0-1.172.328-.547.328-.781.891-.234.547-.234 1.516v4.547h-1.406zm8.898-9.844v-1.609h1.406v1.609h-1.406zm0 9.844v-8.297h1.406v8.297h-1.406zm8.961-3.047l1.391.188q-.234 1.422-1.172 2.234-.922.813-2.281.813-1.703 0-2.75-1.109-1.031-1.125-1.031-3.203 0-1.344.438-2.344.453-1.016 1.359-1.516.922-.5 1.984-.5 1.359 0 2.219.688.859.672 1.094 1.938l-1.359.203q-.203-.828-.703-1.25-.484-.422-1.188-.422-1.063 0-1.734.766-.656.75-.656 2.406 0 1.672.641 2.438.641.75 1.672.75.828 0 1.375-.5.563-.516.703-1.578zm2.031.563l1.391-.219q.109.844.641 1.297.547.438 1.5.438.969 0 1.438-.391.469-.406.469-.938 0-.469-.406-.75-.297-.188-1.438-.469-1.547-.391-2.156-.672-.594-.297-.906-.797-.297-.5-.297-1.109 0-.563.25-1.031.25-.469.688-.781.328-.25.891-.406.578-.172 1.219-.172.984 0 1.719.281.734.281 1.078.766.359.469.5 1.281l-1.375.188q-.094-.641-.547-1-.453-.359-1.266-.359-.969 0-1.391.328-.406.313-.406.734 0 .281.172.5.172.219.531.375.219.078 1.25.359 1.484.391 2.078.656.594.25.922.734.344.484.344 1.203 0 .703-.422 1.328-.406.609-1.188.953-.766.344-1.734.344-1.625 0-2.469-.672-.844-.672-1.078-2zm8.922 2.484v-1.609h1.609v1.609q0 .891-.313 1.422-.313.547-1 .844l-.391-.594q.453-.203.656-.578.219-.375.234-1.094h-.797zm8.5 0v-11.453h1.406v11.453h-1.406zm3.055-4.156q0-2.297 1.281-3.406 1.078-.922 2.609-.922 1.719 0 2.797 1.125 1.094 1.109 1.094 3.094 0 1.594-.484 2.516-.484.922-1.406 1.438-.906.5-2 .5-1.734 0-2.813-1.109-1.078-1.125-1.078-3.234zm1.453 0q0 1.594.688 2.391.703.797 1.75.797 1.047 0 1.734-.797.703-.797.703-2.438 0-1.531-.703-2.328-.688-.797-1.734-.797-1.047 0-1.75.797-.688.781-.688 2.375zm13.383 1.109l1.391.188q-.234 1.422-1.172 2.234-.922.813-2.281.813-1.703 0-2.75-1.109-1.031-1.125-1.031-3.203 0-1.344.438-2.344.453-1.016 1.359-1.516.922-.5 1.984-.5 1.359 0 2.219.688.859.672 1.094 1.938l-1.359.203q-.203-.828-.703-1.25-.484-.422-1.188-.422-1.063 0-1.734.766-.656.75-.656 2.406 0 1.672.641 2.438.641.75 1.672.75.828 0 1.375-.5.563-.516.703-1.578zm8 2.016q-.781.672-1.5.953-.719.266-1.547.266-1.375 0-2.109-.672t-.734-1.703q0-.609.281-1.109.281-.516.719-.813.453-.313 1.016-.469.422-.109 1.25-.203 1.703-.203 2.516-.484v-.375q0-.859-.391-1.203-.547-.484-1.609-.484-.984 0-1.469.359-.469.344-.688 1.219l-1.375-.188q.188-.875.609-1.422.438-.547 1.25-.828.813-.297 1.875-.297 1.063 0 1.719.25.672.25.984.625.313.375.438.953.078.359.078 1.297v1.875q0 1.969.078 2.484.094.516.359 1h-1.469q-.219-.438-.281-1.031zm-.109-3.141q-.766.313-2.297.531-.875.125-1.234.281-.359.156-.563.469-.188.297-.188.656 0 .563.422.938.438.375 1.25.375.813 0 1.438-.344.641-.359.938-.984.234-.469.234-1.406v-.516zm6.664 2.906l.203 1.25q-.594.125-1.063.125-.766 0-1.188-.234-.422-.25-.594-.641-.172-.406-.172-1.672v-4.766h-1.031v-1.094h1.031v-2.063l1.406-.844v2.906h1.406v1.094h-1.406v4.844q0 .609.063.781.078.172.25.281.172.094.484.094.234 0 .609-.063zm1.383-8.578v-1.609h1.406v1.609h-1.406zm0 9.844v-8.297h1.406v8.297h-1.406zm3.023-4.156q0-2.297 1.281-3.406 1.078-.922 2.609-.922 1.719 0 2.797 1.125 1.094 1.109 1.094 3.094 0 1.594-.484 2.516-.484.922-1.406 1.438-.906.5-2 .5-1.734 0-2.813-1.109-1.078-1.125-1.078-3.234zm1.453 0q0 1.594.688 2.391.703.797 1.75.797 1.047 0 1.734-.797.703-.797.703-2.438 0-1.531-.703-2.328-.688-.797-1.734-.797-1.047 0-1.75.797-.688.781-.688 2.375zm7.977 4.156v-8.297h1.266v1.172q.906-1.359 2.641-1.359.75 0 1.375.266t.938.703q.313.438.438 1.047.078.391.078 1.359v5.109h-1.406v-5.047q0-.859-.172-1.281-.156-.438-.578-.688-.406-.25-.969-.25-.906 0-1.563.578-.641.563-.641 2.156v4.531h-1.406z"/><path d="M634.029 212.955h104" fill="none"/><path stroke="#000" stroke-width="2" stroke-linejoin="round" d="M646.029 212.955h92" fill-rule="evenodd"/><path stroke="#000" stroke-width="2" d="M646.029 209.652l-9.076 3.303 9.076 3.303z" fill-rule="evenodd"/><path d="M410.029 355.408l144-1.984" fill="none"/><path stroke="#000" stroke-width="2" stroke-linejoin="round" d="M422.028 355.243l132.001-1.819" fill-rule="evenodd"/><path stroke="#000" stroke-width="2" d="M421.982 351.94l-9.03 3.428 9.121 3.178z" fill-rule="evenodd"/><path d="M426.029 584.743h104" fill="none"/><path stroke="#000" stroke-width="2" stroke-linejoin="round" d="M438.029 584.743h92" fill-rule="evenodd"/><path stroke="#000" stroke-width="2" d="M438.029 581.439l-9.076 3.303 9.076 3.303z" fill-rule="evenodd"/><path fill="#fff" d="M194.848 313.298h215.181v84.22h-215.181z" fill-rule="evenodd"/><path stroke="#000" stroke-width="2" stroke-linejoin="round" d="M194.848 313.298h215.181v84.22h-215.181z" fill-rule="evenodd"/><path d="M217.688 363.948v-17.188h11.594v2.031h-9.313v5.328h8.063v2.016h-8.063v7.813h-2.281zm22.801-4.016l2.172.281q-.516 1.906-1.906 2.969-1.391 1.047-3.563 1.047-2.734 0-4.344-1.672-1.594-1.688-1.594-4.734 0-3.141 1.609-4.875 1.625-1.734 4.203-1.734 2.5 0 4.078 1.703 1.594 1.703 1.594 4.781l-.016.563h-9.281q.109 2.047 1.156 3.141 1.047 1.094 2.609 1.094 1.156 0 1.969-.609.828-.609 1.313-1.953zm-6.938-3.406h6.953q-.141-1.563-.797-2.359-1-1.219-2.609-1.219-1.453 0-2.453.984-.984.969-1.094 2.594zm20.285 3.406l2.172.281q-.516 1.906-1.906 2.969-1.391 1.047-3.563 1.047-2.734 0-4.344-1.672-1.594-1.688-1.594-4.734 0-3.141 1.609-4.875 1.625-1.734 4.203-1.734 2.5 0 4.078 1.703 1.594 1.703 1.594 4.781l-.016.563h-9.281q.109 2.047 1.156 3.141 1.047 1.094 2.609 1.094 1.156 0 1.969-.609.828-.609 1.313-1.953zm-6.938-3.406h6.953q-.141-1.563-.797-2.359-1-1.219-2.609-1.219-1.453 0-2.453.984-.984.969-1.094 2.594zm19.832 7.422v-1.578q-1.188 1.859-3.484 1.859-1.484 0-2.734-.813-1.25-.828-1.938-2.297-.672-1.469-.672-3.391 0-1.859.609-3.375.625-1.516 1.859-2.328 1.25-.813 2.781-.813 1.125 0 2 .484.891.469 1.438 1.234v-6.172h2.094v17.188h-1.953zm-6.672-6.219q0 2.391 1 3.578 1.016 1.188 2.391 1.188 1.391 0 2.344-1.125.969-1.141.969-3.453 0-2.563-.984-3.75-.984-1.203-2.422-1.203-1.406 0-2.359 1.156-.938 1.141-.938 3.609zm13.895 6.219h-1.953v-17.188h2.109v6.141q1.328-1.688 3.406-1.688 1.141 0 2.172.469 1.031.469 1.688 1.313.656.828 1.031 2.016.375 1.172.375 2.531 0 3.188-1.578 4.938-1.578 1.75-3.797 1.75-2.203 0-3.453-1.844v1.563zm-.031-6.313q0 2.234.609 3.234 1 1.625 2.703 1.625 1.375 0 2.375-1.203 1.016-1.203 1.016-3.578 0-2.438-.969-3.594-.953-1.172-2.328-1.172-1.391 0-2.406 1.203-1 1.203-1 3.484zm19.551 4.781q-1.172.984-2.266 1.406-1.078.406-2.313.406-2.047 0-3.156-1-1.094-1-1.094-2.563 0-.922.406-1.672.422-.75 1.094-1.203.672-.469 1.516-.703.625-.156 1.875-.313 2.563-.313 3.766-.734l.016-.547q0-1.281-.609-1.813-.797-.719-2.391-.719-1.5 0-2.203.531-.703.516-1.047 1.844l-2.063-.281q.281-1.328.922-2.141t1.859-1.25q1.219-.453 2.828-.453 1.594 0 2.594.375 1 .375 1.469.953.469.563.656 1.438.094.531.094 1.938v2.813q0 2.938.141 3.719.141.781.531 1.5h-2.203q-.328-.656-.422-1.531zm-.172-4.719q-1.156.469-3.453.797-1.297.188-1.844.422-.531.234-.828.688-.281.453-.281 1 0 .844.625 1.406.641.563 1.875.563 1.219 0 2.172-.531.953-.531 1.391-1.453.344-.719.344-2.109v-.781zm13.52 1.688l2.078.266q-.344 2.156-1.75 3.375-1.391 1.203-3.438 1.203-2.547 0-4.109-1.672-1.547-1.672-1.547-4.781 0-2.016.672-3.531.672-1.516 2.031-2.266 1.359-.766 2.969-.766 2.031 0 3.313 1.031 1.297 1.031 1.656 2.906l-2.047.328q-.297-1.266-1.047-1.891-.734-.641-1.797-.641-1.594 0-2.594 1.156-.984 1.141-.984 3.609 0 2.5.953 3.641.969 1.141 2.516 1.141 1.234 0 2.063-.766.844-.766 1.063-2.344zm3.891 4.563v-17.188h2.109v9.797l5-5.063h2.719l-4.75 4.625 5.234 7.828h-2.594l-4.125-6.359-1.484 1.422v4.938h-2.109zm18.98 0v-17.188h12.422v2.031h-10.156v5.266h9.5v2.016h-9.5v5.844h10.547v2.031h-12.813zm19.148 0l-4.734-12.453h2.219l2.672 7.453q.438 1.219.797 2.516.281-.984.781-2.375l2.766-7.594h2.172l-4.703 12.453h-1.969zm17.063-4.016l2.172.281q-.516 1.906-1.906 2.969-1.391 1.047-3.563 1.047-2.734 0-4.344-1.672-1.594-1.688-1.594-4.734 0-3.141 1.609-4.875 1.625-1.734 4.203-1.734 2.5 0 4.078 1.703 1.594 1.703 1.594 4.781l-.016.563h-9.281q.109 2.047 1.156 3.141 1.047 1.094 2.609 1.094 1.156 0 1.969-.609.828-.609 1.313-1.953zm-6.938-3.406h6.953q-.141-1.563-.797-2.359-1-1.219-2.609-1.219-1.453 0-2.453.984-.984.969-1.094 2.594zm11.754 7.422v-12.453h1.906v1.781q1.375-2.063 3.953-2.063 1.125 0 2.063.406.953.406 1.422 1.063.469.656.656 1.563.125.578.125 2.047v7.656h-2.109v-7.578q0-1.281-.25-1.922t-.875-1.016q-.625-.391-1.469-.391-1.344 0-2.328.859-.984.859-.984 3.25v6.797h-2.109zm17.957-1.891l.313 1.859q-.891.203-1.594.203-1.156 0-1.797-.359-.625-.375-.891-.969-.25-.594-.25-2.484v-7.172h-1.547v-1.641h1.547v-3.078l2.094-1.266v4.344h2.125v1.641h-2.125v7.281q0 .906.109 1.172.125.25.375.406.25.141.719.141.344 0 .922-.078z"/><path fill="#fff" d="M210.848 542.633h215.181v84.22h-215.181z" fill-rule="evenodd"/><path stroke="#000" stroke-width="2" stroke-linejoin="round" d="M210.848 542.633h215.181v84.22h-215.181z" fill-rule="evenodd"/><path d="M277.194 587.251l2.281.578q-.719 2.797-2.578 4.281-1.859 1.469-4.547 1.469-2.766 0-4.516-1.125-1.734-1.141-2.641-3.281-.906-2.156-.906-4.609 0-2.688 1.016-4.688 1.031-2 2.922-3.031 1.891-1.031 4.172-1.031 2.578 0 4.328 1.313 1.766 1.313 2.453 3.688l-2.234.531q-.609-1.875-1.75-2.734-1.125-.859-2.844-.859-1.984 0-3.313.953-1.328.953-1.875 2.547-.531 1.594-.531 3.297 0 2.188.625 3.828.641 1.641 1.984 2.453 1.359.797 2.922.797 1.922 0 3.234-1.094 1.328-1.109 1.797-3.281zm4.02-.188q0-3.469 1.922-5.125 1.609-1.391 3.922-1.391 2.563 0 4.188 1.688 1.625 1.688 1.625 4.641 0 2.406-.719 3.781t-2.094 2.141q-1.375.766-3 .766-2.625 0-4.234-1.672-1.609-1.688-1.609-4.828zm2.172 0q0 2.391 1.031 3.578 1.047 1.188 2.641 1.188 1.563 0 2.609-1.188 1.047-1.203 1.047-3.656 0-2.313-1.063-3.5-1.047-1.188-2.594-1.188-1.594 0-2.641 1.188-1.031 1.188-1.031 3.578zm11.957 6.219v-12.453h1.906v1.781q1.375-2.063 3.953-2.063 1.125 0 2.063.406.953.406 1.422 1.063.469.656.656 1.563.125.578.125 2.047v7.656h-2.109v-7.578q0-1.281-.25-1.922t-.875-1.016q-.625-.391-1.469-.391-1.344 0-2.328.859-.984.859-.984 3.25v6.797h-2.109zm12.504-3.719l2.094-.328q.172 1.25.969 1.922.813.672 2.25.672 1.453 0 2.156-.594.703-.594.703-1.391 0-.719-.625-1.125-.422-.281-2.156-.719-2.313-.578-3.219-1-.891-.438-1.359-1.188-.453-.766-.453-1.672 0-.828.375-1.531.391-.719 1.047-1.188.484-.359 1.328-.609.859-.266 1.828-.266 1.469 0 2.578.422 1.109.422 1.625 1.156.531.719.734 1.922l-2.063.281q-.141-.969-.813-1.5-.672-.547-1.906-.547-1.453 0-2.078.484-.625.484-.625 1.125 0 .406.266.734.25.344.813.563.313.125 1.859.547 2.234.594 3.109.984.891.375 1.391 1.109.516.719.516 1.797 0 1.047-.625 1.984-.609.938-1.766 1.453-1.156.5-2.625.5-2.422 0-3.703-1-1.266-1.016-1.625-3zm21 3.719v-1.828q-1.453 2.109-3.938 2.109-1.109 0-2.063-.422-.953-.422-1.422-1.063-.453-.641-.641-1.563-.141-.625-.141-1.969v-7.719h2.109v6.906q0 1.656.141 2.234.188.828.828 1.313.656.469 1.609.469.938 0 1.766-.484.844-.5 1.188-1.328.344-.844.344-2.438v-6.672h2.109v12.453h-1.891zm5.191 0v-12.453h1.891v1.75q.594-.906 1.563-1.469.969-.563 2.219-.563 1.375 0 2.25.578.891.578 1.266 1.609 1.469-2.188 3.844-2.188 1.844 0 2.844 1.031 1 1.031 1 3.156v8.547h-2.109v-7.844q0-1.266-.203-1.813-.203-.563-.75-.906-.531-.344-1.25-.344-1.313 0-2.188.875-.859.875-.859 2.797v7.234h-2.109v-8.094q0-1.406-.516-2.109-.516-.703-1.688-.703-.891 0-1.656.469-.75.469-1.094 1.375-.344.906-.344 2.609v6.453h-2.109zm28.523-4.016l2.172.281q-.516 1.906-1.906 2.969-1.391 1.047-3.563 1.047-2.734 0-4.344-1.672-1.594-1.688-1.594-4.734 0-3.141 1.609-4.875 1.625-1.734 4.203-1.734 2.5 0 4.078 1.703 1.594 1.703 1.594 4.781l-.016.563h-9.281q.109 2.047 1.156 3.141 1.047 1.094 2.609 1.094 1.156 0 1.969-.609.828-.609 1.313-1.953zm-6.938-3.406h6.953q-.141-1.563-.797-2.359-1-1.219-2.609-1.219-1.453 0-2.453.984-.984.969-1.094 2.594zm11.738 7.422v-12.453h1.891v1.891q.734-1.328 1.344-1.75.625-.422 1.359-.422 1.063 0 2.172.688l-.734 1.953q-.766-.453-1.547-.453-.688 0-1.25.422-.547.406-.781 1.141-.344 1.125-.344 2.469v6.516h-2.109z"/><path fill="#fff" d="M444.114 66.031h166.331v65.102h-166.331z" fill-rule="evenodd"/><path stroke="#000" stroke-width="2" stroke-linejoin="round" stroke-dasharray="8.0,6.0" d="M444.114 66.031h166.331v65.102h-166.331z" fill-rule="evenodd"/><path d="M486.081 100.737l1.797.453q-.563 2.219-2.031 3.391-1.469 1.156-3.594 1.156-2.203 0-3.578-.891-1.375-.906-2.094-2.594-.719-1.703-.719-3.656 0-2.125.797-3.703.813-1.578 2.313-2.391 1.5-.828 3.297-.828 2.047 0 3.438 1.047 1.391 1.031 1.938 2.906l-1.766.422q-.469-1.484-1.375-2.156-.906-.688-2.266-.688-1.563 0-2.625.75-1.047.75-1.484 2.031-.422 1.266-.422 2.609 0 1.734.5 3.031.516 1.281 1.578 1.922 1.078.641 2.313.641 1.516 0 2.563-.859 1.047-.875 1.422-2.594zm2.926-.156q0-2.734 1.531-4.063 1.266-1.094 3.094-1.094 2.031 0 3.313 1.344 1.297 1.328 1.297 3.672 0 1.906-.578 3-.563 1.078-1.656 1.688-1.078.594-2.375.594-2.063 0-3.344-1.328-1.281-1.328-1.281-3.813zm1.719 0q0 1.891.828 2.828.828.938 2.078.938t2.063-.938q.828-.953.828-2.891 0-1.828-.828-2.766t-2.063-.938q-1.25 0-2.078.938-.828.938-.828 2.828zm9.282 4.922v-9.859h1.5v1.406q1.094-1.625 3.141-1.625.891 0 1.641.328.75.313 1.109.844.375.516.531 1.219.094.469.094 1.625v6.063h-1.672v-6q0-1.016-.203-1.516-.188-.516-.688-.813-.5-.297-1.172-.297-1.063 0-1.844.672-.766.672-.766 2.578v5.375h-1.672zm9.704-2.938l1.656-.266q.141 1 .766 1.531.641.516 1.781.516 1.156 0 1.703-.469.563-.469.563-1.094 0-.563-.484-.891-.344-.219-1.703-.563-1.844-.469-2.563-.797-.703-.344-1.078-.938-.359-.609-.359-1.328 0-.656.297-1.219.313-.563.828-.938.391-.281 1.063-.484.672-.203 1.438-.203 1.172 0 2.047.344.875.328 1.281.906.422.563.578 1.516l-1.625.219q-.109-.75-.656-1.172-.531-.438-1.5-.438-1.156 0-1.641.391-.484.375-.484.875 0 .328.203.594.203.266.641.438.25.094 1.469.438 1.766.469 2.469.766.703.297 1.094.875.406.578.406 1.438 0 .828-.484 1.578-.484.734-1.406 1.141-.922.391-2.078.391-1.922 0-2.938-.797-1-.797-1.281-2.359zm16.453 2.938v-1.453q-1.141 1.672-3.125 1.672-.859 0-1.625-.328-.75-.344-1.125-.844-.359-.5-.516-1.234-.094-.5-.094-1.563v-6.109h1.672v5.469q0 1.313.094 1.766.156.656.672 1.031.516.375 1.266.375t1.406-.375q.656-.391.922-1.047.281-.672.281-1.938v-5.281h1.672v9.859h-1.5zm3.923 0v-9.859h1.5v1.391q.453-.719 1.219-1.156.781-.453 1.766-.453 1.094 0 1.797.453.703.453.984 1.281 1.172-1.734 3.047-1.734 1.469 0 2.25.813.797.813.797 2.5v6.766h-1.672v-6.203q0-1-.156-1.438-.156-.453-.594-.719-.422-.266-1-.266-1.031 0-1.719.688-.688.688-.688 2.219v5.719h-1.672v-6.406q0-1.109-.406-1.656-.406-.563-1.344-.563-.703 0-1.313.375-.594.359-.859 1.078-.266.719-.266 2.063v5.109h-1.672zm21.978-1.219q-.938.797-1.797 1.125-.859.313-1.844.313-1.609 0-2.484-.781-.875-.797-.875-2.031 0-.734.328-1.328.328-.594.859-.953.531-.359 1.203-.547.5-.141 1.484-.25 2.031-.25 2.984-.578v-.438q0-1.016-.469-1.438-.641-.563-1.906-.563-1.172 0-1.734.406-.563.406-.828 1.469l-1.641-.234q.234-1.047.734-1.688.516-.641 1.469-.984.969-.359 2.25-.359 1.266 0 2.047.297.781.297 1.156.75.375.453.516 1.141.094.422.094 1.531v2.234q0 2.328.094 2.953.109.609.438 1.172h-1.75q-.266-.516-.328-1.219zm-.141-3.719q-.906.359-2.734.625-1.031.141-1.453.328-.422.188-.656.547-.234.359-.234.797 0 .672.5 1.125.516.438 1.484.438.969 0 1.719-.422.75-.438 1.109-1.156.266-.578.266-1.672v-.609zm5.626 4.938h-1.547v-13.594h1.656v4.844q1.063-1.328 2.703-1.328.906 0 1.719.375.813.359 1.328 1.031.531.656.828 1.594.297.938.297 2 0 2.531-1.25 3.922-1.25 1.375-3 1.375t-2.734-1.453v1.234zm-.016-5q0 1.766.469 2.563.797 1.281 2.141 1.281 1.094 0 1.891-.938.797-.953.797-2.844 0-1.922-.766-2.844-.766-.922-1.844-.922-1.094 0-1.891.953-.797.953-.797 2.75zm8.813 5v-13.594h1.672v13.594h-1.672zm10.926-3.172l1.719.219q-.406 1.5-1.516 2.344-1.094.828-2.813.828-2.156 0-3.422-1.328t-1.266-3.734q0-2.484 1.266-3.859 1.281-1.375 3.328-1.375 1.984 0 3.234 1.344t1.25 3.797l-.016.438h-7.344q.094 1.625.922 2.484.828.859 2.063.859.906 0 1.547-.469.656-.484 1.047-1.547zm-5.484-2.703h5.5q-.109-1.234-.625-1.859-.797-.969-2.078-.969-1.141 0-1.938.781-.781.766-.859 2.047z"/><path d="M682.029 56.472h203.402v84.22h-203.402z" fill="none"/><path d="M694.873 96.003l-3.609-13.594h1.844l2.063 8.906q.344 1.406.578 2.781.516-2.172.609-2.516l2.594-9.172h2.172l1.953 6.875q.734 2.563 1.047 4.813.266-1.281.688-2.953l2.125-8.734h1.813l-3.734 13.594h-1.734l-2.859-10.359q-.359-1.297-.422-1.594-.219.938-.406 1.594l-2.891 10.359h-1.828zm15.015 0v-13.594h1.672v4.875q1.172-1.359 2.953-1.359 1.094 0 1.891.438.813.422 1.156 1.188.359.766.359 2.203v6.25h-1.672v-6.25q0-1.25-.547-1.813-.547-.578-1.531-.578-.75 0-1.406.391-.641.375-.922 1.047-.281.656-.281 1.813v5.391h-1.672zm16.813-1.219q-.938.797-1.797 1.125-.859.313-1.844.313-1.609 0-2.484-.781-.875-.797-.875-2.031 0-.734.328-1.328.328-.594.859-.953.531-.359 1.203-.547.5-.141 1.484-.25 2.031-.25 2.984-.578v-.438q0-1.016-.469-1.438-.641-.563-1.906-.563-1.172 0-1.734.406-.563.406-.828 1.469l-1.641-.234q.234-1.047.734-1.688.516-.641 1.469-.984.969-.359 2.25-.359 1.266 0 2.047.297.781.297 1.156.75.375.453.516 1.141.094.422.094 1.531v2.234q0 2.328.094 2.953.109.609.438 1.172h-1.75q-.266-.516-.328-1.219zm-.141-3.719q-.906.359-2.734.625-1.031.141-1.453.328-.422.188-.656.547-.234.359-.234.797 0 .672.5 1.125.516.438 1.484.438.969 0 1.719-.422.75-.438 1.109-1.156.266-.578.266-1.672v-.609zm7.735 3.438l.234 1.484q-.703.141-1.266.141-.906 0-1.406-.281-.5-.297-.703-.75-.203-.469-.203-1.984v-5.656h-1.234v-1.313h1.234v-2.438l1.656-1v3.438h1.688v1.313h-1.688v5.75q0 .719.078.922.094.203.297.328.203.125.578.125.266 0 .734-.078zm9.898 5.5q-1.375-1.75-2.328-4.078-.953-2.344-.953-4.844 0-2.219.703-4.234.844-2.344 2.578-4.672h1.203q-1.125 1.922-1.484 2.75-.563 1.281-.891 2.672-.406 1.734-.406 3.484 0 4.469 2.781 8.922h-1.203zm9.463-7.609l1.641.219q-.266 1.688-1.375 2.656-1.109.953-2.734.953-2.016 0-3.25-1.313-1.219-1.328-1.219-3.797 0-1.594.516-2.781.531-1.203 1.609-1.797 1.094-.609 2.359-.609 1.609 0 2.625.813t1.313 2.313l-1.625.25q-.234-1-.828-1.5t-1.422-.5q-1.266 0-2.063.906-.781.906-.781 2.859 0 1.984.766 2.891.766.891 1.984.891.984 0 1.641-.594.656-.609.844-1.859zm2.891 3.609v-13.594h1.672v4.875q1.172-1.359 2.953-1.359 1.094 0 1.891.438.813.422 1.156 1.188.359.766.359 2.203v6.25h-1.672v-6.25q0-1.25-.547-1.813-.547-.578-1.531-.578-.75 0-1.406.391-.641.375-.922 1.047-.281.656-.281 1.813v5.391h-1.672zm16.813-1.219q-.938.797-1.797 1.125-.859.313-1.844.313-1.609 0-2.484-.781-.875-.797-.875-2.031 0-.734.328-1.328.328-.594.859-.953.531-.359 1.203-.547.5-.141 1.484-.25 2.031-.25 2.984-.578v-.438q0-1.016-.469-1.438-.641-.563-1.906-.563-1.172 0-1.734.406-.563.406-.828 1.469l-1.641-.234q.234-1.047.734-1.688.516-.641 1.469-.984.969-.359 2.25-.359 1.266 0 2.047.297.781.297 1.156.75.375.453.516 1.141.094.422.094 1.531v2.234q0 2.328.094 2.953.109.609.438 1.172h-1.75q-.266-.516-.328-1.219zm-.141-3.719q-.906.359-2.734.625-1.031.141-1.453.328-.422.188-.656.547-.234.359-.234.797 0 .672.5 1.125.516.438 1.484.438.969 0 1.719-.422.75-.438 1.109-1.156.266-.578.266-1.672v-.609zm4.094-6.75v-1.906h1.672v1.906h-1.672zm0 11.688v-9.859h1.672v9.859h-1.672zm4.129 0v-9.859h1.5v1.406q1.094-1.625 3.141-1.625.891 0 1.641.328.75.313 1.109.844.375.516.531 1.219.094.469.094 1.625v6.063h-1.672v-6q0-1.016-.203-1.516-.188-.516-.688-.813-.5-.297-1.172-.297-1.063 0-1.844.672-.766.672-.766 2.578v5.375h-1.672zm11.469 4h-1.188q2.766-4.453 2.766-8.922 0-1.734-.391-3.453-.328-1.391-.891-2.672-.359-.844-1.484-2.781h1.188q1.75 2.328 2.578 4.672.719 2.016.719 4.234 0 2.5-.969 4.844-.953 2.328-2.328 4.078zM697.763 112.771l1.453.172q-.344 1.281-1.281 1.984-.922.703-2.359.703-1.828 0-2.891-1.125t-1.063-3.141q0-2.094 1.078-3.25 1.078-1.156 2.797-1.156 1.656 0 2.703 1.141 1.063 1.125 1.063 3.172v.375h-6.188q.078 1.375.766 2.109.703.719 1.734.719.781 0 1.328-.406t.859-1.297zm-4.609-2.281h4.625q-.094-1.047-.531-1.563-.672-.813-1.734-.813-.969 0-1.641.656-.656.641-.719 1.719zm8.227 4.953v-1.609h1.609v1.609h-1.609zm3.789.688l1.375.203q.078.641.469.922.531.391 1.438.391.969 0 1.5-.391t.719-1.094q.109-.422.109-1.813-.922 1.094-2.297 1.094-1.719 0-2.656-1.234-.938-1.234-.938-2.969 0-1.188.422-2.188.438-1 1.25-1.547.828-.547 1.922-.547 1.469 0 2.422 1.188v-1h1.297v7.172q0 1.938-.391 2.75-.391.813-1.25 1.281-.859.469-2.109.469-1.484 0-2.406-.672-.906-.672-.875-2.016zm1.172-4.984q0 1.625.641 2.375.656.75 1.625.75t1.625-.734q.656-.75.656-2.344 0-1.531-.672-2.297-.672-.781-1.625-.781-.938 0-1.594.766-.656.766-.656 2.266zm8.383 4.297v-1.609h1.609v1.609h-1.609zm13.906-1.031q-.781.672-1.5.953-.719.266-1.547.266-1.375 0-2.109-.672t-.734-1.703q0-.609.281-1.109.281-.516.719-.813.453-.313 1.016-.469.422-.109 1.25-.203 1.703-.203 2.516-.484v-.375q0-.859-.391-1.203-.547-.484-1.609-.484-.984 0-1.469.359-.469.344-.688 1.219l-1.375-.188q.188-.875.609-1.422.438-.547 1.25-.828.813-.297 1.875-.297 1.063 0 1.719.25.672.25.984.625.313.375.438.953.078.359.078 1.297v1.875q0 1.969.078 2.484.094.516.359 1h-1.469q-.219-.438-.281-1.031zm-.109-3.141q-.766.313-2.297.531-.875.125-1.234.281-.359.156-.563.469-.188.297-.188.656 0 .563.422.938.438.375 1.25.375.813 0 1.438-.344.641-.359.938-.984.234-.469.234-1.406v-.516zm3.602 4.172v-8.297h1.266v1.172q.906-1.359 2.641-1.359.75 0 1.375.266t.938.703q.313.438.438 1.047.078.391.078 1.359v5.109h-1.406v-5.047q0-.859-.172-1.281-.156-.438-.578-.688-.406-.25-.969-.25-.906 0-1.563.578-.641.563-.641 2.156v4.531h-1.406zm19.016-2.672l1.453.172q-.344 1.281-1.281 1.984-.922.703-2.359.703-1.828 0-2.891-1.125t-1.063-3.141q0-2.094 1.078-3.25 1.078-1.156 2.797-1.156 1.656 0 2.703 1.141 1.063 1.125 1.063 3.172v.375h-6.188q.078 1.375.766 2.109.703.719 1.734.719.781 0 1.328-.406t.859-1.297zm-4.609-2.281h4.625q-.094-1.047-.531-1.563-.672-.813-1.734-.813-.969 0-1.641.656-.656.641-.719 1.719zm7.836 8.141v-11.484h1.281v1.078q.453-.641 1.016-.953.578-.313 1.391-.313 1.063 0 1.875.547.813.547 1.219 1.547.422.984.422 2.172 0 1.281-.469 2.297-.453 1.016-1.328 1.563-.859.547-1.828.547-.703 0-1.266-.297-.547-.297-.906-.75v4.047h-1.406zm1.266-7.297q0 1.609.641 2.375.656.766 1.578.766.938 0 1.609-.797.672-.797.672-2.453 0-1.594-.656-2.375-.656-.797-1.563-.797-.891 0-1.594.844-.688.844-.688 2.438zm7.633-5.734v-1.609h1.406v1.609h-1.406zm0 9.844v-8.297h1.406v8.297h-1.406zm2.992-2.484l1.391-.219q.109.844.641 1.297.547.438 1.5.438.969 0 1.438-.391.469-.406.469-.938 0-.469-.406-.75-.297-.188-1.438-.469-1.547-.391-2.156-.672-.594-.297-.906-.797-.297-.5-.297-1.109 0-.563.25-1.031.25-.469.688-.781.328-.25.891-.406.578-.172 1.219-.172.984 0 1.719.281.734.281 1.078.766.359.469.5 1.281l-1.375.188q-.094-.641-.547-1-.453-.359-1.266-.359-.969 0-1.391.328-.406.313-.406.734 0 .281.172.5.172.219.531.375.219.078 1.25.359 1.484.391 2.078.656.594.25.922.734.344.484.344 1.203 0 .703-.422 1.328-.406.609-1.188.953-.766.344-1.734.344-1.625 0-2.469-.672-.844-.672-1.078-2zm8.031-1.672q0-2.297 1.281-3.406 1.078-.922 2.609-.922 1.719 0 2.797 1.125 1.094 1.109 1.094 3.094 0 1.594-.484 2.516-.484.922-1.406 1.438-.906.5-2 .5-1.734 0-2.813-1.109-1.078-1.125-1.078-3.234zm1.453 0q0 1.594.688 2.391.703.797 1.75.797 1.047 0 1.734-.797.703-.797.703-2.438 0-1.531-.703-2.328-.688-.797-1.734-.797-1.047 0-1.75.797-.688.781-.688 2.375zm13.352 4.156v-1.047q-.781 1.234-2.313 1.234-1 0-1.828-.547-.828-.547-1.297-1.531-.453-.984-.453-2.25 0-1.25.406-2.25.422-1.016 1.25-1.547.828-.547 1.859-.547.75 0 1.328.313.594.313.953.828v-4.109h1.406v11.453h-1.313zm-4.438-4.141q0 1.594.672 2.391.672.781 1.578.781.922 0 1.563-.75.656-.766.656-2.313 0-1.703-.656-2.5-.656-.797-1.625-.797-.938 0-1.563.766t-.625 2.422zm13.633 1.469l1.453.172q-.344 1.281-1.281 1.984-.922.703-2.359.703-1.828 0-2.891-1.125t-1.063-3.141q0-2.094 1.078-3.25 1.078-1.156 2.797-1.156 1.656 0 2.703 1.141 1.063 1.125 1.063 3.172v.375h-6.188q.078 1.375.766 2.109.703.719 1.734.719.781 0 1.328-.406t.859-1.297zm-4.609-2.281h4.625q-.094-1.047-.531-1.563-.672-.813-1.734-.813-.969 0-1.641.656-.656.641-.719 1.719zm8.195 4.953v-1.609h1.609v1.609q0 .891-.313 1.422-.313.547-1 .844l-.391-.594q.453-.203.656-.578.219-.375.234-1.094h-.797zm13.938-1.031q-.781.672-1.5.953-.719.266-1.547.266-1.375 0-2.109-.672t-.734-1.703q0-.609.281-1.109.281-.516.719-.813.453-.313 1.016-.469.422-.109 1.25-.203 1.703-.203 2.516-.484v-.375q0-.859-.391-1.203-.547-.484-1.609-.484-.984 0-1.469.359-.469.344-.688 1.219l-1.375-.188q.188-.875.609-1.422.438-.547 1.25-.828.813-.297 1.875-.297 1.063 0 1.719.25.672.25.984.625.313.375.438.953.078.359.078 1.297v1.875q0 1.969.078 2.484.094.516.359 1h-1.469q-.219-.438-.281-1.031zm-.109-3.141q-.766.313-2.297.531-.875.125-1.234.281-.359.156-.563.469-.188.297-.188.656 0 .563.422.938.438.375 1.25.375.813 0 1.438-.344.641-.359.938-.984.234-.469.234-1.406v-.516zm3.602 4.172v-8.297h1.266v1.172q.906-1.359 2.641-1.359.75 0 1.375.266t.938.703q.313.438.438 1.047.078.391.078 1.359v5.109h-1.406v-5.047q0-.859-.172-1.281-.156-.438-.578-.688-.406-.25-.969-.25-.906 0-1.563.578-.641.563-.641 2.156v4.531h-1.406zm18.75-1.031q-.781.672-1.5.953-.719.266-1.547.266-1.375 0-2.109-.672t-.734-1.703q0-.609.281-1.109.281-.516.719-.813.453-.313 1.016-.469.422-.109 1.25-.203 1.703-.203 2.516-.484v-.375q0-.859-.391-1.203-.547-.484-1.609-.484-.984 0-1.469.359-.469.344-.688 1.219l-1.375-.188q.188-.875.609-1.422.438-.547 1.25-.828.813-.297 1.875-.297 1.063 0 1.719.25.672.25.984.625.313.375.438.953.078.359.078 1.297v1.875q0 1.969.078 2.484.094.516.359 1h-1.469q-.219-.438-.281-1.031zm-.109-3.141q-.766.313-2.297.531-.875.125-1.234.281-.359.156-.563.469-.188.297-.188.656 0 .563.422.938.438.375 1.25.375.813 0 1.438-.344.641-.359.938-.984.234-.469.234-1.406v-.516zm3.602 7.359v-11.484h1.281v1.078q.453-.641 1.016-.953.578-.313 1.391-.313 1.063 0 1.875.547.813.547 1.219 1.547.422.984.422 2.172 0 1.281-.469 2.297-.453 1.016-1.328 1.563-.859.547-1.828.547-.703 0-1.266-.297-.547-.297-.906-.75v4.047h-1.406zm1.266-7.297q0 1.609.641 2.375.656.766 1.578.766.938 0 1.609-.797.672-.797.672-2.453 0-1.594-.656-2.375-.656-.797-1.563-.797-.891 0-1.594.844-.688.844-.688 2.438zm7.633 7.297v-11.484h1.281v1.078q.453-.641 1.016-.953.578-.313 1.391-.313 1.063 0 1.875.547.813.547 1.219 1.547.422.984.422 2.172 0 1.281-.469 2.297-.453 1.016-1.328 1.563-.859.547-1.828.547-.703 0-1.266-.297-.547-.297-.906-.75v4.047h-1.406zm1.266-7.297q0 1.609.641 2.375.656.766 1.578.766.938 0 1.609-.797.672-.797.672-2.453 0-1.594-.656-2.375-.656-.797-1.563-.797-.891 0-1.594.844-.688.844-.688 2.438z"/><path d="M610.445 98.583h71.591" fill="none"/><path stroke="#000" stroke-width="2" stroke-linejoin="round" stroke-dasharray="8.0,6.0" d="M622.445 98.583h59.591" fill-rule="evenodd"/><path stroke="#000" stroke-width="2" d="M622.445 95.279l-9.076 3.303 9.076 3.303z" fill-rule="evenodd"/><path d="M526.438 170.845l.85-39.717" fill="none"/><path stroke="#000" stroke-width="2" stroke-linejoin="round" stroke-dasharray="8.0,6.0" d="M526.643 161.287l.646-30.159" fill-rule="evenodd"/><path stroke="#000" stroke-width="2" d="M530.922 161.379l-.183 8.558-8.558-.183.183-8.558 8.558.183z"/><path d="M527.28 66.031v-33.354" fill="none"/><path stroke="#000" stroke-width="2" stroke-linejoin="round" stroke-dasharray="8.0,6.0" d="M527.28 66.031v-33.354" fill-rule="evenodd"/><path d="M302.438 313.298l116.409-100.346" fill="none"/><path stroke="#000" stroke-width="2" stroke-linejoin="round" stroke-dasharray="8.0,6.0" d="M302.438 313.298l116.409-100.346" fill-rule="evenodd"/><path d="M444.114 98.583l-141.669 214.709" fill="none"/><path stroke="#000" stroke-width="2" stroke-linejoin="round" stroke-dasharray="8.0,6.0" d="M444.114 98.583l-136.404 206.729" fill-rule="evenodd"/><path stroke="#000" stroke-width="2" d="M311.282 307.669l-4.714 7.145-7.145-4.714 4.714-7.145 7.145 4.714z"/><path fill="#fff" d="M355.697 436.47h166.331v65.102h-166.331z" fill-rule="evenodd"/><path stroke="#000" stroke-width="2" stroke-linejoin="round" stroke-dasharray="8.0,6.0" d="M355.697 436.47h166.331v65.102h-166.331z" fill-rule="evenodd"/><path d="M395.072 460.175l1.797.453q-.563 2.219-2.031 3.391-1.469 1.156-3.594 1.156-2.203 0-3.578-.891-1.375-.906-2.094-2.594-.719-1.703-.719-3.656 0-2.125.797-3.703.813-1.578 2.313-2.391 1.5-.828 3.297-.828 2.047 0 3.438 1.047 1.391 1.031 1.938 2.906l-1.766.422q-.469-1.484-1.375-2.156-.906-.688-2.266-.688-1.563 0-2.625.75-1.047.75-1.484 2.031-.422 1.266-.422 2.609 0 1.734.5 3.031.516 1.281 1.578 1.922 1.078.641 2.313.641 1.516 0 2.563-.859 1.047-.875 1.422-2.594zm2.926-.156q0-2.734 1.531-4.063 1.266-1.094 3.094-1.094 2.031 0 3.313 1.344 1.297 1.328 1.297 3.672 0 1.906-.578 3-.563 1.078-1.656 1.688-1.078.594-2.375.594-2.063 0-3.344-1.328-1.281-1.328-1.281-3.813zm1.719 0q0 1.891.828 2.828.828.938 2.078.938t2.063-.938q.828-.953.828-2.891 0-1.828-.828-2.766t-2.063-.938q-1.25 0-2.078.938-.828.938-.828 2.828zm9.282 4.922v-9.859h1.5v1.406q1.094-1.625 3.141-1.625.891 0 1.641.328.75.313 1.109.844.375.516.531 1.219.094.469.094 1.625v6.063h-1.672v-6q0-1.016-.203-1.516-.188-.516-.688-.813-.5-.297-1.172-.297-1.063 0-1.844.672-.766.672-.766 2.578v5.375h-1.672zm9.704-2.938l1.656-.266q.141 1 .766 1.531.641.516 1.781.516 1.156 0 1.703-.469.563-.469.563-1.094 0-.563-.484-.891-.344-.219-1.703-.563-1.844-.469-2.563-.797-.703-.344-1.078-.938-.359-.609-.359-1.328 0-.656.297-1.219.313-.563.828-.938.391-.281 1.063-.484.672-.203 1.438-.203 1.172 0 2.047.344.875.328 1.281.906.422.563.578 1.516l-1.625.219q-.109-.75-.656-1.172-.531-.438-1.5-.438-1.156 0-1.641.391-.484.375-.484.875 0 .328.203.594.203.266.641.438.25.094 1.469.438 1.766.469 2.469.766.703.297 1.094.875.406.578.406 1.438 0 .828-.484 1.578-.484.734-1.406 1.141-.922.391-2.078.391-1.922 0-2.938-.797-1-.797-1.281-2.359zm16.453 2.938v-1.453q-1.141 1.672-3.125 1.672-.859 0-1.625-.328-.75-.344-1.125-.844-.359-.5-.516-1.234-.094-.5-.094-1.563v-6.109h1.672v5.469q0 1.313.094 1.766.156.656.672 1.031.516.375 1.266.375t1.406-.375q.656-.391.922-1.047.281-.672.281-1.938v-5.281h1.672v9.859h-1.5zm3.923 0v-9.859h1.5v1.391q.453-.719 1.219-1.156.781-.453 1.766-.453 1.094 0 1.797.453.703.453.984 1.281 1.172-1.734 3.047-1.734 1.469 0 2.25.813.797.813.797 2.5v6.766h-1.672v-6.203q0-1-.156-1.438-.156-.453-.594-.719-.422-.266-1-.266-1.031 0-1.719.688-.688.688-.688 2.219v5.719h-1.672v-6.406q0-1.109-.406-1.656-.406-.563-1.344-.563-.703 0-1.313.375-.594.359-.859 1.078-.266.719-.266 2.063v5.109h-1.672zm15.541 3.781v-13.641h1.531v1.281q.531-.75 1.203-1.125.688-.375 1.641-.375 1.266 0 2.234.656.969.641 1.453 1.828.5 1.188.5 2.594 0 1.516-.547 2.734-.547 1.203-1.578 1.844-1.031.641-2.172.641-.844 0-1.516-.344-.656-.359-1.078-.891v4.797h-1.672zm1.516-8.656q0 1.906.766 2.813.781.906 1.875.906 1.109 0 1.891-.938.797-.938.797-2.922 0-1.875-.781-2.813-.766-.938-1.844-.938-1.063 0-1.891 1-.813 1-.813 2.891zm12.516 3.375l.234 1.484q-.703.141-1.266.141-.906 0-1.406-.281-.5-.297-.703-.75-.203-.469-.203-1.984v-5.656h-1.234v-1.313h1.234v-2.438l1.656-1v3.438h1.688v1.313h-1.688v5.75q0 .719.078.922.094.203.297.328.203.125.578.125.266 0 .734-.078zm1.543-10.188v-1.906h1.672v1.906h-1.672zm0 11.688v-9.859h1.672v9.859h-1.672zm3.504-4.922q0-2.734 1.531-4.063 1.266-1.094 3.094-1.094 2.031 0 3.313 1.344 1.297 1.328 1.297 3.672 0 1.906-.578 3-.563 1.078-1.656 1.688-1.078.594-2.375.594-2.063 0-3.344-1.328-1.281-1.328-1.281-3.813zm1.719 0q0 1.891.828 2.828.828.938 2.078.938t2.063-.938q.828-.953.828-2.891 0-1.828-.828-2.766t-2.063-.938q-1.25 0-2.078.938-.828.938-.828 2.828zm9.282 4.922v-9.859h1.5v1.406q1.094-1.625 3.141-1.625.891 0 1.641.328.75.313 1.109.844.375.516.531 1.219.094.469.094 1.625v6.063h-1.672v-6q0-1.016-.203-1.516-.188-.516-.688-.813-.5-.297-1.172-.297-1.063 0-1.844.672-.766.672-.766 2.578v5.375h-1.672zM416.509 486.941v-13.594h9.844v1.594h-8.047v4.172h7.531v1.594h-7.531v4.625h8.359v1.609h-10.156zm14.928 0l-3.75-9.859h1.766l2.125 5.906q.344.953.625 1.984.219-.781.625-1.875l2.188-6.016h1.719l-3.734 9.859h-1.563zm13.344-3.172l1.719.219q-.406 1.5-1.516 2.344-1.094.828-2.813.828-2.156 0-3.422-1.328t-1.266-3.734q0-2.484 1.266-3.859 1.281-1.375 3.328-1.375 1.984 0 3.234 1.344t1.25 3.797l-.016.438h-7.344q.094 1.625.922 2.484.828.859 2.063.859.906 0 1.547-.469.656-.484 1.047-1.547zm-5.484-2.703h5.5q-.109-1.234-.625-1.859-.797-.969-2.078-.969-1.141 0-1.938.781-.781.766-.859 2.047zm9.11 5.875v-9.859h1.5v1.406q1.094-1.625 3.141-1.625.891 0 1.641.328.75.313 1.109.844.375.516.531 1.219.094.469.094 1.625v6.063h-1.672v-6q0-1.016-.203-1.516-.188-.516-.688-.813-.5-.297-1.172-.297-1.063 0-1.844.672-.766.672-.766 2.578v5.375h-1.672zm14.032-1.5l.234 1.484q-.703.141-1.266.141-.906 0-1.406-.281-.5-.297-.703-.75-.203-.469-.203-1.984v-5.656h-1.234v-1.313h1.234v-2.438l1.656-1v3.438h1.688v1.313h-1.688v5.75q0 .719.078.922.094.203.297.328.203.125.578.125.266 0 .734-.078z"/><path d="M438.862 501.572l-120.409 41.071" fill="none"/><path stroke="#000" stroke-width="2" stroke-linejoin="round" stroke-dasharray="8.0,6.0" d="M438.862 501.572l-111.361 37.985" fill-rule="evenodd"/><path stroke="#000" stroke-width="2" d="M328.883 543.608l-8.102 2.763-2.763-8.102 8.102-2.763 2.763 8.102z"/><path d="M526.438 255.066l-87.591 181.417" fill="none"/><path stroke="#000" stroke-width="2" stroke-linejoin="round" stroke-dasharray="8.0,6.0" d="M526.438 255.066l-83.434 172.808" fill-rule="evenodd"/><path stroke="#000" stroke-width="2" d="M446.859 429.735l-3.722 7.709-7.709-3.722 3.722-7.709 7.709 3.722z"/><path d="M302.438 397.519l136.409 38.961" fill="none"/><path stroke="#000" stroke-width="2" stroke-linejoin="round" stroke-dasharray="8.0,6.0" d="M302.438 397.519l136.409 38.961" fill-rule="evenodd"/></g></svg>