<svg viewBox="0.0 0.0 960.0 720.0" fill="#fff" xmlns="http://www.w3.org/2000/svg"><clipPath id="a"><path d="M0 0h960v720h-960v-720z"/></clipPath><g clip-path="url(#a)"><path d="M0 0h960v720h-960z" fill="none"/><path fill="#fff" d="M408.207 137.669h215.181v84.22h-215.181z" fill-rule="evenodd"/><path stroke="#000" stroke-width="2" stroke-linejoin="round" d="M408.207 137.669h215.181v84.22h-215.181z" fill-rule="evenodd"/><path d="M465.327 164.82v-15.156h-5.656v-2.031h13.625v2.031h-5.688v15.156h-2.281zm15.207 0l-6.656-17.188h2.453l4.469 12.484q.547 1.5.906 2.813.391-1.406.922-2.813l4.641-12.484h2.328l-6.734 17.188h-2.328zm15.91.297l4.984-17.766h1.688l-4.969 17.766h-1.703zm15.227-.297v-17.188h7.609q2.297 0 3.484.469 1.203.469 1.922 1.641.719 1.172.719 2.578 0 1.828-1.188 3.094-1.188 1.25-3.656 1.594.906.422 1.375.844 1 .922 1.891 2.297l2.984 4.672h-2.859l-2.281-3.578q-.984-1.547-1.641-2.359-.641-.828-1.156-1.156-.5-.328-1.031-.453-.391-.078-1.266-.078h-2.641v7.625h-2.266zm2.266-9.594h4.891q1.563 0 2.438-.328.875-.328 1.328-1.031.469-.703.469-1.547 0-1.219-.891-2-.875-.781-2.797-.781h-5.438v5.688zm22.879 8.063q-1.172.984-2.266 1.406-1.078.406-2.313.406-2.047 0-3.156-1-1.094-1-1.094-2.563 0-.922.406-1.672.422-.75 1.094-1.203.672-.469 1.516-.703.625-.156 1.875-.313 2.563-.313 3.766-.734l.016-.547q0-1.281-.609-1.813-.797-.719-2.391-.719-1.5 0-2.203.531-.703.516-1.047 1.844l-2.063-.281q.281-1.328.922-2.141t1.859-1.25q1.219-.453 2.828-.453 1.594 0 2.594.375 1 .375 1.469.953.469.563.656 1.438.094.531.094 1.938v2.813q0 2.938.141 3.719.141.781.531 1.5h-2.203q-.328-.656-.422-1.531zm-.172-4.719q-1.156.469-3.453.797-1.297.188-1.844.422-.531.234-.828.688-.281.453-.281 1 0 .844.625 1.406.641.563 1.875.563 1.219 0 2.172-.531.953-.531 1.391-1.453.344-.719.344-2.109v-.781zm13.473 6.25v-1.578q-1.188 1.859-3.484 1.859-1.484 0-2.734-.813-1.25-.828-1.938-2.297-.672-1.469-.672-3.391 0-1.859.609-3.375.625-1.516 1.859-2.328 1.25-.813 2.781-.813 1.125 0 2 .484.891.469 1.438 1.234v-6.172h2.094v17.188h-1.953zm-6.672-6.219q0 2.391 1 3.578 1.016 1.188 2.391 1.188 1.391 0 2.344-1.125.969-1.141.969-3.453 0-2.563-.984-3.75-.984-1.203-2.422-1.203-1.406 0-2.359 1.156-.938 1.141-.938 3.609zm11.957-8.531v-2.438h2.109v2.438h-2.109zm0 14.75v-12.453h2.109v12.453h-2.109zm4.535-6.219q0-3.469 1.922-5.125 1.609-1.391 3.922-1.391 2.563 0 4.188 1.688 1.625 1.688 1.625 4.641 0 2.406-.719 3.781t-2.094 2.141q-1.375.766-3 .766-2.625 0-4.234-1.672-1.609-1.688-1.609-4.828zm2.172 0q0 2.391 1.031 3.578 1.047 1.188 2.641 1.188 1.563 0 2.609-1.188 1.047-1.203 1.047-3.656 0-2.313-1.063-3.5-1.047-1.188-2.594-1.188-1.594 0-2.641 1.188-1.031 1.188-1.031 3.578zM454.973 193.82v-17.188h6.469q1.719 0 2.625.172 1.266.203 2.109.797.859.594 1.375 1.672.531 1.063.531 2.328 0 2.203-1.406 3.719-1.391 1.516-5.031 1.516h-4.406v6.984h-2.266zm2.266-9.016h4.438q2.203 0 3.125-.813.938-.828.938-2.313 0-1.078-.547-1.844t-1.438-1.016q-.578-.156-2.125-.156h-4.391v6.141zm13.445 9.016v-12.453h1.891v1.891q.734-1.328 1.344-1.75.625-.422 1.359-.422 1.063 0 2.172.688l-.734 1.953q-.766-.453-1.547-.453-.688 0-1.25.422-.547.406-.781 1.141-.344 1.125-.344 2.469v6.516h-2.109zm7.227-6.219q0-3.469 1.922-5.125 1.609-1.391 3.922-1.391 2.563 0 4.188 1.688 1.625 1.688 1.625 4.641 0 2.406-.719 3.781t-2.094 2.141q-1.375.766-3 .766-2.625 0-4.234-1.672-1.609-1.688-1.609-4.828zm2.172 0q0 2.391 1.031 3.578 1.047 1.188 2.641 1.188 1.563 0 2.609-1.188 1.047-1.203 1.047-3.656 0-2.313-1.063-3.5-1.047-1.188-2.594-1.188-1.594 0-2.641 1.188-1.031 1.188-1.031 3.578zm11.582 7.25l2.047.313q.125.938.719 1.375.781.594 2.141.594 1.469 0 2.266-.594.797-.578 1.078-1.641.156-.641.141-2.703-1.375 1.625-3.438 1.625-2.563 0-3.969-1.844-1.406-1.859-1.406-4.453 0-1.781.641-3.281.641-1.516 1.859-2.328 1.234-.828 2.891-.828 2.203 0 3.625 1.781v-1.5h1.953v10.766q0 2.906-.594 4.109-.594 1.219-1.875 1.922-1.281.703-3.156.703-2.234 0-3.609-1-1.359-1-1.313-3.016zm1.734-7.484q0 2.453.969 3.578.984 1.125 2.453 1.125 1.453 0 2.438-1.109.984-1.125.984-3.516 0-2.281-1.016-3.438-1.016-1.172-2.453-1.172-1.406 0-2.391 1.141-.984 1.141-.984 3.391zm11.973 6.453v-12.453h1.891v1.891q.734-1.328 1.344-1.75.625-.422 1.359-.422 1.063 0 2.172.688l-.734 1.953q-.766-.453-1.547-.453-.688 0-1.25.422-.547.406-.781 1.141-.344 1.125-.344 2.469v6.516h-2.109zm16.133-1.531q-1.172.984-2.266 1.406-1.078.406-2.313.406-2.047 0-3.156-1-1.094-1-1.094-2.563 0-.922.406-1.672.422-.75 1.094-1.203.672-.469 1.516-.703.625-.156 1.875-.313 2.563-.313 3.766-.734l.016-.547q0-1.281-.609-1.813-.797-.719-2.391-.719-1.5 0-2.203.531-.703.516-1.047 1.844l-2.063-.281q.281-1.328.922-2.141t1.859-1.25q1.219-.453 2.828-.453 1.594 0 2.594.375 1 .375 1.469.953.469.563.656 1.438.094.531.094 1.938v2.813q0 2.938.141 3.719.141.781.531 1.5h-2.203q-.328-.656-.422-1.531zm-.172-4.719q-1.156.469-3.453.797-1.297.188-1.844.422-.531.234-.828.688-.281.453-.281 1 0 .844.625 1.406.641.563 1.875.563 1.219 0 2.172-.531.953-.531 1.391-1.453.344-.719.344-2.109v-.781zm5.395 6.25v-12.453h1.891v1.75q.594-.906 1.563-1.469.969-.563 2.219-.563 1.375 0 2.25.578.891.578 1.266 1.609 1.469-2.188 3.844-2.188 1.844 0 2.844 1.031 1 1.031 1 3.156v8.547h-2.109v-7.844q0-1.266-.203-1.813-.203-.563-.75-.906-.531-.344-1.25-.344-1.313 0-2.188.875-.859.875-.859 2.797v7.234h-2.109v-8.094q0-1.406-.516-2.109-.516-.703-1.688-.703-.891 0-1.656.469-.75.469-1.094 1.375-.344.906-.344 2.609v6.453h-2.109zm19.992 0v-12.453h1.891v1.75q.594-.906 1.563-1.469.969-.563 2.219-.563 1.375 0 2.25.578.891.578 1.266 1.609 1.469-2.188 3.844-2.188 1.844 0 2.844 1.031 1 1.031 1 3.156v8.547h-2.109v-7.844q0-1.266-.203-1.813-.203-.563-.75-.906-.531-.344-1.25-.344-1.313 0-2.188.875-.859.875-.859 2.797v7.234h-2.109v-8.094q0-1.406-.516-2.109-.516-.703-1.688-.703-.891 0-1.656.469-.75.469-1.094 1.375-.344.906-.344 2.609v6.453h-2.109zm28.523-4.016l2.172.281q-.516 1.906-1.906 2.969-1.391 1.047-3.563 1.047-2.734 0-4.344-1.672-1.594-1.688-1.594-4.734 0-3.141 1.609-4.875 1.625-1.734 4.203-1.734 2.5 0 4.078 1.703 1.594 1.703 1.594 4.781l-.016.563h-9.281q.109 2.047 1.156 3.141 1.047 1.094 2.609 1.094 1.156 0 1.969-.609.828-.609 1.313-1.953zm-6.938-3.406h6.953q-.141-1.563-.797-2.359-1-1.219-2.609-1.219-1.453 0-2.453.984-.984.969-1.094 2.594zM491.214 217.016q-1.094-1.375-1.859-3.219-.75-1.844-.75-3.828 0-1.734.563-3.344.656-1.844 2.047-3.688h.938q-.891 1.531-1.172 2.172-.453 1.016-.703 2.109-.313 1.375-.313 2.766 0 3.516 2.188 7.031h-.938zm2.365-12.375v-1.516h1.313v1.516h-1.313zm0 9.219v-7.781h1.313v7.781h-1.313zm8.287 0v-.984q-.734 1.156-2.172 1.156-.922 0-1.703-.5-.781-.516-1.219-1.438-.422-.922-.422-2.109 0-1.172.391-2.109.391-.953 1.156-1.453.781-.516 1.734-.516.703 0 1.25.297.563.297.906.766v-3.844h1.313v10.734h-1.234zm-4.156-3.875q0 1.484.625 2.234.625.734 1.484.734t1.469-.703q.609-.719.609-2.156 0-1.609-.625-2.344-.609-.75-1.516-.75-.875 0-1.469.719-.578.719-.578 2.266zm12.589 1.375l1.359.156q-.313 1.203-1.188 1.859-.875.656-2.234.656-1.703 0-2.703-1.047-1-1.047-1-2.953 0-1.953 1.016-3.031 1.016-1.094 2.625-1.094 1.563 0 2.547 1.063.984 1.063.984 2.984v.359h-5.813q.078 1.281.719 1.969.656.672 1.641.672.719 0 1.234-.375.516-.391.813-1.219zm-4.328-2.141h4.344q-.094-.984-.5-1.469-.625-.766-1.625-.766-.922 0-1.547.609-.609.609-.672 1.625zm7.151 4.641v-7.781h1.188v1.109q.859-1.281 2.484-1.281.703 0 1.281.25.594.25.891.672.297.406.406.969.078.359.078 1.281v4.781h-1.328v-4.734q0-.797-.156-1.188-.141-.406-.531-.641-.391-.25-.922-.25-.844 0-1.453.531-.609.531-.609 2.031v4.25h-1.328zm11.042-1.172l.188 1.156q-.563.125-1 .125-.719 0-1.125-.234-.391-.234-.547-.594-.156-.375-.156-1.563v-4.469h-.969v-1.031h.969v-1.922l1.313-.797v2.719h1.328v1.031h-1.328v4.547q0 .563.063.734.078.156.234.25.156.094.438.094.234 0 .594-.047zm1.197-8.047v-1.516h1.313v1.516h-1.313zm0 9.219v-7.781h1.313v7.781h-1.313zm6.131-1.172l.188 1.156q-.563.125-1 .125-.719 0-1.125-.234-.391-.234-.547-.594-.156-.375-.156-1.563v-4.469h-.969v-1.031h.969v-1.922l1.313-.797v2.719h1.328v1.031h-1.328v4.547q0 .563.063.734.078.156.234.25.156.094.438.094.234 0 .594-.047zm1.134 4.172l-.156-1.234q.438.109.75.109.453 0 .703-.156.266-.141.438-.406.125-.188.406-.969l.109-.328-2.953-7.797h1.422l1.625 4.5q.313.859.563 1.813.234-.906.547-1.781l1.656-4.531h1.328l-2.969 7.906q-.469 1.281-.734 1.766-.359.656-.813.953-.453.313-1.078.313-.375 0-.844-.156zm8.25.156h-.953q2.188-3.516 2.188-7.031 0-1.391-.313-2.734-.25-1.109-.688-2.109-.297-.656-1.188-2.203h.953q1.375 1.844 2.031 3.688.563 1.609.563 3.344 0 1.984-.766 3.828-.75 1.844-1.828 3.219z"/><path fill="#fff" d="M440.175 259.313h151.528v72.22h-151.528z" fill-rule="evenodd"/><path stroke="#000" stroke-width="2" stroke-linejoin="round" stroke-dasharray="8.0,6.0" d="M440.175 259.313h151.528v72.22h-151.528z" fill-rule="evenodd"/><path d="M485.175 286.969l1.688-.141q.125 1.016.563 1.672.438.656 1.359 1.063.938.406 2.094.406 1.031 0 1.813-.313.797-.313 1.188-.844.391-.531.391-1.156 0-.641-.375-1.109-.375-.484-1.234-.813-.547-.219-2.422-.656-1.875-.453-2.625-.859-.969-.516-1.453-1.266-.469-.75-.469-1.688 0-1.031.578-1.922.594-.906 1.703-1.359 1.125-.469 2.5-.469 1.516 0 2.672.484 1.156.484 1.766 1.438.625.938.672 2.141l-1.719.125q-.141-1.281-.953-1.938-.797-.672-2.359-.672-1.625 0-2.375.609-.75.594-.75 1.438 0 .734.531 1.203.516.469 2.703.969 2.203.5 3.016.875 1.188.547 1.75 1.391.578.828.578 1.922 0 1.094-.625 2.063-.625.953-1.797 1.484-1.156.531-2.609.531-1.844 0-3.094-.531-1.25-.547-1.969-1.625-.703-1.078-.734-2.453zm19.584 1.203l1.719.219q-.406 1.5-1.516 2.344-1.094.828-2.813.828-2.156 0-3.422-1.328t-1.266-3.734q0-2.484 1.266-3.859 1.281-1.375 3.328-1.375 1.984 0 3.234 1.344t1.25 3.797l-.016.438h-7.344q.094 1.625.922 2.484.828.859 2.063.859.906 0 1.547-.469.656-.484 1.047-1.547zm-5.484-2.703h5.5q-.109-1.234-.625-1.859-.797-.969-2.078-.969-1.141 0-1.938.781-.781.766-.859 2.047zm9.094 5.875v-9.859h1.5v1.5q.578-1.047 1.063-1.375.484-.344 1.078-.344.844 0 1.719.547l-.578 1.547q-.609-.359-1.234-.359-.547 0-.984.328-.422.328-.609.906-.281.891-.281 1.953v5.156h-1.672zm6.244-11.688v-1.906h1.672v1.906h-1.672zm0 11.688v-9.859h1.672v9.859h-1.672zm10.879-3.172l1.719.219q-.406 1.5-1.516 2.344-1.094.828-2.813.828-2.156 0-3.422-1.328t-1.266-3.734q0-2.484 1.266-3.859 1.281-1.375 3.328-1.375 1.984 0 3.234 1.344t1.25 3.797l-.016.438h-7.344q.094 1.625.922 2.484.828.859 2.063.859.906 0 1.547-.469.656-.484 1.047-1.547zm-5.484-2.703h5.5q-.109-1.234-.625-1.859-.797-.969-2.078-.969-1.141 0-1.938.781-.781.766-.859 2.047zm8.438 2.938l1.656-.266q.141 1 .766 1.531.641.516 1.781.516 1.156 0 1.703-.469.563-.469.563-1.094 0-.563-.484-.891-.344-.219-1.703-.563-1.844-.469-2.563-.797-.703-.344-1.078-.938-.359-.609-.359-1.328 0-.656.297-1.219.313-.563.828-.938.391-.281 1.063-.484.672-.203 1.438-.203 1.172 0 2.047.344.875.328 1.281.906.422.563.578 1.516l-1.625.219q-.109-.75-.656-1.172-.531-.438-1.5-.438-1.156 0-1.641.391-.484.375-.484.875 0 .328.203.594.203.266.641.438.25.094 1.469.438 1.766.469 2.469.766.703.297 1.094.875.406.578.406 1.438 0 .828-.484 1.578-.484.734-1.406 1.141-.922.391-2.078.391-1.922 0-2.938-.797-1-.797-1.281-2.359zm13.933 3.172l3.938-14.063h1.344l-3.938 14.063h-1.344zM497.842 308.016v-1.609h5.766v5.047q-1.328 1.063-2.75 1.594-1.406.531-2.891.531-2 0-3.641-.859-1.625-.859-2.469-2.484-.828-1.625-.828-3.625 0-1.984.828-3.703.828-1.719 2.391-2.547 1.563-.844 3.594-.844 1.469 0 2.656.484 1.203.469 1.875 1.328.672.844 1.031 2.219l-1.625.438q-.313-1.031-.766-1.625-.453-.594-1.297-.953-.844-.359-1.875-.359-1.234 0-2.141.375-.891.375-1.453 1-.547.609-.844 1.344-.531 1.25-.531 2.734 0 1.813.625 3.047.641 1.219 1.828 1.813 1.203.594 2.547.594 1.172 0 2.281-.453 1.109-.453 1.688-.953v-2.531h-4zm7.918 5.328v-9.859h1.5v1.5q.578-1.047 1.063-1.375.484-.344 1.078-.344.844 0 1.719.547l-.578 1.547q-.609-.359-1.234-.359-.547 0-.984.328-.422.328-.609.906-.281.891-.281 1.953v5.156h-1.672zm5.603-4.922q0-2.734 1.531-4.063 1.266-1.094 3.094-1.094 2.031 0 3.313 1.344 1.297 1.328 1.297 3.672 0 1.906-.578 3-.563 1.078-1.656 1.688-1.078.594-2.375.594-2.063 0-3.344-1.328-1.281-1.328-1.281-3.813zm1.719 0q0 1.891.828 2.828.828.938 2.078.938t2.063-.938q.828-.953.828-2.891 0-1.828-.828-2.766t-2.063-.938q-1.25 0-2.078.938-.828.938-.828 2.828zm15.735 4.922v-1.453q-1.141 1.672-3.125 1.672-.859 0-1.625-.328-.75-.344-1.125-.844-.359-.5-.516-1.234-.094-.5-.094-1.563v-6.109h1.672v5.469q0 1.313.094 1.766.156.656.672 1.031.516.375 1.266.375t1.406-.375q.656-.391.922-1.047.281-.672.281-1.938v-5.281h1.672v9.859h-1.5zm3.923 3.781v-13.641h1.531v1.281q.531-.75 1.203-1.125.688-.375 1.641-.375 1.266 0 2.234.656.969.641 1.453 1.828.5 1.188.5 2.594 0 1.516-.547 2.734-.547 1.203-1.578 1.844-1.031.641-2.172.641-.844 0-1.516-.344-.656-.359-1.078-.891v4.797h-1.672zm1.516-8.656q0 1.906.766 2.813.781.906 1.875.906 1.109 0 1.891-.938.797-.938.797-2.922 0-1.875-.781-2.813-.766-.938-1.844-.938-1.063 0-1.891 1-.813 1-.813 2.891z"/><path fill="#fff" d="M408.207 490.11h215.181v154.236h-215.181z" fill-rule="evenodd"/><path stroke="#000" stroke-width="2" stroke-linejoin="round" d="M408.207 490.11h215.181v154.236h-215.181z" fill-rule="evenodd"/><path d="M450.342 524.971v2.453h-2.266v-1.938q0-1.578.375-2.281.5-.938 1.563-1.406l.516.813q-.641.266-.953.813-.297.531-.328 1.547h1.094zm3.641 0v2.453h-2.266v-1.938q0-1.578.375-2.281.484-.938 1.563-1.406l.516.813q-.656.266-.969.813-.297.531-.328 1.547h1.109zm2.883 14.297v-17.188h6.438q1.969 0 3.156.531 1.188.516 1.859 1.609.688 1.078.688 2.266 0 1.094-.609 2.078-.594.969-1.797 1.563 1.563.453 2.391 1.563.844 1.094.844 2.594 0 1.203-.516 2.25-.5 1.031-1.25 1.594-.75.563-1.891.859-1.125.281-2.766.281h-6.547zm2.266-9.969h3.719q1.516 0 2.172-.188.859-.266 1.297-.859.438-.594.438-1.5 0-.859-.406-1.5-.406-.656-1.172-.891-.766-.25-2.609-.25h-3.438v5.188zm0 7.938h4.281q1.094 0 1.547-.078.781-.141 1.313-.469.531-.328.859-.953.344-.625.344-1.453 0-.953-.5-1.656-.484-.719-1.359-1-.875-.297-2.516-.297h-3.969v5.906zm13.539 2.031v-12.453h1.891v1.891q.734-1.328 1.344-1.75.625-.422 1.359-.422 1.063 0 2.172.688l-.734 1.953q-.766-.453-1.547-.453-.688 0-1.25.422-.547.406-.781 1.141-.344 1.125-.344 2.469v6.516h-2.109zm7.227-6.219q0-3.469 1.922-5.125 1.609-1.391 3.922-1.391 2.563 0 4.188 1.688 1.625 1.688 1.625 4.641 0 2.406-.719 3.781t-2.094 2.141q-1.375.766-3 .766-2.625 0-4.234-1.672-1.609-1.688-1.609-4.828zm2.172 0q0 2.391 1.031 3.578 1.047 1.188 2.641 1.188 1.563 0 2.609-1.188 1.047-1.203 1.047-3.656 0-2.313-1.063-3.5-1.047-1.188-2.594-1.188-1.594 0-2.641 1.188-1.031 1.188-1.031 3.578zm20.082 4.688q-1.172.984-2.266 1.406-1.078.406-2.313.406-2.047 0-3.156-1-1.094-1-1.094-2.563 0-.922.406-1.672.422-.75 1.094-1.203.672-.469 1.516-.703.625-.156 1.875-.313 2.563-.313 3.766-.734l.016-.547q0-1.281-.609-1.813-.797-.719-2.391-.719-1.5 0-2.203.531-.703.516-1.047 1.844l-2.063-.281q.281-1.328.922-2.141t1.859-1.25q1.219-.453 2.828-.453 1.594 0 2.594.375 1 .375 1.469.953.469.563.656 1.438.094.531.094 1.938v2.813q0 2.938.141 3.719.141.781.531 1.5h-2.203q-.328-.656-.422-1.531zm-.172-4.719q-1.156.469-3.453.797-1.297.188-1.844.422-.531.234-.828.688-.281.453-.281 1 0 .844.625 1.406.641.563 1.875.563 1.219 0 2.172-.531.953-.531 1.391-1.453.344-.719.344-2.109v-.781zm13.473 6.25v-1.578q-1.188 1.859-3.484 1.859-1.484 0-2.734-.813-1.25-.828-1.938-2.297-.672-1.469-.672-3.391 0-1.859.609-3.375.625-1.516 1.859-2.328 1.25-.813 2.781-.813 1.125 0 2 .484.891.469 1.438 1.234v-6.172h2.094v17.188h-1.953zm-6.672-6.219q0 2.391 1 3.578 1.016 1.188 2.391 1.188 1.391 0 2.344-1.125.969-1.141.969-3.453 0-2.563-.984-3.75-.984-1.203-2.422-1.203-1.406 0-2.359 1.156-.938 1.141-.938 3.609zm20.066 1.656l2.078.266q-.344 2.156-1.75 3.375-1.391 1.203-3.438 1.203-2.547 0-4.109-1.672-1.547-1.672-1.547-4.781 0-2.016.672-3.531.672-1.516 2.031-2.266 1.359-.766 2.969-.766 2.031 0 3.313 1.031 1.297 1.031 1.656 2.906l-2.047.328q-.297-1.266-1.047-1.891-.734-.641-1.797-.641-1.594 0-2.594 1.156-.984 1.141-.984 3.609 0 2.5.953 3.641.969 1.141 2.516 1.141 1.234 0 2.063-.766.844-.766 1.063-2.344zm12 3.031q-1.172.984-2.266 1.406-1.078.406-2.313.406-2.047 0-3.156-1-1.094-1-1.094-2.563 0-.922.406-1.672.422-.75 1.094-1.203.672-.469 1.516-.703.625-.156 1.875-.313 2.563-.313 3.766-.734l.016-.547q0-1.281-.609-1.813-.797-.719-2.391-.719-1.5 0-2.203.531-.703.516-1.047 1.844l-2.063-.281q.281-1.328.922-2.141t1.859-1.25q1.219-.453 2.828-.453 1.594 0 2.594.375 1 .375 1.469.953.469.563.656 1.438.094.531.094 1.938v2.813q0 2.938.141 3.719.141.781.531 1.5h-2.203q-.328-.656-.422-1.531zm-.172-4.719q-1.156.469-3.453.797-1.297.188-1.844.422-.531.234-.828.688-.281.453-.281 1 0 .844.625 1.406.641.563 1.875.563 1.219 0 2.172-.531.953-.531 1.391-1.453.344-.719.344-2.109v-.781zm4.551 2.531l2.094-.328q.172 1.25.969 1.922.813.672 2.25.672 1.453 0 2.156-.594.703-.594.703-1.391 0-.719-.625-1.125-.422-.281-2.156-.719-2.313-.578-3.219-1-.891-.438-1.359-1.188-.453-.766-.453-1.672 0-.828.375-1.531.391-.719 1.047-1.188.484-.359 1.328-.609.859-.266 1.828-.266 1.469 0 2.578.422 1.109.422 1.625 1.156.531.719.734 1.922l-2.063.281q-.141-.969-.813-1.5-.672-.547-1.906-.547-1.453 0-2.078.484-.625.484-.625 1.125 0 .406.266.734.25.344.813.563.313.125 1.859.547 2.234.594 3.109.984.891.375 1.391 1.109.516.719.516 1.797 0 1.047-.625 1.984-.609.938-1.766 1.453-1.156.5-2.625.5-2.422 0-3.703-1-1.266-1.016-1.625-3zm17.453 1.828l.313 1.859q-.891.203-1.594.203-1.156 0-1.797-.359-.625-.375-.891-.969-.25-.594-.25-2.484v-7.172h-1.547v-1.641h1.547v-3.078l2.094-1.266v4.344h2.125v1.641h-2.125v7.281q0 .906.109 1.172.125.25.375.406.25.141.719.141.344 0 .922-.078zm1.496-13.016v-2.453h2.266v1.938q0 1.563-.359 2.266-.5.938-1.578 1.422l-.516-.828q.641-.266.953-.813.313-.563.344-1.531h-1.109zm3.641 0v-2.453h2.266v1.938q0 1.563-.375 2.266-.5.938-1.563 1.422l-.516-.828q.625-.266.938-.813.313-.563.344-1.531h-1.094zm10.004 15.203l4.984-17.766h1.688l-4.969 17.766h-1.703zM473.661 568.268v-17.188h7.609q2.297 0 3.484.469 1.203.469 1.922 1.641.719 1.172.719 2.578 0 1.828-1.188 3.094-1.188 1.25-3.656 1.594.906.422 1.375.844 1 .922 1.891 2.297l2.984 4.672h-2.859l-2.281-3.578q-.984-1.547-1.641-2.359-.641-.828-1.156-1.156-.5-.328-1.031-.453-.391-.078-1.266-.078h-2.641v7.625h-2.266zm2.266-9.594h4.891q1.563 0 2.438-.328.875-.328 1.328-1.031.469-.703.469-1.547 0-1.219-.891-2-.875-.781-2.797-.781h-5.438v5.688zm23.285 5.578l2.172.281q-.516 1.906-1.906 2.969-1.391 1.047-3.563 1.047-2.734 0-4.344-1.672-1.594-1.688-1.594-4.734 0-3.141 1.609-4.875 1.625-1.734 4.203-1.734 2.5 0 4.078 1.703 1.594 1.703 1.594 4.781l-.016.563h-9.281q.109 2.047 1.156 3.141 1.047 1.094 2.609 1.094 1.156 0 1.969-.609.828-.609 1.313-1.953zm-6.938-3.406h6.953q-.141-1.563-.797-2.359-1-1.219-2.609-1.219-1.453 0-2.453.984-.984.969-1.094 2.594zm11.707 7.422v-17.188h2.109v17.188h-2.109zm13.91-4.016l2.172.281q-.516 1.906-1.906 2.969-1.391 1.047-3.563 1.047-2.734 0-4.344-1.672-1.594-1.688-1.594-4.734 0-3.141 1.609-4.875 1.625-1.734 4.203-1.734 2.5 0 4.078 1.703 1.594 1.703 1.594 4.781l-.016.563h-9.281q.109 2.047 1.156 3.141 1.047 1.094 2.609 1.094 1.156 0 1.969-.609.828-.609 1.313-1.953zm-6.937-3.406h6.953q-.141-1.563-.797-2.359-1-1.219-2.609-1.219-1.453 0-2.453.984-.984.969-1.094 2.594zm19.879 5.891q-1.172.984-2.266 1.406-1.078.406-2.313.406-2.047 0-3.156-1-1.094-1-1.094-2.563 0-.922.406-1.672.422-.75 1.094-1.203.672-.469 1.516-.703.625-.156 1.875-.313 2.563-.313 3.766-.734l.016-.547q0-1.281-.609-1.813-.797-.719-2.391-.719-1.5 0-2.203.531-.703.516-1.047 1.844l-2.063-.281q.281-1.328.922-2.141t1.859-1.25q1.219-.453 2.828-.453 1.594 0 2.594.375 1 .375 1.469.953.469.563.656 1.438.094.531.094 1.938v2.813q0 2.938.141 3.719.141.781.531 1.5h-2.203q-.328-.656-.422-1.531zm-.172-4.719q-1.156.469-3.453.797-1.297.188-1.844.422-.531.234-.828.688-.281.453-.281 1 0 .844.625 1.406.641.563 1.875.563 1.219 0 2.172-.531.953-.531 1.391-1.453.344-.719.344-2.109v-.781zm4.551 2.531l2.094-.328q.172 1.25.969 1.922.813.672 2.25.672 1.453 0 2.156-.594.703-.594.703-1.391 0-.719-.625-1.125-.422-.281-2.156-.719-2.313-.578-3.219-1-.891-.438-1.359-1.188-.453-.766-.453-1.672 0-.828.375-1.531.391-.719 1.047-1.188.484-.359 1.328-.609.859-.266 1.828-.266 1.469 0 2.578.422 1.109.422 1.625 1.156.531.719.734 1.922l-2.063.281q-.141-.969-.813-1.5-.672-.547-1.906-.547-1.453 0-2.078.484-.625.484-.625 1.125 0 .406.266.734.25.344.813.563.313.125 1.859.547 2.234.594 3.109.984.891.375 1.391 1.109.516.719.516 1.797 0 1.047-.625 1.984-.609.938-1.766 1.453-1.156.5-2.625.5-2.422 0-3.703-1-1.266-1.016-1.625-3zm21.375-.297l2.172.281q-.516 1.906-1.906 2.969-1.391 1.047-3.563 1.047-2.734 0-4.344-1.672-1.594-1.688-1.594-4.734 0-3.141 1.609-4.875 1.625-1.734 4.203-1.734 2.5 0 4.078 1.703 1.594 1.703 1.594 4.781l-.016.563h-9.281q.109 2.047 1.156 3.141 1.047 1.094 2.609 1.094 1.156 0 1.969-.609.828-.609 1.313-1.953zm-6.938-3.406h6.953q-.141-1.563-.797-2.359-1-1.219-2.609-1.219-1.453 0-2.453.984-.984.969-1.094 2.594zM472.521 590.633q-.594.703-1.344 1.125-.75.422-1.5.422-.828 0-1.609-.484t-1.266-1.484q-.484-1-.484-2.203 0-1.469.75-2.953.766-1.484 1.891-2.219 1.125-.75 2.172-.75.813 0 1.547.422t1.266 1.297l.313-1.438h1.656l-1.328 6.219q-.281 1.297-.281 1.438 0 .25.188.438.188.172.453.172.5 0 1.297-.563 1.063-.75 1.672-1.984.625-1.25.625-2.578 0-1.547-.797-2.891t-2.375-2.156q-1.563-.813-3.469-.813-2.172 0-3.969 1.016-1.797 1.016-2.781 2.922-.984 1.891-.984 4.063 0 2.266.984 3.922.984 1.641 2.859 2.422 1.875.781 4.141.781 2.438 0 4.078-.813 1.641-.813 2.453-1.984h1.672q-.469.969-1.625 1.984-1.141 1.016-2.734 1.594-1.578.594-3.813.594-2.063 0-3.813-.531-1.734-.531-2.953-1.594-1.219-1.063-1.844-2.438-.781-1.75-.781-3.781 0-2.266.922-4.328 1.141-2.5 3.219-3.828 2.078-1.344 5.047-1.344 2.313 0 4.141.938 1.828.938 2.891 2.797.891 1.609.891 3.5 0 2.688-1.891 4.766-1.688 1.875-3.688 1.875-.641 0-1.031-.188-.391-.203-.578-.563-.125-.234-.188-.797zm-4.484-2.516q0 1.281.594 1.984.609.703 1.391.703.516 0 1.094-.313.578-.313 1.094-.922.531-.609.859-1.547.344-.953.344-1.891 0-1.266-.625-1.953-.625-.703-1.531-.703-.594 0-1.125.297-.516.297-1.016.969-.484.672-.781 1.625-.297.953-.297 1.75zm17.579 4.031v-12h-4.469v-1.594h10.766v1.594h-4.5v12h-1.797zm7.74-11.688v-1.906h1.672v1.906h-1.672zm0 11.688v-9.859h1.672v9.859h-1.672zm4.129 0v-9.859h1.5v1.391q.453-.719 1.219-1.156.781-.453 1.766-.453 1.094 0 1.797.453.703.453.984 1.281 1.172-1.734 3.047-1.734 1.469 0 2.25.813.797.813.797 2.5v6.766h-1.672v-6.203q0-1-.156-1.438-.156-.453-.594-.719-.422-.266-1-.266-1.031 0-1.719.688-.688.688-.688 2.219v5.719h-1.672v-6.406q0-1.109-.406-1.656-.406-.563-1.344-.563-.703 0-1.313.375-.594.359-.859 1.078-.266.719-.266 2.063v5.109h-1.672zm22.291-3.172l1.719.219q-.406 1.5-1.516 2.344-1.094.828-2.813.828-2.156 0-3.422-1.328t-1.266-3.734q0-2.484 1.266-3.859 1.281-1.375 3.328-1.375 1.984 0 3.234 1.344t1.25 3.797l-.016.438h-7.344q.094 1.625.922 2.484.828.859 2.063.859.906 0 1.547-.469.656-.484 1.047-1.547zm-5.484-2.703h5.5q-.109-1.234-.625-1.859-.797-.969-2.078-.969-1.141 0-1.938.781-.781.766-.859 2.047zm9.516 5.875v-8.547h-1.484v-1.313h1.484v-1.047q0-.984.172-1.469.234-.656.844-1.047.609-.406 1.703-.406.703 0 1.563.156l-.25 1.469q-.516-.094-.984-.094-.766 0-1.078.328-.313.313-.313 1.203v.906h1.922v1.313h-1.922v8.547h-1.656zm4.761 0v-9.859h1.5v1.5q.578-1.047 1.063-1.375.484-.344 1.078-.344.844 0 1.719.547l-.578 1.547q-.609-.359-1.234-.359-.547 0-.984.328-.422.328-.609.906-.281.891-.281 1.953v5.156h-1.672zm12.666-1.219q-.938.797-1.797 1.125-.859.313-1.844.313-1.609 0-2.484-.781-.875-.797-.875-2.031 0-.734.328-1.328.328-.594.859-.953.531-.359 1.203-.547.5-.141 1.484-.25 2.031-.25 2.984-.578v-.438q0-1.016-.469-1.438-.641-.563-1.906-.563-1.172 0-1.734.406-.563.406-.828 1.469l-1.641-.234q.234-1.047.734-1.688.516-.641 1.469-.984.969-.359 2.25-.359 1.266 0 2.047.297.781.297 1.156.75.375.453.516 1.141.094.422.094 1.531v2.234q0 2.328.094 2.953.109.609.438 1.172h-1.75q-.266-.516-.328-1.219zm-.141-3.719q-.906.359-2.734.625-1.031.141-1.453.328-.422.188-.656.547-.234.359-.234.797 0 .672.5 1.125.516.438 1.484.438.969 0 1.719-.422.75-.438 1.109-1.156.266-.578.266-1.672v-.609zm4.079 4.938v-9.859h1.5v1.391q.453-.719 1.219-1.156.781-.453 1.766-.453 1.094 0 1.797.453.703.453.984 1.281 1.172-1.734 3.047-1.734 1.469 0 2.25.813.797.813.797 2.5v6.766h-1.672v-6.203q0-1-.156-1.438-.156-.453-.594-.719-.422-.266-1-.266-1.031 0-1.719.688-.688.688-.688 2.219v5.719h-1.672v-6.406q0-1.109-.406-1.656-.406-.563-1.344-.563-.703 0-1.313.375-.594.359-.859 1.078-.266.719-.266 2.063v5.109h-1.672zm22.291-3.172l1.719.219q-.406 1.5-1.516 2.344-1.094.828-2.813.828-2.156 0-3.422-1.328t-1.266-3.734q0-2.484 1.266-3.859 1.281-1.375 3.328-1.375 1.984 0 3.234 1.344t1.25 3.797l-.016.438h-7.344q.094 1.625.922 2.484.828.859 2.063.859.906 0 1.547-.469.656-.484 1.047-1.547zm-5.484-2.703h5.5q-.109-1.234-.625-1.859-.797-.969-2.078-.969-1.141 0-1.938.781-.781.766-.859 2.047zM439.85 612.633q-.594.703-1.344 1.125-.75.422-1.5.422-.828 0-1.609-.484t-1.266-1.484q-.484-1-.484-2.203 0-1.469.75-2.953.766-1.484 1.891-2.219 1.125-.75 2.172-.75.813 0 1.547.422t1.266 1.297l.313-1.438h1.656l-1.328 6.219q-.281 1.297-.281 1.438 0 .25.188.438.188.172.453.172.5 0 1.297-.563 1.063-.75 1.672-1.984.625-1.25.625-2.578 0-1.547-.797-2.891t-2.375-2.156q-1.563-.813-3.469-.813-2.172 0-3.969 1.016-1.797 1.016-2.781 2.922-.984 1.891-.984 4.063 0 2.266.984 3.922.984 1.641 2.859 2.422 1.875.781 4.141.781 2.438 0 4.078-.813 1.641-.813 2.453-1.984h1.672q-.469.969-1.625 1.984-1.141 1.016-2.734 1.594-1.578.594-3.813.594-2.063 0-3.813-.531-1.734-.531-2.953-1.594-1.219-1.063-1.844-2.438-.781-1.75-.781-3.781 0-2.266.922-4.328 1.141-2.5 3.219-3.828 2.078-1.344 5.047-1.344 2.313 0 4.141.938 1.828.938 2.891 2.797.891 1.609.891 3.5 0 2.688-1.891 4.766-1.688 1.875-3.688 1.875-.641 0-1.031-.188-.391-.203-.578-.563-.125-.234-.188-.797zm-4.484-2.516q0 1.281.594 1.984.609.703 1.391.703.516 0 1.094-.313.578-.313 1.094-.922.531-.609.859-1.547.344-.953.344-1.891 0-1.266-.625-1.953-.625-.703-1.531-.703-.594 0-1.125.297-.516.297-1.016.969-.484.672-.781 1.625-.297.953-.297 1.75zm14.126 4.031v-13.594h4.688q1.578 0 2.422.188 1.156.266 1.984.969 1.078.922 1.609 2.344.531 1.406.531 3.219 0 1.547-.359 2.75-.359 1.188-.922 1.984-.563.781-1.234 1.234-.672.438-1.625.672-.953.234-2.188.234h-4.906zm1.797-1.609h2.906q1.344 0 2.109-.25.766-.25 1.219-.703.641-.641 1-1.719t.359-2.625q0-2.125-.703-3.266-.703-1.156-1.703-1.547-.719-.281-2.328-.281h-2.859v10.391zm18.207-1.563l1.719.219q-.406 1.5-1.516 2.344-1.094.828-2.813.828-2.156 0-3.422-1.328t-1.266-3.734q0-2.484 1.266-3.859 1.281-1.375 3.328-1.375 1.984 0 3.234 1.344t1.25 3.797l-.016.438h-7.344q.094 1.625.922 2.484.828.859 2.063.859.906 0 1.547-.469.656-.484 1.047-1.547zm-5.484-2.703h5.5q-.109-1.234-.625-1.859-.797-.969-2.078-.969-1.141 0-1.938.781-.781.766-.859 2.047zm9.079 5.875v-13.594h1.672v13.594h-1.672zm4.192-11.688v-1.906h1.672v1.906h-1.672zm0 11.688v-9.859h1.672v9.859h-1.672zm6.864 0l-3.75-9.859h1.766l2.125 5.906q.344.953.625 1.984.219-.781.625-1.875l2.188-6.016h1.719l-3.734 9.859h-1.563zm13.344-3.172l1.719.219q-.406 1.5-1.516 2.344-1.094.828-2.813.828-2.156 0-3.422-1.328t-1.266-3.734q0-2.484 1.266-3.859 1.281-1.375 3.328-1.375 1.984 0 3.234 1.344t1.25 3.797l-.016.438h-7.344q.094 1.625.922 2.484.828.859 2.063.859.906 0 1.547-.469.656-.484 1.047-1.547zm-5.484-2.703h5.5q-.109-1.234-.625-1.859-.797-.969-2.078-.969-1.141 0-1.938.781-.781.766-.859 2.047zm9.094 5.875v-9.859h1.5v1.5q.578-1.047 1.063-1.375.484-.344 1.078-.344.844 0 1.719.547l-.578 1.547q-.609-.359-1.234-.359-.547 0-.984.328-.422.328-.609.906-.281.891-.281 1.953v5.156h-1.672zm6.15 3.797l-.172-1.563q.547.141.953.141.547 0 .875-.188.344-.188.563-.516.156-.25.5-1.25l.156-.406-3.734-9.875h1.797l2.047 5.719q.406 1.078.719 2.281.281-1.156.688-2.25l2.094-5.75h1.672l-3.75 10.031q-.594 1.625-.938 2.234-.438.828-1.016 1.203-.578.391-1.375.391-.484 0-1.078-.203zm17.777.203q-1.375-1.75-2.328-4.078-.953-2.344-.953-4.844 0-2.219.703-4.234.844-2.344 2.578-4.672h1.203q-1.125 1.922-1.484 2.75-.563 1.281-.891 2.672-.406 1.734-.406 3.484 0 4.469 2.781 8.922h-1.203zm12.947-8.766l1.797.453q-.563 2.219-2.031 3.391-1.469 1.156-3.594 1.156-2.203 0-3.578-.891-1.375-.906-2.094-2.594-.719-1.703-.719-3.656 0-2.125.797-3.703.813-1.578 2.313-2.391 1.5-.828 3.297-.828 2.047 0 3.438 1.047 1.391 1.031 1.938 2.906l-1.766.422q-.469-1.484-1.375-2.156-.906-.688-2.266-.688-1.563 0-2.625.75-1.047.75-1.484 2.031-.422 1.266-.422 2.609 0 1.734.5 3.031.516 1.281 1.578 1.922 1.078.641 2.313.641 1.516 0 2.563-.859 1.047-.875 1.422-2.594zm3.551 4.766v-13.594h1.672v4.875q1.172-1.359 2.953-1.359 1.094 0 1.891.438.813.422 1.156 1.188.359.766.359 2.203v6.25h-1.672v-6.25q0-1.25-.547-1.813-.547-.578-1.531-.578-.75 0-1.406.391-.641.375-.922 1.047-.281.656-.281 1.813v5.391h-1.672zm16.813-1.219q-.938.797-1.797 1.125-.859.313-1.844.313-1.609 0-2.484-.781-.875-.797-.875-2.031 0-.734.328-1.328.328-.594.859-.953.531-.359 1.203-.547.5-.141 1.484-.25 2.031-.25 2.984-.578v-.438q0-1.016-.469-1.438-.641-.563-1.906-.563-1.172 0-1.734.406-.563.406-.828 1.469l-1.641-.234q.234-1.047.734-1.688.516-.641 1.469-.984.969-.359 2.25-.359 1.266 0 2.047.297.781.297 1.156.75.375.453.516 1.141.094.422.094 1.531v2.234q0 2.328.094 2.953.109.609.438 1.172h-1.75q-.266-.516-.328-1.219zm-.141-3.719q-.906.359-2.734.625-1.031.141-1.453.328-.422.188-.656.547-.234.359-.234.797 0 .672.5 1.125.516.438 1.484.438.969 0 1.719-.422.75-.438 1.109-1.156.266-.578.266-1.672v-.609zm4.079 4.938v-9.859h1.5v1.406q1.094-1.625 3.141-1.625.891 0 1.641.328.75.313 1.109.844.375.516.531 1.219.094.469.094 1.625v6.063h-1.672v-6q0-1.016-.203-1.516-.188-.516-.688-.813-.5-.297-1.172-.297-1.063 0-1.844.672-.766.672-.766 2.578v5.375h-1.672zm10.376 0v-9.859h1.5v1.406q1.094-1.625 3.141-1.625.891 0 1.641.328.75.313 1.109.844.375.516.531 1.219.094.469.094 1.625v6.063h-1.672v-6q0-1.016-.203-1.516-.188-.516-.688-.813-.5-.297-1.172-.297-1.063 0-1.844.672-.766.672-.766 2.578v5.375h-1.672zm17.126-3.172l1.719.219q-.406 1.5-1.516 2.344-1.094.828-2.813.828-2.156 0-3.422-1.328t-1.266-3.734q0-2.484 1.266-3.859 1.281-1.375 3.328-1.375 1.984 0 3.234 1.344t1.25 3.797l-.016.438h-7.344q.094 1.625.922 2.484.828.859 2.063.859.906 0 1.547-.469.656-.484 1.047-1.547zm-5.484-2.703h5.5q-.109-1.234-.625-1.859-.797-.969-2.078-.969-1.141 0-1.938.781-.781.766-.859 2.047zm9.079 5.875v-13.594h1.672v13.594h-1.672zm5.27 4h-1.188q2.766-4.453 2.766-8.922 0-1.734-.391-3.453-.328-1.391-.891-2.672-.359-.844-1.484-2.781h1.188q1.75 2.328 2.578 4.672.719 2.016.719 4.234 0 2.5-.969 4.844-.953 2.328-2.328 4.078z"/><path d="M515.797 221.89l.126 37.417" fill="none"/><path stroke="#000" stroke-width="2" stroke-linejoin="round" d="M515.797 221.89l.094 27.857" fill-rule="evenodd"/><path stroke="#000" stroke-width="2" d="M520.171 249.733l.029 8.56-8.56.029-.029-8.56 8.56-.029z"/><path d="M515.797 453.402v36.693" fill="none"/><path stroke="#000" stroke-width="2" stroke-linejoin="round" d="M515.797 453.402v27.133" fill-rule="evenodd"/><path stroke="#000" stroke-width="2" d="M520.077 480.535v8.56h-8.56v-8.56h8.56z"/><path d="M676.745 35.255v663.055" fill="none"/><path stroke="#000" stroke-width="2" stroke-linejoin="round" stroke-dasharray="2.0,6.0" d="M676.745 35.255v663.055" fill-rule="evenodd"/><path fill="#fff" d="M736.204 378.189v-164.378h67.559v164.378z" fill-rule="evenodd"/><path stroke="#000" stroke-width="2" stroke-linejoin="round" stroke-dasharray="8.0,6.0" d="M736.204 378.189v-164.378h67.559v164.378z" fill-rule="evenodd"/><path d="M765.904 335.403h-13.594v-9.172h1.594v7.375h4.219v-6.375h1.609v6.375h6.172v1.797zm-3.172-17.833l.219-1.719q1.5.406 2.344 1.516.828 1.094.828 2.813 0 2.156-1.328 3.422t-3.734 1.266q-2.484 0-3.859-1.266-1.375-1.281-1.375-3.328 0-1.984 1.344-3.234t3.797-1.25l.438.016v7.344q1.625-.094 2.484-.922.859-.828.859-2.063 0-.906-.469-1.547-.484-.656-1.547-1.047zm-2.703 5.484v-5.5q-1.234.109-1.859.625-.969.797-.969 2.078 0 1.141.781 1.938.766.781 2.047.859zm2.703-15.86l.219-1.719q1.5.406 2.344 1.516.828 1.094.828 2.813 0 2.156-1.328 3.422t-3.734 1.266q-2.484 0-3.859-1.266-1.375-1.281-1.375-3.328 0-1.984 1.344-3.234t3.797-1.25l.438.016v7.344q1.625-.094 2.484-.922.859-.828.859-2.063 0-.906-.469-1.547-.484-.656-1.547-1.047zm-2.703 5.484v-5.5q-1.234.109-1.859.625-.969.797-.969 2.078 0 1.141.781 1.938.766.781 2.047.859zm5.875-15.501h-1.25q1.469.938 1.469 2.75 0 1.172-.641 2.172-.656.984-1.813 1.531-1.172.531-2.688.531-1.469 0-2.672-.484-1.203-.5-1.844-1.469-.641-.984-.641-2.203 0-.891.375-1.578.375-.703.984-1.141h-4.875v-1.656h13.594v1.547zm-4.922 5.281q1.891 0 2.828-.797.938-.813.938-1.891 0-1.094-.891-1.859-.891-.766-2.734-.766-2.016 0-2.953.781-.953.781-.953 1.922 0 1.109.906 1.859t2.859.75zm4.922-10.813v1.547h-13.594v-1.656h4.844q-1.328-1.063-1.328-2.703 0-.906.375-1.719.359-.813 1.031-1.328.656-.531 1.594-.828.938-.297 2-.297 2.531 0 3.922 1.25 1.375 1.25 1.375 3t-1.453 2.734h1.234zm-5 .016q1.766 0 2.563-.469 1.281-.797 1.281-2.141 0-1.094-.938-1.891-.953-.797-2.844-.797-1.922 0-2.844.766-.922.766-.922 1.844 0 1.094.953 1.891.953.797 2.75.797zm3.781-15.282q.797.938 1.125 1.797.313.859.313 1.844 0 1.609-.781 2.484-.797.875-2.031.875-.734 0-1.328-.328-.594-.328-.953-.859-.359-.531-.547-1.203-.141-.5-.25-1.484-.25-2.031-.578-2.984h-.438q-1.016 0-1.438.469-.563.641-.563 1.906 0 1.172.406 1.734.406.563 1.469.828l-.234 1.641q-1.047-.234-1.688-.734-.641-.516-.984-1.469-.359-.969-.359-2.25 0-1.266.297-2.047.297-.781.75-1.156.453-.375 1.141-.516.422-.094 1.531-.094h2.234q2.328 0 2.953-.094.609-.109 1.172-.438v1.75q-.516.266-1.219.328zm-3.719.141q.359.906.625 2.734.141 1.031.328 1.453.188.422.547.656.359.234.797.234.672 0 1.125-.5.438-.516.438-1.484 0-.969-.422-1.719-.438-.75-1.156-1.109-.578-.266-1.672-.266h-.609zm1.328-10.516l.219-1.641q1.688.266 2.656 1.375.953 1.109.953 2.734 0 2.016-1.313 3.25-1.328 1.219-3.797 1.219-1.594 0-2.781-.516-1.203-.531-1.797-1.609-.609-1.094-.609-2.359 0-1.609.813-2.625t2.313-1.313l.25 1.625q-1 .234-1.5.828t-.5 1.422q0 1.266.906 2.063.906.781 2.859.781 1.984 0 2.891-.766.891-.766.891-1.984 0-.984-.594-1.641-.609-.656-1.859-.844zm3.609-2.906h-13.594v-1.672h7.75l-4.016-3.953v-2.156l3.656 3.766 6.203-4.141v2.063l-5.031 3.25 1.125 1.172h3.906v1.672zM787.904 318.353h-13.594v-9.844h1.594v8.047h4.172v-7.531h1.594v7.531h4.625v-8.359h1.609v10.156zm0-14.928l-9.859 3.75v-1.766l5.906-2.125q.953-.344 1.984-.625-.781-.219-1.875-.625l-6.016-2.188v-1.719l9.859 3.734v1.563zm-3.172-13.344l.219-1.719q1.5.406 2.344 1.516.828 1.094.828 2.813 0 2.156-1.328 3.422t-3.734 1.266q-2.484 0-3.859-1.266-1.375-1.281-1.375-3.328 0-1.984 1.344-3.234t3.797-1.25l.438.016v7.344q1.625-.094 2.484-.922.859-.828.859-2.063 0-.906-.469-1.547-.484-.656-1.547-1.047zm-2.703 5.484v-5.5q-1.234.109-1.859.625-.969.797-.969 2.078 0 1.141.781 1.938.766.781 2.047.859zm5.875-9.11h-9.859v-1.5h1.406q-1.625-1.094-1.625-3.141 0-.891.328-1.641.313-.75.844-1.109.516-.375 1.219-.531.469-.094 1.625-.094h6.063v1.672h-6q-1.016 0-1.516.203-.516.188-.813.688-.297.5-.297 1.172 0 1.063.672 1.844.672.766 2.578.766h5.375v1.672zm-1.5-14.032l1.484-.234q.141.703.141 1.266 0 .906-.281 1.406-.297.5-.75.703-.469.203-1.984.203h-5.656v1.234h-1.313v-1.234h-2.438l-1-1.656h3.438v-1.688h1.313v1.688h5.75q.719 0 .922-.078.203-.094.328-.297.125-.203.125-.578 0-.266-.078-.734z"/><path fill="#fff" d="M851.871 486.396v-164.378h67.559v164.378z" fill-rule="evenodd"/><path stroke="#000" stroke-width="2" stroke-linejoin="round" d="M851.871 486.396v-164.378h67.559v164.378z" fill-rule="evenodd"/><path d="M887.805 436.064l.453-1.797q2.219.563 3.391 2.031 1.156 1.469 1.156 3.594 0 2.203-.891 3.578-.906 1.375-2.594 2.094-1.703.719-3.656.719-2.125 0-3.703-.797-1.578-.813-2.391-2.313-.828-1.5-.828-3.297 0-2.047 1.047-3.438 1.031-1.391 2.906-1.938l.422 1.766q-1.484.469-2.156 1.375-.688.906-.688 2.266 0 1.563.75 2.625.75 1.047 2.031 1.484 1.266.422 2.609.422 1.734 0 3.031-.5 1.281-.516 1.922-1.578.641-1.078.641-2.313 0-1.516-.859-2.563-.875-1.047-2.594-1.422zm-.156-2.926q-2.734 0-4.063-1.531-1.094-1.266-1.094-3.094 0-2.031 1.344-3.313 1.328-1.297 3.672-1.297 1.906 0 3 .578 1.078.563 1.688 1.656.594 1.078.594 2.375 0 2.063-1.328 3.344-1.328 1.281-3.813 1.281zm0-1.719q1.891 0 2.828-.828.938-.828.938-2.078t-.938-2.063q-.953-.828-2.891-.828-1.828 0-2.766.828t-.938 2.063q0 1.25.938 2.078.938.828 2.828.828zm4.922-9.282h-9.859v-1.5h1.406q-1.625-1.094-1.625-3.141 0-.891.328-1.641.313-.75.844-1.109.516-.375 1.219-.531.469-.094 1.625-.094h6.063v1.672h-6q-1.016 0-1.516.203-.516.188-.813.688-.297.5-.297 1.172 0 1.063.672 1.844.672.766 2.578.766h5.375v1.672zm-2.938-9.704l-.266-1.656q1-.141 1.531-.766.516-.641.516-1.781 0-1.156-.469-1.703-.469-.563-1.094-.563-.563 0-.891.484-.219.344-.563 1.703-.469 1.844-.797 2.563-.344.703-.938 1.078-.609.359-1.328.359-.656 0-1.219-.297-.563-.313-.938-.828-.281-.391-.484-1.063-.203-.672-.203-1.438 0-1.172.344-2.047.328-.875.906-1.281.563-.422 1.516-.578l.219 1.625q-.75.109-1.172.656-.438.531-.438 1.5 0 1.156.391 1.641.375.484.875.484.328 0 .594-.203.266-.203.438-.641.094-.25.438-1.469.469-1.766.766-2.469.297-.703.875-1.094.578-.406 1.438-.406.828 0 1.578.484.734.484 1.141 1.406.391.922.391 2.078 0 1.922-.797 2.938-.797 1-2.359 1.281zm2.938-16.453h-1.453q1.672 1.141 1.672 3.125 0 .859-.328 1.625-.344.75-.844 1.125-.5.359-1.234.516-.5.094-1.563.094h-6.109v-1.672h5.469q1.313 0 1.766-.094.656-.156 1.031-.672.375-.516.375-1.266t-.375-1.406q-.391-.656-1.047-.922-.672-.281-1.938-.281h-5.281v-1.672h9.859v1.5zm0-3.923h-9.859v-1.5h1.391q-.719-.453-1.156-1.219-.453-.781-.453-1.766 0-1.094.453-1.797.453-.703 1.281-.984-1.734-1.172-1.734-3.047 0-1.469.813-2.25.813-.797 2.5-.797h6.766v1.672h-6.203q-1 0-1.438.156-.453.156-.719.594-.266.422-.266 1 0 1.031.688 1.719.688.688 2.219.688h5.719v1.672h-6.406q-1.109 0-1.656.406-.563.406-.563 1.344 0 .703.375 1.313.359.594 1.078.859.719.266 2.063.266h5.109v1.672zm-3.172-22.291l.219-1.719q1.5.406 2.344 1.516.828 1.094.828 2.813 0 2.156-1.328 3.422t-3.734 1.266q-2.484 0-3.859-1.266-1.375-1.281-1.375-3.328 0-1.984 1.344-3.234t3.797-1.25l.438.016v7.344q1.625-.094 2.484-.922.859-.828.859-2.063 0-.906-.469-1.547-.484-.656-1.547-1.047zm-2.703 5.484v-5.5q-1.234.109-1.859.625-.969.797-.969 2.078 0 1.141.781 1.938.766.781 2.047.859zm5.875-9.094h-9.859v-1.5h1.5q-1.047-.578-1.375-1.063-.344-.484-.344-1.078 0-.844.547-1.719l1.547.578q-.359.609-.359 1.234 0 .547.328.984.328.422.906.609.891.281 1.953.281h5.156v1.672z"/><path d="M851.871 404.207l-48.094-108.22" fill="none"/><path stroke="#000" stroke-width="2" stroke-linejoin="round" stroke-dasharray="8.0,6.0" d="M851.871 404.207l-44.212-99.484" fill-rule="evenodd"/><path stroke="#000" stroke-width="2" d="M803.748 306.461l-3.476-7.822 7.822-3.476 3.476 7.822-7.822 3.476z"/><path d="M736.204 641.354h183.213v64h-183.213z" fill="none"/><path d="M788.882 680.274l5.234-13.594h1.938l5.563 13.594h-2.047l-1.594-4.125h-5.688l-1.484 4.125h-1.922zm3.922-5.578h4.609l-1.406-3.781q-.656-1.703-.969-2.813-.266 1.313-.734 2.594l-1.5 4zm16.256 5.578v-1.453q-1.141 1.672-3.125 1.672-.859 0-1.625-.328-.75-.344-1.125-.844-.359-.5-.516-1.234-.094-.5-.094-1.563v-6.109h1.672v5.469q0 1.313.094 1.766.156.656.672 1.031.516.375 1.266.375t1.406-.375q.656-.391.922-1.047.281-.672.281-1.938v-5.281h1.672v9.859h-1.5zm10.313 0v-1.25q-.938 1.469-2.75 1.469-1.172 0-2.172-.641-.984-.656-1.531-1.813-.531-1.172-.531-2.688 0-1.469.484-2.672.5-1.203 1.469-1.844.984-.641 2.203-.641.891 0 1.578.375.703.375 1.141.984v-4.875h1.656v13.594h-1.547zm-5.281-4.922q0 1.891.797 2.828.813.938 1.891.938 1.094 0 1.859-.891.766-.891.766-2.734 0-2.016-.781-2.953-.781-.953-1.922-.953-1.109 0-1.859.906t-.75 2.859zm9.282-6.766v-1.906h1.672v1.906h-1.672zm0 11.688v-9.859h1.672v9.859h-1.672zm10.879-3.172l1.719.219q-.406 1.5-1.516 2.344-1.094.828-2.813.828-2.156 0-3.422-1.328t-1.266-3.734q0-2.484 1.266-3.859 1.281-1.375 3.328-1.375 1.984 0 3.234 1.344t1.25 3.797l-.016.438h-7.344q.094 1.625.922 2.484.828.859 2.063.859.906 0 1.547-.469.656-.484 1.047-1.547zm-5.484-2.703h5.5q-.109-1.234-.625-1.859-.797-.969-2.078-.969-1.141 0-1.938.781-.781.766-.859 2.047zm9.11 5.875v-9.859h1.5v1.406q1.094-1.625 3.141-1.625.891 0 1.641.328.75.313 1.109.844.375.516.531 1.219.094.469.094 1.625v6.063h-1.672v-6q0-1.016-.203-1.516-.188-.516-.688-.813-.5-.297-1.172-.297-1.063 0-1.844.672-.766.672-.766 2.578v5.375h-1.672zm16.813-3.609l1.641.219q-.266 1.688-1.375 2.656-1.109.953-2.734.953-2.016 0-3.25-1.313-1.219-1.328-1.219-3.797 0-1.594.516-2.781.531-1.203 1.609-1.797 1.094-.609 2.359-.609 1.609 0 2.625.813t1.313 2.313l-1.625.25q-.234-1-.828-1.5t-1.422-.5q-1.266 0-2.063.906-.781.906-.781 2.859 0 1.984.766 2.891.766.891 1.984.891.984 0 1.641-.594.656-.609.844-1.859zm9.641.438l1.719.219q-.406 1.5-1.516 2.344-1.094.828-2.813.828-2.156 0-3.422-1.328t-1.266-3.734q0-2.484 1.266-3.859 1.281-1.375 3.328-1.375 1.984 0 3.234 1.344t1.25 3.797l-.016.438h-7.344q.094 1.625.922 2.484.828.859 2.063.859.906 0 1.547-.469.656-.484 1.047-1.547zm-5.484-2.703h5.5q-.109-1.234-.625-1.859-.797-.969-2.078-.969-1.141 0-1.938.781-.781.766-.859 2.047z"/><path d="M736.204 296l-112.819 271.244" fill="none"/><path stroke="#000" stroke-width="2" stroke-linejoin="round" stroke-dasharray="8.0,6.0" d="M732.533 304.827l-109.147 262.417" fill-rule="evenodd"/><path stroke="#000" stroke-width="2" d="M728.581 303.183l3.287-7.904 7.904 3.287-3.287 7.904-7.904-3.287z"/><path fill="#fff" d="M173.033 216.722h122.457v79.055h-122.457z" fill-rule="evenodd"/><path stroke="#000" stroke-linejoin="round" d="M173.033 216.722h122.457v79.055h-122.457z" fill-rule="evenodd"/><path d="M197.07 258.124l1.609.406q-.516 1.984-1.828 3.031-1.313 1.031-3.219 1.031-1.969 0-3.203-.797-1.219-.797-1.875-2.313-.641-1.531-.641-3.266 0-1.906.719-3.313.734-1.422 2.078-2.156 1.344-.734 2.953-.734 1.828 0 3.063.938 1.25.922 1.734 2.609l-1.578.375q-.422-1.328-1.234-1.938-.797-.609-2.016-.609-1.406 0-2.359.672-.938.672-1.328 1.813-.375 1.125-.375 2.328 0 1.563.453 2.719t1.406 1.734q.969.563 2.078.563 1.344 0 2.281-.781.938-.781 1.281-2.313zm3.076-.141q0-2.453 1.359-3.625 1.141-.984 2.781-.984 1.813 0 2.969 1.203 1.156 1.188 1.156 3.281 0 1.703-.516 2.688-.516.969-1.484 1.516-.969.531-2.125.531-1.859 0-3-1.188t-1.141-3.422zm1.531 0q0 1.688.734 2.531.75.844 1.875.844 1.109 0 1.844-.844.734-.844.734-2.578 0-1.641-.75-2.484-.734-.844-1.828-.844-1.125 0-1.875.844-.734.844-.734 2.531zm8.668 4.406v-8.813h1.344v1.25q.969-1.453 2.797-1.453.797 0 1.469.297.672.281 1 .75.328.453.469 1.094.078.422.078 1.453v5.422h-1.484v-5.359q0-.922-.188-1.375-.172-.453-.625-.719-.438-.266-1.031-.266-.953 0-1.656.609-.688.594-.688 2.297v4.813h-1.484zm12.903-1.344l.203 1.328q-.625.125-1.125.125-.813 0-1.266-.25-.438-.266-.625-.672-.188-.422-.188-1.766v-5.078h-1.094v-1.156h1.094v-2.188l1.484-.891v3.078h1.516v1.156h-1.516v5.156q0 .641.078.828.078.172.25.281.188.109.531.109.234 0 .656-.063zm1.533 1.344v-8.813h1.344v1.328q.516-.938.938-1.234.438-.297.969-.297.75 0 1.531.484l-.516 1.391q-.547-.328-1.094-.328-.484 0-.875.297t-.563.813q-.25.797-.25 1.75v4.609h-1.484zm5.786-10.453v-1.719h1.5v1.719h-1.5zm0 10.453v-8.813h1.5v8.813h-1.5zm5.225 0h-1.391v-12.172h1.5v4.344q.938-1.188 2.406-1.188.813 0 1.531.328.734.328 1.203.922.469.594.734 1.438.266.828.266 1.781 0 2.266-1.125 3.516-1.109 1.234-2.672 1.234-1.563 0-2.453-1.313v1.109zm-.016-4.469q0 1.578.422 2.281.719 1.156 1.922 1.156.969 0 1.688-.844.719-.859.719-2.547 0-1.719-.688-2.531-.688-.828-1.656-.828-.984 0-1.703.859-.703.844-.703 2.453zm14.043 4.469v-1.297q-1.016 1.5-2.797 1.5-.766 0-1.453-.297-.672-.313-1-.75-.328-.453-.469-1.109-.078-.453-.078-1.406v-5.453h1.484v4.891q0 1.172.094 1.578.141.578.594.922.469.328 1.141.328t1.25-.344q.594-.344.828-.938.25-.594.25-1.719v-4.719h1.5v8.813h-1.344zm7.137-1.344l.203 1.328q-.625.125-1.125.125-.812 0-1.266-.25-.438-.266-.625-.672-.188-.422-.188-1.766v-5.078h-1.094v-1.156h1.094v-2.188l1.484-.891v3.078h1.516v1.156h-1.516v5.156q0 .641.078.828.078.172.25.281.188.109.531.109.234 0 .656-.063zm.986-3.063q0-2.453 1.359-3.625 1.141-.984 2.781-.984 1.813 0 2.969 1.203 1.156 1.188 1.156 3.281 0 1.703-.516 2.688-.516.969-1.484 1.516-.969.531-2.125.531-1.859 0-3-1.188t-1.141-3.422zm1.531 0q0 1.688.734 2.531.75.844 1.875.844 1.109 0 1.844-.844.734-.844.734-2.578 0-1.641-.75-2.484-.734-.844-1.828-.844-1.125 0-1.875.844-.734.844-.734 2.531zm8.653 4.406v-8.813h1.344v1.328q.516-.938.938-1.234.438-.297.969-.297.75 0 1.531.484l-.516 1.391q-.547-.328-1.094-.328-.484 0-.875.297t-.563.813q-.25.797-.25 1.75v4.609h-1.484zm5.177-2.625l1.484-.234q.125.891.688 1.359.578.469 1.594.469 1.031 0 1.531-.422t.5-.984q0-.5-.438-.797-.313-.188-1.531-.5-1.641-.422-2.281-.719-.641-.297-.969-.828-.328-.547-.328-1.188 0-.594.266-1.094.281-.5.75-.844.344-.25.938-.422.609-.188 1.297-.188 1.047 0 1.828.297.781.297 1.156.813.375.516.516 1.359l-1.469.203q-.094-.672-.578-1.047-.469-.391-1.344-.391-1.031 0-1.469.344-.438.328-.438.781 0 .297.188.531.172.234.563.391.234.094 1.328.391 1.578.422 2.203.688.625.266.984.781.359.516.359 1.281 0 .75-.438 1.422-.438.656-1.266 1.016-.813.359-1.844.359-1.719 0-2.625-.719-.906-.719-1.156-2.109z"/><path fill="#fff" d="M173.033 295.778h122.457v79.055h-122.457z" fill-rule="evenodd"/><path stroke="#000" stroke-linejoin="round" d="M173.033 295.778h122.457v79.055h-122.457z" fill-rule="evenodd"/><path d="M211.987 326.68l1.609.406q-.516 1.984-1.828 3.031-1.313 1.031-3.219 1.031-1.969 0-3.203-.797-1.219-.797-1.875-2.313-.641-1.531-.641-3.266 0-1.906.719-3.313.734-1.422 2.078-2.156 1.344-.734 2.953-.734 1.828 0 3.063.938 1.25.922 1.734 2.609l-1.578.375q-.422-1.328-1.234-1.938-.797-.609-2.016-.609-1.406 0-2.359.672-.938.672-1.328 1.813-.375 1.125-.375 2.328 0 1.563.453 2.719t1.406 1.734q.969.563 2.078.563 1.344 0 2.281-.781.938-.781 1.281-2.313zm3.639 4.266v-12.172h1.484v4.375q1.047-1.219 2.641-1.219.984 0 1.703.391.719.375 1.031 1.063.313.688.313 1.969v5.594h-1.484v-5.594q0-1.109-.5-1.625-.484-.516-1.359-.516-.672 0-1.266.344-.578.344-.828.938t-.25 1.625v4.828h-1.484zm15.387-1.094q-.828.719-1.609 1.016-.766.281-1.641.281-1.453 0-2.234-.703-.781-.719-.781-1.828 0-.641.297-1.172.297-.547.766-.859.484-.328 1.078-.5.453-.109 1.328-.219 1.813-.219 2.672-.516v-.391q0-.906-.422-1.281-.563-.516-1.703-.516-1.047 0-1.547.375-.5.359-.75 1.313l-1.453-.203q.203-.938.656-1.516.453-.578 1.313-.891.859-.313 2-.313t1.844.266q.703.266 1.031.672.328.406.469 1.016.078.375.078 1.375v2q0 2.078.094 2.641.094.547.375 1.047h-1.563q-.234-.469-.297-1.094zm-.125-3.328q-.813.328-2.438.563-.922.125-1.313.297-.375.172-.594.5-.203.313-.203.703 0 .594.453 1 .453.391 1.328.391.859 0 1.531-.375.672-.391 1-1.031.234-.516.234-1.5v-.547zm4.012 4.422v-8.813h1.344v1.25q.969-1.453 2.797-1.453.797 0 1.469.297.672.281 1 .75.328.453.469 1.094.078.422.078 1.453v5.422h-1.484v-5.359q0-.922-.188-1.375-.172-.453-.625-.719-.438-.266-1.031-.266-.953 0-1.656.609-.688.594-.688 2.297v4.813h-1.484zm9.637 0v-8.813h1.344v1.25q.969-1.453 2.797-1.453.797 0 1.469.297.672.281 1 .75.328.453.469 1.094.078.422.078 1.453v5.422h-1.484v-5.359q0-.922-.188-1.375-.172-.453-.625-.719-.438-.266-1.031-.266-.953 0-1.656.609-.688.594-.688 2.297v4.813h-1.484zm15.668-2.844l1.547.203q-.375 1.344-1.359 2.094-.984.75-2.516.75-1.937 0-3.078-1.188-1.125-1.203-1.125-3.344 0-2.234 1.141-3.453 1.141-1.234 2.969-1.234 1.781 0 2.891 1.203 1.125 1.203 1.125 3.391l-.016.391h-6.562q.078 1.453.812 2.234.75.766 1.844.766.828 0 1.406-.422.578-.438.922-1.391zm-4.906-2.406h4.922q-.094-1.109-.563-1.672-.719-.859-1.859-.859-1.016 0-1.719.688-.703.688-.781 1.844zm8.481 5.25v-12.172h1.484v12.172h-1.484zM185.592 351.945l4.688-12.172h1.734l4.969 12.172h-1.828l-1.422-3.688h-5.094l-1.328 3.688h-1.719zm3.516-5h4.125l-1.266-3.375q-.578-1.531-.859-2.516-.234 1.172-.656 2.328l-1.344 3.563zm8.589 2.375l1.484-.234q.125.891.688 1.359.578.469 1.594.469 1.031 0 1.531-.422t.5-.984q0-.5-.438-.797-.313-.188-1.531-.5-1.641-.422-2.281-.719-.641-.297-.969-.828-.328-.547-.328-1.188 0-.594.266-1.094.281-.5.75-.844.344-.25.938-.422.609-.188 1.297-.188 1.047 0 1.828.297.781.297 1.156.813.375.516.516 1.359l-1.469.203q-.094-.672-.578-1.047-.469-.391-1.344-.391-1.031 0-1.469.344-.438.328-.438.781 0 .297.188.531.172.234.563.391.234.094 1.328.391 1.578.422 2.203.688.625.266.984.781.359.516.359 1.281 0 .75-.438 1.422-.438.656-1.266 1.016-.813.359-1.844.359-1.719 0-2.625-.719-.906-.719-1.156-2.109zm8.664 0l1.484-.234q.125.891.688 1.359.578.469 1.594.469 1.031 0 1.531-.422t.5-.984q0-.5-.438-.797-.313-.188-1.531-.5-1.641-.422-2.281-.719-.641-.297-.969-.828-.328-.547-.328-1.188 0-.594.266-1.094.281-.5.75-.844.344-.25.938-.422.609-.188 1.297-.188 1.047 0 1.828.297.781.297 1.156.813.375.516.516 1.359l-1.469.203q-.094-.672-.578-1.047-.469-.391-1.344-.391-1.031 0-1.469.344-.438.328-.438.781 0 .297.188.531.172.234.563.391.234.094 1.328.391 1.578.422 2.203.688.625.266.984.781.359.516.359 1.281 0 .75-.438 1.422-.438.656-1.266 1.016-.813.359-1.844.359-1.719 0-2.625-.719-.906-.719-1.156-2.109zm8.711-1.781q0-2.453 1.359-3.625 1.141-.984 2.781-.984 1.813 0 2.969 1.203 1.156 1.188 1.156 3.281 0 1.703-.516 2.688-.516.969-1.484 1.516-.969.531-2.125.531-1.859 0-3-1.188t-1.141-3.422zm1.531 0q0 1.688.734 2.531.75.844 1.875.844 1.109 0 1.844-.844.734-.844.734-2.578 0-1.641-.75-2.484-.734-.844-1.828-.844-1.125 0-1.875.844-.734.844-.734 2.531zm14.418 1.172l1.469.203q-.234 1.516-1.234 2.375-.984.859-2.438.859-1.813 0-2.906-1.188-1.094-1.188-1.094-3.391 0-1.422.469-2.484.469-1.078 1.438-1.609.969-.547 2.109-.547 1.438 0 2.344.734.906.719 1.172 2.063l-1.453.219q-.203-.891-.734-1.328-.531-.453-1.281-.453-1.125 0-1.828.813-.703.797-.703 2.547 0 1.781.672 2.594.688.797 1.781.797.875 0 1.469-.531.594-.547.75-1.672zm2.914-7.219v-1.719h1.5v1.719h-1.5zm0 10.453v-8.813h1.5v8.813h-1.5zm9.6-1.094q-.828.719-1.609 1.016-.766.281-1.641.281-1.453 0-2.234-.703-.781-.719-.781-1.828 0-.641.297-1.172.297-.547.766-.859.484-.328 1.078-.5.453-.109 1.328-.219 1.813-.219 2.672-.516v-.391q0-.906-.422-1.281-.563-.516-1.703-.516-1.047 0-1.547.375-.5.359-.75 1.313l-1.453-.203q.203-.938.656-1.516.453-.578 1.313-.891.859-.313 2-.313t1.844.266q.703.266 1.031.672.328.406.469 1.016.078.375.078 1.375v2q0 2.078.094 2.641.094.547.375 1.047h-1.563q-.234-.469-.297-1.094zm-.125-3.328q-.813.328-2.438.563-.922.125-1.313.297-.375.172-.594.5-.203.313-.203.703 0 .594.453 1 .453.391 1.328.391.859 0 1.531-.375.672-.391 1-1.031.234-.516.234-1.5v-.547zm7.278 3.078l.203 1.328q-.625.125-1.125.125-.813 0-1.266-.25-.438-.266-.625-.672-.188-.422-.188-1.766v-5.078h-1.094v-1.156h1.094v-2.188l1.484-.891v3.078h1.516v1.156h-1.516v5.156q0 .641.078.828.078.172.25.281.188.109.531.109.234 0 .656-.063zm1.549-9.109v-1.719h1.5v1.719h-1.5zm0 10.453v-8.813h1.5v8.813h-1.5zm3.287-4.406q0-2.453 1.359-3.625 1.141-.984 2.781-.984 1.813 0 2.969 1.203 1.156 1.188 1.156 3.281 0 1.703-.516 2.688-.516.969-1.484 1.516-.969.531-2.125.531-1.859 0-3-1.188t-1.141-3.422zm1.531 0q0 1.688.734 2.531.75.844 1.875.844 1.109 0 1.844-.844.734-.844.734-2.578 0-1.641-.75-2.484-.734-.844-1.828-.844-1.125 0-1.875.844-.734.844-.734 2.531zm8.668 4.406v-8.813h1.344v1.25q.969-1.453 2.797-1.453.797 0 1.469.297.672.281 1 .75.328.453.469 1.094.078.422.078 1.453v5.422h-1.484v-5.359q0-.922-.188-1.375-.172-.453-.625-.719-.438-.266-1.031-.266-.953 0-1.656.609-.688.594-.688 2.297v4.813h-1.484zm9.028-2.625l1.484-.234q.125.891.688 1.359.578.469 1.594.469 1.031 0 1.531-.422t.5-.984q0-.5-.438-.797-.313-.188-1.531-.5-1.641-.422-2.281-.719-.641-.297-.969-.828-.328-.547-.328-1.188 0-.594.266-1.094.281-.5.75-.844.344-.25.938-.422.609-.188 1.297-.188 1.047 0 1.828.297.781.297 1.156.813.375.516.516 1.359l-1.469.203q-.094-.672-.578-1.047-.469-.391-1.344-.391-1.031 0-1.469.344-.438.328-.438.781 0 .297.188.531.172.234.563.391.234.094 1.328.391 1.578.422 2.203.688.625.266.984.781.359.516.359 1.281 0 .75-.438 1.422-.438.656-1.266 1.016-.813.359-1.844.359-1.719 0-2.625-.719-.906-.719-1.156-2.109z"/><path fill="#fff" d="M50.576 216.722h122.457v79.055h-122.457z" fill-rule="evenodd"/><path stroke="#000" stroke-linejoin="round" d="M50.576 216.722h122.457v79.055h-122.457z" fill-rule="evenodd"/><path d="M80.588 256.545q0-3.391 1.813-5.297 1.828-1.922 4.703-1.922 1.875 0 3.391.906 1.516.891 2.297 2.5.797 1.609.797 3.656 0 2.063-.844 3.703-.828 1.625-2.359 2.469-1.531.844-3.297.844-1.922 0-3.438-.922-1.5-.938-2.281-2.531-.781-1.609-.781-3.406zm1.859.031q0 2.453 1.313 3.875 1.328 1.406 3.313 1.406 2.031 0 3.344-1.422 1.313-1.438 1.313-4.063 0-1.656-.563-2.891-.547-1.234-1.641-1.922-1.078-.688-2.422-.688-1.906 0-3.281 1.313-1.375 1.313-1.375 4.391zm14.808 6.594l-3.016-9.859h1.719l1.563 5.688.594 2.125q.031-.156.5-2.031l1.578-5.781h1.719l1.469 5.719.484 1.891.578-1.906 1.688-5.703h1.625l-3.078 9.859h-1.734l-1.578-5.906-.375-1.672-2 7.578h-1.734zm11.645 0v-9.859h1.5v1.406q1.094-1.625 3.141-1.625.891 0 1.641.328.75.313 1.109.844.375.516.531 1.219.094.469.094 1.625v6.063h-1.672v-6q0-1.016-.203-1.516-.188-.516-.688-.813-.5-.297-1.172-.297-1.063 0-1.844.672-.766.672-.766 2.578v5.375h-1.672zm17.126-3.172l1.719.219q-.406 1.5-1.516 2.344-1.094.828-2.813.828-2.156 0-3.422-1.328t-1.266-3.734q0-2.484 1.266-3.859 1.281-1.375 3.328-1.375 1.984 0 3.234 1.344t1.25 3.797l-.016.438h-7.344q.094 1.625.922 2.484.828.859 2.063.859.906 0 1.547-.469.656-.484 1.047-1.547zm-5.484-2.703h5.5q-.109-1.234-.625-1.859-.797-.969-2.078-.969-1.141 0-1.938.781-.781.766-.859 2.047zm9.094 5.875v-9.859h1.5v1.5q.578-1.047 1.063-1.375.484-.344 1.078-.344.844 0 1.719.547l-.578 1.547q-.609-.359-1.234-.359-.547 0-.984.328-.422.328-.609.906-.281.891-.281 1.953v5.156h-1.672zm5.556-2.938l1.656-.266q.141 1 .766 1.531.641.516 1.781.516 1.156 0 1.703-.469.563-.469.563-1.094 0-.563-.484-.891-.344-.219-1.703-.563-1.844-.469-2.563-.797-.703-.344-1.078-.938-.359-.609-.359-1.328 0-.656.297-1.219.313-.563.828-.938.391-.281 1.063-.484.672-.203 1.438-.203 1.172 0 2.047.344.875.328 1.281.906.422.563.578 1.516l-1.625.219q-.109-.75-.656-1.172-.531-.438-1.5-.438-1.156 0-1.641.391-.484.375-.484.875 0 .328.203.594.203.266.641.438.25.094 1.469.438 1.766.469 2.469.766.703.297 1.094.875.406.578.406 1.438 0 .828-.484 1.578-.484.734-1.406 1.141-.922.391-2.078.391-1.922 0-2.938-.797-1-.797-1.281-2.359z"/><path fill="#fff" d="M50.576 295.778h122.457v79.055h-122.457z" fill-rule="evenodd"/><path stroke="#000" stroke-linejoin="round" d="M50.576 295.778h122.457v79.055h-122.457z" fill-rule="evenodd"/><path d="M89.043 336.897v-1.609h5.766v5.047q-1.328 1.063-2.75 1.594-1.406.531-2.891.531-2 0-3.641-.859-1.625-.859-2.469-2.484-.828-1.625-.828-3.625 0-1.984.828-3.703.828-1.719 2.391-2.547 1.563-.844 3.594-.844 1.469 0 2.656.484 1.203.469 1.875 1.328.672.844 1.031 2.219l-1.625.438q-.313-1.031-.766-1.625-.453-.594-1.297-.953-.844-.359-1.875-.359-1.234 0-2.141.375-.891.375-1.453 1-.547.609-.844 1.344-.531 1.25-.531 2.734 0 1.813.625 3.047.641 1.219 1.828 1.813 1.203.594 2.547.594 1.172 0 2.281-.453 1.109-.453 1.688-.953v-2.531h-4zm14.683 2.156l1.719.219q-.406 1.5-1.516 2.344-1.094.828-2.813.828-2.156 0-3.422-1.328t-1.266-3.734q0-2.484 1.266-3.859 1.281-1.375 3.328-1.375 1.984 0 3.234 1.344t1.25 3.797l-.016.438h-7.344q.094 1.625.922 2.484.828.859 2.063.859.906 0 1.547-.469.656-.484 1.047-1.547zm-5.484-2.703h5.5q-.109-1.234-.625-1.859-.797-.969-2.078-.969-1.141 0-1.938.781-.781.766-.859 2.047zm9.11 5.875v-9.859h1.5v1.406q1.094-1.625 3.141-1.625.891 0 1.641.328.75.313 1.109.844.375.516.531 1.219.094.469.094 1.625v6.063h-1.672v-6q0-1.016-.203-1.516-.188-.516-.688-.813-.5-.297-1.172-.297-1.063 0-1.844.672-.766.672-.766 2.578v5.375h-1.672zm10.36 0v-9.859h1.5v1.5q.578-1.047 1.063-1.375.484-.344 1.078-.344.844 0 1.719.547l-.578 1.547q-.609-.359-1.234-.359-.547 0-.984.328-.422.328-.609.906-.281.891-.281 1.953v5.156h-1.672zm12.978-3.172l1.719.219q-.406 1.5-1.516 2.344-1.094.828-2.813.828-2.156 0-3.422-1.328t-1.266-3.734q0-2.484 1.266-3.859 1.281-1.375 3.328-1.375 1.984 0 3.234 1.344t1.25 3.797l-.016.438h-7.344q.094 1.625.922 2.484.828.859 2.062.859.906 0 1.547-.469.656-.484 1.047-1.547zm-5.484-2.703h5.5q-.109-1.234-.625-1.859-.797-.969-2.078-.969-1.141 0-1.937.781-.781.766-.859 2.047zm8.438 2.938l1.656-.266q.141 1 .766 1.531.641.516 1.781.516 1.156 0 1.703-.469.563-.469.563-1.094 0-.563-.484-.891-.344-.219-1.703-.563-1.844-.469-2.563-.797-.703-.344-1.078-.938-.359-.609-.359-1.328 0-.656.297-1.219.313-.563.828-.938.391-.281 1.063-.484.672-.203 1.438-.203 1.172 0 2.047.344.875.328 1.281.906.422.563.578 1.516l-1.625.219q-.109-.75-.656-1.172-.531-.438-1.5-.438-1.156 0-1.641.391-.484.375-.484.875 0 .328.203.594.203.266.641.438.25.094 1.469.438 1.766.469 2.469.766.703.297 1.094.875.406.578.406 1.438 0 .828-.484 1.578-.484.734-1.406 1.141-.922.391-2.078.391-1.922 0-2.938-.797-1-.797-1.281-2.359z"/><path fill="#fff" d="M173.033 367.263h122.457v79.055h-122.457z" fill-rule="evenodd"/><path stroke="#000" stroke-linejoin="round" d="M173.033 367.263h122.457v79.055h-122.457z" fill-rule="evenodd"/><path d="M194.696 413.711v-13.594h1.797v6.734l6.766-6.734h2.438l-5.703 5.5 5.953 8.094h-2.375l-4.844-6.891-2.234 2.172v4.719h-1.797zm19.053-3.172l1.719.219q-.406 1.5-1.516 2.344-1.094.828-2.813.828-2.156 0-3.422-1.328t-1.266-3.734q0-2.484 1.266-3.859 1.281-1.375 3.328-1.375 1.984 0 3.234 1.344t1.25 3.797l-.016.438h-7.344q.094 1.625.922 2.484.828.859 2.063.859.906 0 1.547-.469.656-.484 1.047-1.547zm-5.484-2.703h5.5q-.109-1.234-.625-1.859-.797-.969-2.078-.969-1.141 0-1.938.781-.781.766-.859 2.047zm9.032 9.672l-.172-1.563q.547.141.953.141.547 0 .875-.188.344-.188.563-.516.156-.25.5-1.25l.156-.406-3.734-9.875h1.797l2.047 5.719q.406 1.078.719 2.281.281-1.156.688-2.25l2.094-5.75h1.672l-3.75 10.031q-.594 1.625-.938 2.234-.438.828-1.016 1.203-.578.391-1.375.391-.484 0-1.078-.203zm11.234-3.797l-3.016-9.859h1.719l1.563 5.688.594 2.125q.031-.156.5-2.031l1.578-5.781h1.719l1.469 5.719.484 1.891.578-1.906 1.688-5.703h1.625l-3.078 9.859h-1.734l-1.578-5.906-.375-1.672-2 7.578h-1.734zm11.02-4.922q0-2.734 1.531-4.063 1.266-1.094 3.094-1.094 2.031 0 3.313 1.344 1.297 1.328 1.297 3.672 0 1.906-.578 3-.563 1.078-1.656 1.688-1.078.594-2.375.594-2.063 0-3.344-1.328-1.281-1.328-1.281-3.813zm1.719 0q0 1.891.828 2.828.828.938 2.078.938t2.063-.938q.828-.953.828-2.891 0-1.828-.828-2.766t-2.063-.938q-1.25 0-2.078.938-.828.938-.828 2.828zm9.266 4.922v-9.859h1.5v1.5q.578-1.047 1.063-1.375.484-.344 1.078-.344.844 0 1.719.547l-.578 1.547q-.609-.359-1.234-.359-.547 0-.984.328-.422.328-.609.906-.281.891-.281 1.953v5.156h-1.672zm12.619 0v-1.25q-.938 1.469-2.75 1.469-1.172 0-2.172-.641-.984-.656-1.531-1.813-.531-1.172-.531-2.688 0-1.469.484-2.672.5-1.203 1.469-1.844.984-.641 2.203-.641.891 0 1.578.375.703.375 1.141.984v-4.875h1.656v13.594h-1.547zm-5.281-4.922q0 1.891.797 2.828.813.938 1.891.938 1.094 0 1.859-.891.766-.891.766-2.734 0-2.016-.781-2.953-.781-.953-1.922-.953-1.109 0-1.859.906t-.75 2.859zm8.594 1.984l1.656-.266q.141 1 .766 1.531.641.516 1.781.516 1.156 0 1.703-.469.563-.469.563-1.094 0-.563-.484-.891-.344-.219-1.703-.563-1.844-.469-2.563-.797-.703-.344-1.078-.938-.359-.609-.359-1.328 0-.656.297-1.219.313-.563.828-.938.391-.281 1.063-.484.672-.203 1.438-.203 1.172 0 2.047.344.875.328 1.281.906.422.563.578 1.516l-1.625.219q-.109-.75-.656-1.172-.531-.438-1.5-.438-1.156 0-1.641.391-.484.375-.484.875 0 .328.203.594.203.266.641.438.25.094 1.469.438 1.766.469 2.469.766.703.297 1.094.875.406.578.406 1.438 0 .828-.484 1.578-.484.734-1.406 1.141-.922.391-2.078.391-1.922 0-2.938-.797-1-.797-1.281-2.359z"/><path fill="#fff" d="M50.576 367.263h122.457v79.055h-122.457z" fill-rule="evenodd"/><path stroke="#000" stroke-linejoin="round" d="M50.576 367.263h122.457v79.055h-122.457z" fill-rule="evenodd"/><path d="M84.069 402.711v-12h-4.469v-1.594h10.766v1.594h-4.5v12h-1.797zm7.099-4.922q0-2.734 1.531-4.063 1.266-1.094 3.094-1.094 2.031 0 3.313 1.344 1.297 1.328 1.297 3.672 0 1.906-.578 3-.563 1.078-1.656 1.688-1.078.594-2.375.594-2.063 0-3.344-1.328-1.281-1.328-1.281-3.813zm1.719 0q0 1.891.828 2.828.828.938 2.078.938t2.063-.938q.828-.953.828-2.891 0-1.828-.828-2.766t-2.063-.938q-1.25 0-2.078.938-.828.938-.828 2.828zm9.282 8.703v-13.641h1.531v1.281q.531-.75 1.203-1.125.688-.375 1.641-.375 1.266 0 2.234.656.969.641 1.453 1.828.5 1.188.5 2.594 0 1.516-.547 2.734-.547 1.203-1.578 1.844-1.031.641-2.172.641-.844 0-1.516-.344-.656-.359-1.078-.891v4.797h-1.672zm1.516-8.656q0 1.906.766 2.813.781.906 1.875.906 1.109 0 1.891-.938.797-.938.797-2.922 0-1.875-.781-2.813-.766-.938-1.844-.938-1.063 0-1.891 1-.813 1-.813 2.891zm8.876-6.813v-1.906h1.672v1.906h-1.672zm0 11.688v-9.859h1.672v9.859h-1.672zm10.567-3.609l1.641.219q-.266 1.688-1.375 2.656-1.109.953-2.734.953-2.016 0-3.25-1.313-1.219-1.328-1.219-3.797 0-1.594.516-2.781.531-1.203 1.609-1.797 1.094-.609 2.359-.609 1.609 0 2.625.813t1.313 2.313l-1.625.25q-.234-1-.828-1.5t-1.422-.5q-1.266 0-2.063.906-.781.906-.781 2.859 0 1.984.766 2.891.766.891 1.984.891.984 0 1.641-.594.656-.609.844-1.859zm2.219.672l1.656-.266q.141 1 .766 1.531.641.516 1.781.516 1.156 0 1.703-.469.563-.469.563-1.094 0-.563-.484-.891-.344-.219-1.703-.563-1.844-.469-2.562-.797-.703-.344-1.078-.938-.359-.609-.359-1.328 0-.656.297-1.219.313-.563.828-.938.391-.281 1.063-.484.672-.203 1.437-.203 1.172 0 2.047.344.875.328 1.281.906.422.563.578 1.516l-1.625.219q-.109-.75-.656-1.172-.531-.438-1.5-.438-1.156 0-1.641.391-.484.375-.484.875 0 .328.203.594.203.266.641.438.25.094 1.469.438 1.766.469 2.469.766.703.297 1.094.875.406.578.406 1.438 0 .828-.484 1.578-.484.734-1.406 1.141-.922.391-2.078.391-1.922 0-2.937-.797-1-.797-1.281-2.359zm13.933 3.172l3.938-14.063h1.344l-3.938 14.063h-1.344zM76.886 420.336l1.688-.141q.125 1.016.563 1.672.438.656 1.359 1.063.938.406 2.094.406 1.031 0 1.813-.313.797-.313 1.188-.844.391-.531.391-1.156 0-.641-.375-1.109-.375-.484-1.234-.813-.547-.219-2.422-.656-1.875-.453-2.625-.859-.969-.516-1.453-1.266-.469-.75-.469-1.688 0-1.031.578-1.922.594-.906 1.703-1.359 1.125-.469 2.5-.469 1.516 0 2.672.484 1.156.484 1.766 1.438.625.938.672 2.141l-1.719.125q-.141-1.281-.953-1.938-.797-.672-2.359-.672-1.625 0-2.375.609-.75.594-.75 1.438 0 .734.531 1.203.516.469 2.703.969 2.203.5 3.016.875 1.188.547 1.75 1.391.578.828.578 1.922 0 1.094-.625 2.063-.625.953-1.797 1.484-1.156.531-2.609.531-1.844 0-3.094-.531-1.25-.547-1.969-1.625-.703-1.078-.734-2.453zm19.287 4.375v-1.453q-1.141 1.672-3.125 1.672-.859 0-1.625-.328-.75-.344-1.125-.844-.359-.5-.516-1.234-.094-.5-.094-1.563v-6.109h1.672v5.469q0 1.313.094 1.766.156.656.672 1.031.516.375 1.266.375t1.406-.375q.656-.391.922-1.047.281-.672.281-1.938v-5.281h1.672v9.859h-1.5zm5.469 0h-1.547v-13.594h1.656v4.844q1.063-1.328 2.703-1.328.906 0 1.719.375.813.359 1.328 1.031.531.656.828 1.594.297.938.297 2 0 2.531-1.25 3.922-1.25 1.375-3 1.375t-2.734-1.453v1.234zm-.016-5q0 1.766.469 2.563.797 1.281 2.141 1.281 1.094 0 1.891-.938.797-.953.797-2.844 0-1.922-.766-2.844-.766-.922-1.844-.922-1.094 0-1.891.953-.797.953-.797 2.75zm8.844-6.656v-1.938h1.656v1.938h-1.656zm-2.125 15.484l.313-1.422q.5.125.797.125.516 0 .766-.344.25-.328.25-1.688v-10.359h1.656v10.391q0 1.828-.469 2.547-.594.922-2 .922-.672 0-1.313-.172zm13.02-7l1.719.219q-.406 1.5-1.516 2.344-1.094.828-2.813.828-2.156 0-3.422-1.328t-1.266-3.734q0-2.484 1.266-3.859 1.281-1.375 3.328-1.375 1.984 0 3.234 1.344t1.25 3.797l-.016.438h-7.344q.094 1.625.922 2.484.828.859 2.063.859.906 0 1.547-.469.656-.484 1.047-1.547zm-5.484-2.703h5.5q-.109-1.234-.625-1.859-.797-.969-2.078-.969-1.141 0-1.938.781-.781.766-.859 2.047zm15.548 2.266l1.641.219q-.266 1.688-1.375 2.656-1.109.953-2.734.953-2.016 0-3.25-1.313-1.219-1.328-1.219-3.797 0-1.594.516-2.781.531-1.203 1.609-1.797 1.094-.609 2.359-.609 1.609 0 2.625.813t1.313 2.313l-1.625.25q-.234-1-.828-1.5t-1.422-.5q-1.266 0-2.062.906-.781.906-.781 2.859 0 1.984.766 2.891.766.891 1.984.891.984 0 1.641-.594.656-.609.844-1.859zm6.547 2.109l.234 1.484q-.703.141-1.266.141-.906 0-1.406-.281-.5-.297-.703-.75-.203-.469-.203-1.984v-5.656h-1.234v-1.313h1.234v-2.438l1.656-1v3.438h1.688v1.313h-1.688v5.75q0 .719.078.922.094.203.297.328.203.125.578.125.266 0 .734-.078zm.855-1.438l1.656-.266q.141 1 .766 1.531.641.516 1.781.516 1.156 0 1.703-.469.563-.469.563-1.094 0-.563-.484-.891-.344-.219-1.703-.563-1.844-.469-2.563-.797-.703-.344-1.078-.938-.359-.609-.359-1.328 0-.656.297-1.219.313-.563.828-.938.391-.281 1.063-.484.672-.203 1.438-.203 1.172 0 2.047.344.875.328 1.281.906.422.563.578 1.516l-1.625.219q-.109-.75-.656-1.172-.531-.438-1.5-.438-1.156 0-1.641.391-.484.375-.484.875 0 .328.203.594.203.266.641.438.25.094 1.469.438 1.766.469 2.469.766.703.297 1.094.875.406.578.406 1.438 0 .828-.484 1.578-.484.734-1.406 1.141-.922.391-2.078.391-1.922 0-2.938-.797-1-.797-1.281-2.359z"/><path fill="#fff" d="M736.204 602.774v-164.378h67.559v164.378z" fill-rule="evenodd"/><path stroke="#000" stroke-width="2" stroke-linejoin="round" d="M736.204 602.774v-164.378h67.559v164.378z" fill-rule="evenodd"/><path d="M761.138 564.375l.453-1.797q2.219.563 3.391 2.031 1.156 1.469 1.156 3.594 0 2.203-.891 3.578-.906 1.375-2.594 2.094-1.703.719-3.656.719-2.125 0-3.703-.797-1.578-.813-2.391-2.313-.828-1.5-.828-3.297 0-2.047 1.047-3.438 1.031-1.391 2.906-1.938l.422 1.766q-1.484.469-2.156 1.375-.688.906-.688 2.266 0 1.563.75 2.625.75 1.047 2.031 1.484 1.266.422 2.609.422 1.734 0 3.031-.5 1.281-.516 1.922-1.578.641-1.078.641-2.313 0-1.516-.859-2.563-.875-1.047-2.594-1.422zm-.156-2.926q-2.734 0-4.063-1.531-1.094-1.266-1.094-3.094 0-2.031 1.344-3.313 1.328-1.297 3.672-1.297 1.906 0 3 .578 1.078.563 1.688 1.656.594 1.078.594 2.375 0 2.063-1.328 3.344-1.328 1.281-3.813 1.281zm0-1.719q1.891 0 2.828-.828.938-.828.938-2.078t-.938-2.063q-.953-.828-2.891-.828-1.828 0-2.766.828t-.938 2.063q0 1.25.938 2.078.938.828 2.828.828zm4.922-9.282h-9.859v-1.5h1.406q-1.625-1.094-1.625-3.141 0-.891.328-1.641.313-.75.844-1.109.516-.375 1.219-.531.469-.094 1.625-.094h6.063v1.672h-6q-1.016 0-1.516.203-.516.188-.813.688-.297.5-.297 1.172 0 1.063.672 1.844.672.766 2.578.766h5.375v1.672zm-2.938-9.704l-.266-1.656q1-.141 1.531-.766.516-.641.516-1.781 0-1.156-.469-1.703-.469-.563-1.094-.563-.563 0-.891.484-.219.344-.563 1.703-.469 1.844-.797 2.563-.344.703-.938 1.078-.609.359-1.328.359-.656 0-1.219-.297-.563-.313-.938-.828-.281-.391-.484-1.063-.203-.672-.203-1.438 0-1.172.344-2.047.328-.875.906-1.281.563-.422 1.516-.578l.219 1.625q-.75.109-1.172.656-.438.531-.438 1.5 0 1.156.391 1.641.375.484.875.484.328 0 .594-.203.266-.203.438-.641.094-.25.438-1.469.469-1.766.766-2.469.297-.703.875-1.094.578-.406 1.438-.406.828 0 1.578.484.734.484 1.141 1.406.391.922.391 2.078 0 1.922-.797 2.938-.797 1-2.359 1.281zm2.938-16.453h-1.453q1.672 1.141 1.672 3.125 0 .859-.328 1.625-.344.75-.844 1.125-.5.359-1.234.516-.5.094-1.563.094h-6.109v-1.672h5.469q1.313 0 1.766-.094.656-.156 1.031-.672.375-.516.375-1.266t-.375-1.406q-.391-.656-1.047-.922-.672-.281-1.938-.281h-5.281v-1.672h9.859v1.5zm0-3.923h-9.859v-1.5h1.391q-.719-.453-1.156-1.219-.453-.781-.453-1.766 0-1.094.453-1.797.453-.703 1.281-.984-1.734-1.172-1.734-3.047 0-1.469.813-2.25.813-.797 2.5-.797h6.766v1.672h-6.203q-1 0-1.438.156-.453.156-.719.594-.266.422-.266 1 0 1.031.688 1.719.688.688 2.219.688h5.719v1.672h-6.406q-1.109 0-1.656.406-.563.406-.563 1.344 0 .703.375 1.313.359.594 1.078.859.719.266 2.063.266h5.109v1.672zm3.781-15.541h-13.641v-1.531h1.281q-.75-.531-1.125-1.203-.375-.688-.375-1.641 0-1.266.656-2.234.641-.969 1.828-1.453 1.188-.5 2.594-.5 1.516 0 2.734.547 1.203.547 1.844 1.578.641 1.031.641 2.172 0 .844-.344 1.516-.359.656-.891 1.078h4.797v1.672zm-8.656-1.516q1.906 0 2.813-.766.906-.781.906-1.875 0-1.109-.938-1.891-.938-.797-2.922-.797-1.875 0-2.813.781-.938.766-.938 1.844 0 1.063 1 1.891 1 .813 2.891.813zm3.375-12.516l1.484-.234q.141.703.141 1.266 0 .906-.281 1.406-.297.5-.75.703-.469.203-1.984.203h-5.656v1.234h-1.313v-1.234h-2.438l-1-1.656h3.438v-1.688h1.313v1.688h5.75q.719 0 .922-.078.203-.094.328-.297.125-.203.125-.578 0-.266-.078-.734zm-10.188-1.543h-1.906v-1.672h1.906v1.672zm11.688 0h-9.859v-1.672h9.859v1.672zm-4.922-3.504q-2.734 0-4.063-1.531-1.094-1.266-1.094-3.094 0-2.031 1.344-3.313 1.328-1.297 3.672-1.297 1.906 0 3 .578 1.078.563 1.688 1.656.594 1.078.594 2.375 0 2.063-1.328 3.344-1.328 1.281-3.813 1.281zm0-1.719q1.891 0 2.828-.828.938-.828.938-2.078t-.938-2.063q-.953-.828-2.891-.828-1.828 0-2.766.828t-.938 2.063q0 1.25.938 2.078.938.828 2.828.828zm4.922-9.282h-9.859v-1.5h1.406q-1.625-1.094-1.625-3.141 0-.891.328-1.641.313-.75.844-1.109.516-.375 1.219-.531.469-.094 1.625-.094h6.063v1.672h-6q-1.016 0-1.516.203-.516.188-.813.688-.297.5-.297 1.172 0 1.063.672 1.844.672.766 2.578.766h5.375v1.672zM787.904 542.938h-13.594v-9.844h1.594v8.047h4.172v-7.531h1.594v7.531h4.625v-8.359h1.609v10.156zm0-14.928l-9.859 3.75v-1.766l5.906-2.125q.953-.344 1.984-.625-.781-.219-1.875-.625l-6.016-2.188v-1.719l9.859 3.734v1.563zm-3.172-13.344l.219-1.719q1.5.406 2.344 1.516.828 1.094.828 2.813 0 2.156-1.328 3.422t-3.734 1.266q-2.484 0-3.859-1.266-1.375-1.281-1.375-3.328 0-1.984 1.344-3.234t3.797-1.25l.438.016v7.344q1.625-.094 2.484-.922.859-.828.859-2.063 0-.906-.469-1.547-.484-.656-1.547-1.047zm-2.703 5.484v-5.5q-1.234.109-1.859.625-.969.797-.969 2.078 0 1.141.781 1.938.766.781 2.047.859zm5.875-9.11h-9.859v-1.5h1.406q-1.625-1.094-1.625-3.141 0-.891.328-1.641.313-.75.844-1.109.516-.375 1.219-.531.469-.094 1.625-.094h6.063v1.672h-6q-1.016 0-1.516.203-.516.188-.813.688-.297.5-.297 1.172 0 1.063.672 1.844.672.766 2.578.766h5.375v1.672zm-1.5-14.032l1.484-.234q.141.703.141 1.266 0 .906-.281 1.406-.297.5-.75.703-.469.203-1.984.203h-5.656v1.234h-1.313v-1.234h-2.438l-1-1.656h3.438v-1.688h1.313v1.688h5.75q.719 0 .922-.078.203-.094.328-.297.125-.203.125-.578 0-.266-.078-.734z"/><path d="M851.871 404.207l-48.094 116.378" fill="none"/><path stroke="#000" stroke-width="2" stroke-linejoin="round" d="M851.871 404.207l-44.443 107.543" fill-rule="evenodd"/><path stroke="#000" stroke-width="2" d="M811.383 513.385l-3.269 7.911-7.911-3.269 3.269-7.911 7.911 3.269z"/><path d="M736.204 520.585l-112.819 46.646" fill="none"/><path stroke="#000" stroke-width="2" stroke-linejoin="round" d="M727.37 524.238l-103.984 42.993" fill-rule="evenodd"/><path stroke="#000" stroke-width="2" d="M725.734 520.283l7.911-3.271 3.271 7.911-7.911 3.271-3.271-7.911z"/><path d="M769.984 378.189v60.22" fill="none"/><path stroke="#000" stroke-width="2" stroke-linejoin="round" stroke-dasharray="8.0,6.0" d="M769.984 378.189v60.22" fill-rule="evenodd"/><path d="M736.204 296l-112.819-116.22" fill="none"/><path stroke="#000" stroke-width="2" stroke-linejoin="round" stroke-dasharray="8.0,6.0" d="M736.204 296l-112.819-116.22" fill-rule="evenodd"/><path d="M591.703 295.424l144.504.567" fill="none"/><path stroke="#000" stroke-width="2" stroke-linejoin="round" stroke-dasharray="8.0,6.0" d="M591.703 295.424l144.504.567" fill-rule="evenodd"/><path fill="#fff" d="M50.576 137.669h244.913v79.055h-244.913z" fill-rule="evenodd"/><path stroke="#000" stroke-linejoin="round" d="M50.576 137.669h244.913v79.055h-244.913z" fill-rule="evenodd"/><path d="M51.127 137.669h137.354v79.055h-137.354z" fill="none"/><path d="M100.473 173.116v-13.594h2.719l3.219 9.625q.438 1.344.641 2.016.234-.75.734-2.188l3.25-9.453h2.422v13.594h-1.734v-11.391l-3.953 11.391h-1.625l-3.938-11.578v11.578h-1.734zm22.135-3.172l1.719.219q-.406 1.5-1.516 2.344-1.094.828-2.813.828-2.156 0-3.422-1.328t-1.266-3.734q0-2.484 1.266-3.859 1.281-1.375 3.328-1.375 1.984 0 3.234 1.344t1.25 3.797l-.016.438h-7.344q.094 1.625.922 2.484.828.859 2.063.859.906 0 1.547-.469.656-.484 1.047-1.547zm-5.484-2.703h5.5q-.109-1.234-.625-1.859-.797-.969-2.078-.969-1.141 0-1.938.781-.781.766-.859 2.047zm12.766 4.375l.234 1.484q-.703.141-1.266.141-.906 0-1.406-.281-.5-.297-.703-.75-.203-.469-.203-1.984v-5.656h-1.234v-1.313h1.234v-2.438l1.656-1v3.438h1.688v1.313h-1.688v5.75q0 .719.078.922.094.203.297.328.203.125.578.125.266 0 .734-.078zm7.965.281q-.938.797-1.797 1.125-.859.313-1.844.313-1.609 0-2.484-.781-.875-.797-.875-2.031 0-.734.328-1.328.328-.594.859-.953.531-.359 1.203-.547.5-.141 1.484-.25 2.031-.25 2.984-.578v-.438q0-1.016-.469-1.438-.641-.563-1.906-.563-1.172 0-1.734.406-.563.406-.828 1.469l-1.641-.234q.234-1.047.734-1.688.516-.641 1.469-.984.969-.359 2.25-.359 1.266 0 2.047.297.781.297 1.156.75.375.453.516 1.141.094.422.094 1.531v2.234q0 2.328.094 2.953.109.609.438 1.172h-1.75q-.266-.516-.328-1.219zm-.141-3.719q-.906.359-2.734.625-1.031.141-1.453.328-.422.188-.656.547-.234.359-.234.797 0 .672.5 1.125.516.438 1.484.438.969 0 1.719-.422.75-.438 1.109-1.156.266-.578.266-1.672v-.609zM74.614 195.116v-13.594h4.688q1.578 0 2.422.188 1.156.266 1.984.969 1.078.922 1.609 2.344.531 1.406.531 3.219 0 1.547-.359 2.75-.359 1.188-.922 1.984-.563.781-1.234 1.234-.672.438-1.625.672-.953.234-2.188.234h-4.906zm1.797-1.609h2.906q1.344 0 2.109-.25.766-.25 1.219-.703.641-.641 1-1.719t.359-2.625q0-2.125-.703-3.266-.703-1.156-1.703-1.547-.719-.281-2.328-.281h-2.859v10.391zm18.207-1.563l1.719.219q-.406 1.5-1.516 2.344-1.094.828-2.813.828-2.156 0-3.422-1.328t-1.266-3.734q0-2.484 1.266-3.859 1.281-1.375 3.328-1.375 1.984 0 3.234 1.344t1.25 3.797l-.016.438h-7.344q.094 1.625.922 2.484.828.859 2.063.859.906 0 1.547-.469.656-.484 1.047-1.547zm-5.484-2.703h5.5q-.109-1.234-.625-1.859-.797-.969-2.078-.969-1.141 0-1.938.781-.781.766-.859 2.047zm8.438 2.938l1.656-.266q.141 1 .766 1.531.641.516 1.781.516 1.156 0 1.703-.469.563-.469.563-1.094 0-.563-.484-.891-.344-.219-1.703-.563-1.844-.469-2.563-.797-.703-.344-1.078-.938-.359-.609-.359-1.328 0-.656.297-1.219.313-.563.828-.938.391-.281 1.063-.484.672-.203 1.438-.203 1.172 0 2.047.344.875.328 1.281.906.422.563.578 1.516l-1.625.219q-.109-.75-.656-1.172-.531-.438-1.5-.438-1.156 0-1.641.391-.484.375-.484.875 0 .328.203.594.203.266.641.438.25.094 1.469.438 1.766.469 2.469.766.703.297 1.094.875.406.578.406 1.438 0 .828-.484 1.578-.484.734-1.406 1.141-.922.391-2.078.391-1.922 0-2.938-.797-1-.797-1.281-2.359zm16.438-.672l1.641.219q-.266 1.688-1.375 2.656-1.109.953-2.734.953-2.016 0-3.25-1.313-1.219-1.328-1.219-3.797 0-1.594.516-2.781.531-1.203 1.609-1.797 1.094-.609 2.359-.609 1.609 0 2.625.813t1.313 2.313l-1.625.25q-.234-1-.828-1.5t-1.422-.5q-1.266 0-2.063.906-.781.906-.781 2.859 0 1.984.766 2.891.766.891 1.984.891.984 0 1.641-.594.656-.609.844-1.859zm2.875 3.609v-9.859h1.5v1.5q.578-1.047 1.063-1.375.484-.344 1.078-.344.844 0 1.719.547l-.578 1.547q-.609-.359-1.234-.359-.547 0-.984.328-.422.328-.609.906-.281.891-.281 1.953v5.156h-1.672zm6.244-11.688v-1.906h1.672v1.906h-1.672zm0 11.688v-9.859h1.672v9.859h-1.672zm4.129 3.781v-13.641h1.531v1.281q.531-.75 1.203-1.125.688-.375 1.641-.375 1.266 0 2.234.656.969.641 1.453 1.828.5 1.188.5 2.594 0 1.516-.547 2.734-.547 1.203-1.578 1.844-1.031.641-2.172.641-.844 0-1.516-.344-.656-.359-1.078-.891v4.797h-1.672zm1.516-8.656q0 1.906.766 2.813.781.906 1.875.906 1.109 0 1.891-.938.797-.938.797-2.922 0-1.875-.781-2.813-.766-.938-1.844-.938-1.063 0-1.891 1-.813 1-.813 2.891zm12.516 3.375l.234 1.484q-.703.141-1.266.141-.906 0-1.406-.281-.5-.297-.703-.75-.203-.469-.203-1.984v-5.656h-1.234v-1.313h1.234v-2.438l1.656-1v3.438h1.688v1.313h-1.688v5.75q0 .719.078.922.094.203.297.328.203.125.578.125.266 0 .734-.078zm1.543-10.188v-1.906h1.672v1.906h-1.672zm0 11.688v-9.859h1.672v9.859h-1.672zm3.504-4.922q0-2.734 1.531-4.063 1.266-1.094 3.094-1.094 2.031 0 3.313 1.344 1.297 1.328 1.297 3.672 0 1.906-.578 3-.563 1.078-1.656 1.688-1.078.594-2.375.594-2.063 0-3.344-1.328-1.281-1.328-1.281-3.813zm1.719 0q0 1.891.828 2.828.828.938 2.078.938t2.063-.938q.828-.953.828-2.891 0-1.828-.828-2.766t-2.063-.938q-1.25 0-2.078.938-.828.938-.828 2.828zm9.282 4.922v-9.859h1.5v1.406q1.094-1.625 3.141-1.625.891 0 1.641.328.75.313 1.109.844.375.516.531 1.219.094.469.094 1.625v6.063h-1.672v-6q0-1.016-.203-1.516-.188-.516-.688-.813-.5-.297-1.172-.297-1.063 0-1.844.672-.766.672-.766 2.578v5.375h-1.672z"/><path fill="#fff" d="M183.718 151.556h94.929v52.882h-94.929z" fill-rule="evenodd"/><path stroke="#000" stroke-linejoin="round" d="M183.718 151.556h94.929v52.882h-94.929z" fill-rule="evenodd"/><path d="M200.858 183.077v-9.469h-3.531v-1.266h8.5v1.266h-3.547v9.469h-1.422zm6.046 0v-10.734h1.328v3.844q.922-1.063 2.328-1.063.859 0 1.5.344t.906.938q.281.594.281 1.75v4.922h-1.328v-4.922q0-1-.422-1.438-.422-.453-1.219-.453-.578 0-1.094.297-.516.297-.734.828-.219.516-.219 1.438v4.25h-1.328zm13.26 0v-1.141q-.922 1.313-2.469 1.313-.688 0-1.297-.266-.594-.266-.891-.656-.281-.406-.391-.984-.094-.375-.094-1.219v-4.828h1.328v4.313q0 1.031.078 1.391.125.531.516.828.406.297 1 .297t1.109-.297q.531-.313.75-.828.219-.531.219-1.531v-4.172h1.313v7.781h-1.172zm3.042 0v-7.781h1.188v1.094q.359-.578.969-.922.609-.344 1.391-.344.859 0 1.406.359.563.359.781 1 .922-1.359 2.406-1.359 1.156 0 1.781.641t.625 1.969v5.344h-1.313v-4.906q0-.781-.125-1.125-.125-.359-.469-.563-.344-.219-.797-.219-.813 0-1.359.547-.547.547-.547 1.75v4.516h-1.313v-5.047q0-.891-.328-1.328-.313-.438-1.047-.438-.563 0-1.031.297-.469.297-.688.859-.203.563-.203 1.625v4.031h-1.328zm13.428 0h-1.219v-10.734h1.313v3.828q.844-1.047 2.141-1.047.719 0 1.359.297.641.281 1.047.813.422.516.656 1.266.234.734.234 1.578 0 2-1 3.094-.984 1.078-2.375 1.078-1.375 0-2.156-1.141v.969zm-.016-3.953q0 1.406.391 2.031.609 1.016 1.672 1.016.875 0 1.5-.75t.625-2.234q0-1.531-.609-2.25-.594-.734-1.453-.734-.859 0-1.5.75-.625.75-.625 2.172zm6.948 3.953v-7.781h1.188v1.109q.859-1.281 2.484-1.281.703 0 1.281.25.594.25.891.672.297.406.406.969.078.359.078 1.281v4.781h-1.328v-4.734q0-.797-.156-1.188-.141-.406-.531-.641-.391-.25-.922-.25-.844 0-1.453.531-.609.531-.609 2.031v4.25h-1.328zm13.229-.953q-.734.609-1.406.875-.672.25-1.453.25-1.281 0-1.969-.625-.688-.625-.688-1.594 0-.578.25-1.047.266-.469.688-.75.422-.297.953-.438.375-.109 1.172-.203 1.594-.188 2.344-.453l.016-.344q0-.813-.375-1.141-.516-.438-1.5-.438-.938 0-1.391.328-.438.313-.641 1.141l-1.297-.172q.172-.828.578-1.328.406-.516 1.172-.781.766-.281 1.766-.281t1.609.234q.625.234.922.594.297.344.406.891.063.344.063 1.219v1.75q0 1.844.078 2.328.094.484.344.938h-1.375q-.203-.406-.266-.953zm-.109-2.953q-.719.297-2.156.5-.813.125-1.156.266-.328.141-.516.422-.172.281-.172.625 0 .531.391.891.406.344 1.172.344.766 0 1.359-.328.594-.344.875-.922.203-.438.203-1.313v-.484zm3.198-5.313v-1.516h1.313v1.516h-1.313zm0 9.219v-7.781h1.313v7.781h-1.313zm3.209 0v-10.734h1.328v10.734h-1.328z"/><path d="M408.207 179.78" fill="none"/><path stroke="#000" stroke-width="2" stroke-linejoin="round" d="M408.207 179.78" fill-rule="evenodd"/><path d="M347.398 221.386l24.047-41.606 24.047 41.606z" fill="none"/><path d="M408.207 179.78h-36.756" fill="none"/><path stroke="#000" stroke-width="2" stroke-linejoin="round" d="M408.207 179.78h-36.756" fill-rule="evenodd"/><path d="M371.446 179.78h-76.661" fill="none"/><path stroke="#000" stroke-width="2" stroke-linejoin="round" d="M371.446 179.78h-67.101" fill-rule="evenodd"/><path stroke="#000" stroke-width="2" d="M304.344 184.06h-8.56v-8.56h8.56v8.56z"/><path d="M347.123 337.606l24.047-41.606 24.047 41.606z" fill="none"/><path d="M440.175 295.424l-69.008.567" fill="none"/><path stroke="#000" stroke-width="2" stroke-linejoin="round" stroke-dasharray="8.0,6.0" d="M440.175 295.424l-69.008.567" fill-rule="evenodd"/><path d="M371.17 296l.283-116.22" fill="none"/><path stroke="#000" stroke-width="2" stroke-linejoin="round" stroke-dasharray="8.0,6.0" d="M371.199 284l.254-104.221" fill-rule="evenodd"/><path stroke="#000" stroke-width="2" d="M367.896 283.992l3.281 9.084 3.326-9.068z" fill-rule="evenodd"/><path fill="#fff" d="M408.207 369.182h215.181v84.22h-215.181z" fill-rule="evenodd"/><path stroke="#000" stroke-width="2" stroke-linejoin="round" d="M408.207 369.182h215.181v84.22h-215.181z" fill-rule="evenodd"/><path d="M474.338 419.832v-17.188h12.422v2.031h-10.156v5.266h9.5v2.016h-9.5v5.844h10.547v2.031h-12.813zm15.68 4.766v-17.219h1.922v1.625q.688-.953 1.531-1.422.859-.484 2.078-.484 1.594 0 2.813.828 1.219.813 1.844 2.313.625 1.5.625 3.281 0 1.906-.688 3.438-.688 1.531-2 2.344-1.297.813-2.734.813-1.063 0-1.906-.438-.828-.453-1.375-1.141v6.063h-2.109zm1.922-10.922q0 2.406.969 3.563.969 1.141 2.359 1.141 1.406 0 2.406-1.188 1-1.188 1-3.688 0-2.375-.984-3.563-.969-1.188-2.328-1.188t-2.391 1.266q-1.031 1.25-1.031 3.656zm11.441-8.594v-2.438h2.109v2.438h-2.109zm0 14.75v-12.453h2.109v12.453h-2.109zm4.473-3.719l2.094-.328q.172 1.25.969 1.922.813.672 2.25.672 1.453 0 2.156-.594.703-.594.703-1.391 0-.719-.625-1.125-.422-.281-2.156-.719-2.312-.578-3.219-1-.891-.438-1.359-1.188-.453-.766-.453-1.672 0-.828.375-1.531.391-.719 1.047-1.188.484-.359 1.328-.609.859-.266 1.828-.266 1.469 0 2.578.422 1.109.422 1.625 1.156.531.719.734 1.922l-2.063.281q-.141-.969-.813-1.5-.672-.547-1.906-.547-1.453 0-2.078.484-.625.484-.625 1.125 0 .406.266.734.25.344.813.563.313.125 1.859.547 2.234.594 3.109.984.891.375 1.391 1.109.516.719.516 1.797 0 1.047-.625 1.984-.609.938-1.766 1.453-1.156.5-2.625.5-2.422 0-3.703-1-1.266-1.016-1.625-3zm12.062-2.5q0-3.469 1.922-5.125 1.609-1.391 3.922-1.391 2.563 0 4.188 1.688 1.625 1.688 1.625 4.641 0 2.406-.719 3.781t-2.094 2.141q-1.375.766-3 .766-2.625 0-4.234-1.672-1.609-1.688-1.609-4.828zm2.172 0q0 2.391 1.031 3.578 1.047 1.188 2.641 1.188 1.563 0 2.609-1.188 1.047-1.203 1.047-3.656 0-2.313-1.063-3.5-1.047-1.188-2.594-1.188-1.594 0-2.641 1.188-1.031 1.188-1.031 3.578zm20.035 6.219v-1.578q-1.188 1.859-3.484 1.859-1.484 0-2.734-.813-1.25-.828-1.938-2.297-.672-1.469-.672-3.391 0-1.859.609-3.375.625-1.516 1.859-2.328 1.25-.813 2.781-.813 1.125 0 2 .484.891.469 1.438 1.234v-6.172h2.094v17.188h-1.953zm-6.672-6.219q0 2.391 1 3.578 1.016 1.188 2.391 1.188 1.391 0 2.344-1.125.969-1.141.969-3.453 0-2.563-.984-3.75-.984-1.203-2.422-1.203-1.406 0-2.359 1.156-.938 1.141-.938 3.609zm20.473 2.203l2.172.281q-.516 1.906-1.906 2.969-1.391 1.047-3.563 1.047-2.734 0-4.344-1.672-1.594-1.688-1.594-4.734 0-3.141 1.609-4.875 1.625-1.734 4.203-1.734 2.5 0 4.078 1.703 1.594 1.703 1.594 4.781l-.016.563h-9.281q.109 2.047 1.156 3.141 1.047 1.094 2.609 1.094 1.156 0 1.969-.609.828-.609 1.313-1.953zm-6.938-3.406h6.953q-.141-1.563-.797-2.359-1-1.219-2.609-1.219-1.453 0-2.453.984-.984.969-1.094 2.594z"/><path d="M515.939 331.534l-.126 37.638" fill="none"/><path stroke="#000" stroke-width="2" stroke-linejoin="round" d="M515.939 331.534l-.094 28.078" fill-rule="evenodd"/><path stroke="#000" stroke-width="2" d="M520.125 359.626l-.029 8.56-8.56-.029.029-8.56 8.56.029z"/><path d="M347.398 452.471l24.047-41.606 24.047 41.606z" fill="none"/><path d="M371.17 296l.283 114.866" fill="none"/><path stroke="#000" stroke-width="2" stroke-linejoin="round" stroke-dasharray="8.0,6.0" d="M371.17 296l.254 102.866" fill-rule="evenodd"/><path stroke="#000" stroke-width="2" d="M368.12 398.874l3.326 9.068 3.281-9.084z" fill-rule="evenodd"/><path d="M408.207 411.292l-36.756-.441" fill="none"/><path stroke="#000" stroke-width="2" stroke-linejoin="round" stroke-dasharray="8.0,6.0" d="M408.207 411.292l-36.756-.441" fill-rule="evenodd"/><path d="M623.388 411.292l112.819-115.307" fill="none"/><path stroke="#000" stroke-width="2" stroke-linejoin="round" stroke-dasharray="8.0,6.0" d="M623.388 411.292l112.819-115.307" fill-rule="evenodd"/><path fill="#fff" d="M172.933 446.869h122.457v79.055h-122.457z" fill-rule="evenodd"/><path stroke="#000" stroke-linejoin="round" d="M172.933 446.869h122.457v79.055h-122.457z" fill-rule="evenodd"/><path d="M228.105 493.317v-1.906h1.906v1.906h-1.906zm5.183 0v-1.906h1.906v1.906h-1.906zm5.183 0v-1.906h1.906v1.906h-1.906z"/><path fill="#fff" d="M50.476 446.869h122.457v79.055h-122.457z" fill-rule="evenodd"/><path stroke="#000" stroke-linejoin="round" d="M50.476 446.869h122.457v79.055h-122.457z" fill-rule="evenodd"/><path d="M89.667 482.317v-12h-4.469v-1.594h10.766v1.594h-4.5v12h-1.797zm14.162-1.219q-.938.797-1.797 1.125-.859.313-1.844.313-1.609 0-2.484-.781-.875-.797-.875-2.031 0-.734.328-1.328.328-.594.859-.953.531-.359 1.203-.547.5-.141 1.484-.25 2.031-.25 2.984-.578v-.438q0-1.016-.469-1.438-.641-.563-1.906-.563-1.172 0-1.734.406-.563.406-.828 1.469l-1.641-.234q.234-1.047.734-1.688.516-.641 1.469-.984.969-.359 2.25-.359 1.266 0 2.047.297.781.297 1.156.75.375.453.516 1.141.094.422.094 1.531v2.234q0 2.328.094 2.953.109.609.438 1.172h-1.75q-.266-.516-.328-1.219zm-.141-3.719q-.906.359-2.734.625-1.031.141-1.453.328-.422.188-.656.547-.234.359-.234.797 0 .672.5 1.125.516.438 1.484.438.969 0 1.719-.422.75-.438 1.109-1.156.266-.578.266-1.672v-.609zm4.063 4.938v-9.859h1.5v1.5q.578-1.047 1.063-1.375.484-.344 1.078-.344.844 0 1.719.547l-.578 1.547q-.609-.359-1.234-.359-.547 0-.984.328-.422.328-.609.906-.281.891-.281 1.953v5.156h-1.672zm5.931.813l1.609.25q.109.75.578 1.094.609.453 1.688.453 1.172 0 1.797-.469.625-.453.859-1.281.125-.516.109-2.156-1.094 1.297-2.719 1.297-2.031 0-3.156-1.469-1.109-1.469-1.109-3.516 0-1.406.516-2.594.516-1.203 1.484-1.844.969-.656 2.266-.656 1.75 0 2.875 1.406v-1.188h1.547v8.516q0 2.313-.469 3.266-.469.969-1.484 1.516-1.016.563-2.5.563-1.766 0-2.859-.797-1.078-.797-1.031-2.391zm1.375-5.922q0 1.953.766 2.844.781.891 1.938.891 1.141 0 1.922-.891.781-.891.781-2.781 0-1.813-.813-2.719-.797-.922-1.922-.922-1.109 0-1.891.906-.781.891-.781 2.672zm16.048 1.938l1.719.219q-.406 1.5-1.516 2.344-1.094.828-2.813.828-2.156 0-3.422-1.328t-1.266-3.734q0-2.484 1.266-3.859 1.281-1.375 3.328-1.375 1.984 0 3.234 1.344t1.25 3.797l-.016.438h-7.344q.094 1.625.922 2.484.828.859 2.063.859.906 0 1.547-.469.656-.484 1.047-1.547zm-5.484-2.703h5.5q-.109-1.234-.625-1.859-.797-.969-2.078-.969-1.141 0-1.938.781-.781.766-.859 2.047zm12.766 4.375l.234 1.484q-.703.141-1.266.141-.906 0-1.406-.281-.5-.297-.703-.75-.203-.469-.203-1.984v-5.656h-1.234v-1.313h1.234v-2.438l1.656-1v3.438h1.688v1.313h-1.688v5.75q0 .719.078.922.094.203.297.328.203.125.578.125.266 0 .734-.078zM72.776 504.317l5.234-13.594h1.938l5.563 13.594h-2.047l-1.594-4.125h-5.688l-1.484 4.125h-1.922zm3.922-5.578h4.609l-1.406-3.781q-.656-1.703-.969-2.813-.266 1.313-.734 2.594l-1.5 4zm16.256 5.578v-1.453q-1.141 1.672-3.125 1.672-.859 0-1.625-.328-.75-.344-1.125-.844-.359-.5-.516-1.234-.094-.5-.094-1.563v-6.109h1.672v5.469q0 1.313.094 1.766.156.656.672 1.031.516.375 1.266.375t1.406-.375q.656-.391.922-1.047.281-.672.281-1.938v-5.281h1.672v9.859h-1.5zm10.313 0v-1.25q-.938 1.469-2.75 1.469-1.172 0-2.172-.641-.984-.656-1.531-1.813-.531-1.172-.531-2.688 0-1.469.484-2.672.5-1.203 1.469-1.844.984-.641 2.203-.641.891 0 1.578.375.703.375 1.141.984v-4.875h1.656v13.594h-1.547zm-5.281-4.922q0 1.891.797 2.828.813.938 1.891.938 1.094 0 1.859-.891.766-.891.766-2.734 0-2.016-.781-2.953-.781-.953-1.922-.953-1.109 0-1.859.906t-.75 2.859zm9.282-6.766v-1.906h1.672v1.906h-1.672zm0 11.688v-9.859h1.672v9.859h-1.672zm10.879-3.172l1.719.219q-.406 1.5-1.516 2.344-1.094.828-2.813.828-2.156 0-3.422-1.328t-1.266-3.734q0-2.484 1.266-3.859 1.281-1.375 3.328-1.375 1.984 0 3.234 1.344t1.25 3.797l-.016.438h-7.344q.094 1.625.922 2.484.828.859 2.063.859.906 0 1.547-.469.656-.484 1.047-1.547zm-5.484-2.703h5.5q-.109-1.234-.625-1.859-.797-.969-2.078-.969-1.141 0-1.938.781-.781.766-.859 2.047zm9.11 5.875v-9.859h1.5v1.406q1.094-1.625 3.141-1.625.891 0 1.641.328.75.313 1.109.844.375.516.531 1.219.094.469.094 1.625v6.063h-1.672v-6q0-1.016-.203-1.516-.188-.516-.688-.813-.5-.297-1.172-.297-1.063 0-1.844.672-.766.672-.766 2.578v5.375h-1.672zm16.813-3.609l1.641.219q-.266 1.688-1.375 2.656-1.109.953-2.734.953-2.016 0-3.25-1.313-1.219-1.328-1.219-3.797 0-1.594.516-2.781.531-1.203 1.609-1.797 1.094-.609 2.359-.609 1.609 0 2.625.813t1.313 2.313l-1.625.25q-.234-1-.828-1.5t-1.422-.5q-1.266 0-2.063.906-.781.906-.781 2.859 0 1.984.766 2.891.766.891 1.984.891.984 0 1.641-.594.656-.609.844-1.859zm9.641.438l1.719.219q-.406 1.5-1.516 2.344-1.094.828-2.813.828-2.156 0-3.422-1.328t-1.266-3.734q0-2.484 1.266-3.859 1.281-1.375 3.328-1.375 1.984 0 3.234 1.344t1.25 3.797l-.016.438h-7.344q.094 1.625.922 2.484.828.859 2.063.859.906 0 1.547-.469.656-.484 1.047-1.547zm-5.484-2.703h5.5q-.109-1.234-.625-1.859-.797-.969-2.078-.969-1.141 0-1.938.781-.781.766-.859 2.047z"/><path d="M51.126 137.669h244.913v388.252h-244.913z" fill="none"/><path stroke="#000" stroke-width="2" stroke-linejoin="round" d="M51.126 137.669h244.913v388.252h-244.913z" fill-rule="evenodd"/><path d="M515.939 99.807l-.126 37.638" fill="none"/><path stroke="#000" stroke-width="2" stroke-linejoin="round" d="M515.939 99.807l-.094 28.078" fill-rule="evenodd"/><path stroke="#000" stroke-width="2" d="M520.125 127.899l-.029 8.56-8.56-.029.029-8.56 8.56.029z"/><path d="M411.53 36.247h208.819v64h-208.819z" fill="none"/><path d="M460.117 55.389v1.531h-1.406v-1.203q0-.984.234-1.422.313-.594.969-.891l.328.516q-.406.172-.594.5-.188.328-.219.969h.688zm2.281 0v1.531h-1.422v-1.203q0-.984.234-1.422.313-.594.984-.891l.313.516q-.406.172-.594.5-.188.328-.203.969h.688zm1.74 8.938v-10.734h4.047q1.078 0 1.641.094.781.141 1.313.516.547.359.875 1.031.328.656.328 1.469 0 1.359-.875 2.313-.875.953-3.156.953h-2.75v4.359h-1.422zm1.422-5.625h2.781q1.375 0 1.953-.516.578-.516.578-1.453 0-.672-.344-1.141-.344-.484-.891-.641-.359-.094-1.328-.094h-2.75v3.844zm8.166 5.625v-7.781h1.188v1.188q.453-.828.844-1.094.391-.266.844-.266.672 0 1.359.422l-.453 1.219q-.484-.281-.969-.281-.438 0-.781.266-.344.25-.484.719-.219.703-.219 1.531v4.078h-1.328zm4.412-3.891q0-2.156 1.203-3.203 1-.859 2.438-.859 1.609 0 2.625 1.047t1.016 2.906q0 1.5-.453 2.359-.438.859-1.313 1.344-.859.469-1.875.469-1.625 0-2.641-1.047-1-1.047-1-3.016zm1.359 0q0 1.5.641 2.25.656.734 1.641.734.984 0 1.641-.75.656-.75.656-2.281 0-1.438-.656-2.172-.656-.75-1.641-.75-.984 0-1.641.734-.641.734-.641 2.234zm12.323 3.891v-.984q-.734 1.156-2.172 1.156-.922 0-1.703-.5-.781-.516-1.219-1.438-.422-.922-.422-2.109 0-1.172.391-2.109.391-.953 1.156-1.453.781-.516 1.734-.516.703 0 1.25.297.563.297.906.766v-3.844h1.313v10.734h-1.234zm-4.156-3.875q0 1.484.625 2.234.625.734 1.484.734t1.469-.703q.609-.719.609-2.156 0-1.609-.625-2.344-.609-.75-1.516-.75-.875 0-1.469.719-.578.719-.578 2.266zm12.37 3.875v-1.141q-.922 1.313-2.469 1.313-.688 0-1.297-.266-.594-.266-.891-.656-.281-.406-.391-.984-.094-.375-.094-1.219v-4.828h1.328v4.313q0 1.031.078 1.391.125.531.516.828.406.297 1 .297t1.109-.297q.531-.313.75-.828.219-.531.219-1.531v-4.172h1.313v7.781h-1.172zm8.12-2.844l1.297.156q-.203 1.344-1.094 2.109-.875.75-2.141.75-1.594 0-2.563-1.031-.969-1.047-.969-3 0-1.266.406-2.203.422-.953 1.266-1.422.859-.469 1.859-.469 1.266 0 2.078.641.813.641 1.031 1.813l-1.281.203q-.188-.781-.656-1.172-.453-.406-1.109-.406-1 0-1.625.719t-.625 2.266q0 1.563.594 2.281.609.703 1.578.703.781 0 1.297-.469.516-.484.656-1.469zm5.141 1.672l.188 1.156q-.563.125-1 .125-.719 0-1.125-.234-.391-.234-.547-.594-.156-.375-.156-1.563v-4.469h-.969v-1.031h.969v-1.922l1.313-.797v2.719h1.328v1.031h-1.328v4.547q0 .563.063.734.078.156.234.25.156.094.438.094.234 0 .594-.047zm4.769-2.719q0-2.156 1.203-3.203 1-.859 2.438-.859 1.609 0 2.625 1.047t1.016 2.906q0 1.5-.453 2.359-.438.859-1.313 1.344-.859.469-1.875.469-1.625 0-2.641-1.047-1-1.047-1-3.016zm1.359 0q0 1.5.641 2.25.656.734 1.641.734.984 0 1.641-.75.656-.75.656-2.281 0-1.438-.656-2.172-.656-.75-1.641-.75-.984 0-1.641.734-.641.734-.641 2.234zm7.589 3.891v-6.75h-1.156v-1.031h1.156v-.828q0-.781.141-1.156.203-.516.672-.828.484-.328 1.344-.328.563 0 1.234.141l-.203 1.141q-.406-.078-.766-.078-.609 0-.859.266-.25.25-.25.953v.719h1.516v1.031h-1.516v6.75h-1.313zm3.416-9.313v-1.531h1.406v1.203q0 .984-.219 1.422-.313.594-.984.891l-.328-.531q.406-.156.594-.5.188-.344.219-.953h-.688zm2.266 0v-1.531h1.422v1.203q0 .984-.234 1.422-.313.594-.984.891l-.313-.531q.391-.156.578-.5.203-.344.219-.953h-.688zm12.109 6.469l1.297.156q-.203 1.344-1.094 2.109-.875.75-2.141.75-1.594 0-2.563-1.031-.969-1.047-.969-3 0-1.266.406-2.203.422-.953 1.266-1.422.859-.469 1.859-.469 1.266 0 2.078.641.813.641 1.031 1.813l-1.281.203q-.188-.781-.656-1.172-.453-.406-1.109-.406-1 0-1.625.719t-.625 2.266q0 1.563.594 2.281.609.703 1.578.703.781 0 1.297-.469.516-.484.656-1.469zm2.25 2.844v-10.734h1.328v3.844q.922-1.063 2.328-1.063.859 0 1.5.344t.906.938q.281.594.281 1.75v4.922h-1.328v-4.922q0-1-.422-1.438-.422-.453-1.219-.453-.578 0-1.094.297-.516.297-.734.828-.219.516-.219 1.438v4.25h-1.328zm13.229-.953q-.734.609-1.406.875-.672.25-1.453.25-1.281 0-1.969-.625-.688-.625-.688-1.594 0-.578.25-1.047.266-.469.688-.75.422-.297.953-.438.375-.109 1.172-.203 1.594-.188 2.344-.453l.016-.344q0-.813-.375-1.141-.516-.438-1.5-.438-.938 0-1.391.328-.438.313-.641 1.141l-1.297-.172q.172-.828.578-1.328.406-.516 1.172-.781.766-.281 1.766-.281t1.609.234q.625.234.922.594.297.344.406.891.063.344.063 1.219v1.75q0 1.844.078 2.328.094.484.344.938h-1.375q-.203-.406-.266-.953zm-.109-2.953q-.719.297-2.156.5-.813.125-1.156.266-.328.141-.516.422-.172.281-.172.625 0 .531.391.891.406.344 1.172.344.766 0 1.359-.328.594-.344.875-.922.203-.438.203-1.313v-.484zm3.198-5.313v-1.516h1.313v1.516h-1.313zm0 9.219v-7.781h1.313v7.781h-1.313zm3.241 0v-7.781h1.188v1.109q.859-1.281 2.484-1.281.703 0 1.281.25.594.25.891.672.297.406.406.969.078.359.078 1.281v4.781h-1.328v-4.734q0-.797-.156-1.188-.141-.406-.531-.641-.391-.25-.922-.25-.844 0-1.453.531-.609.531-.609 2.031v4.25h-1.328zM511.191 82.327v-1.5h1.5v1.5h-1.5zm4.072 0v-1.5h1.5v1.5h-1.5zm4.072 0v-1.5h1.5v1.5h-1.5z"/></g></svg>