<svg xmlns="http://www.w3.org/2000/svg" viewBox="0 0 34 10"><style type="text/css">.st0{fill-rule:evenodd;clip-rule:evenodd;fill:#FFFFFF;}</style><path class="st0" d="M33.9 0h-10.5v10.1h10.5v-10.1zm-2.4 2.9c-.8-.5-1.6-.7-2.4-.7-.8 0-1.5.3-2 .8s-.8 1.1-.8 1.9c0 .7.3 1.4.8 1.9.6.5 1.2.7 2 .7s1.7-.3 2.5-.8v1.1c-.8.4-1.6.6-2.5.6-.8 0-1.4-.2-2-.5-.5-.3-1-.8-1.3-1.3-.3-.6-.5-1.2-.5-1.8 0-1 .4-1.9 1.1-2.6.7-.7 1.6-1.1 2.7-1.1.8 0 1.6.2 2.4.6v1.2z"/><path class="st0" d="M22.2 0h-10.5v10.1h10.5v-10.1zm-7.3 1.5h1.8c.6 0 1 .1 1.4.2.3.2.6.4.7.6.2.3.3.6.3.9 0 .7-.3 1.2-1.1 1.5.5.1.9.3 1.2.6.3.3.4.7.4 1.2 0 .3-.1.7-.3.9-.1.4-.3.6-.7.8-.4.2-.8.3-1.3.3h-2.4v-7z"/><path class="st0" d="M16.6 4.5c.5 0 .9-.1 1.1-.3.2-.2.3-.5.3-.8 0-.7-.4-1-1.3-1h-.9v2.1h.8z"/><path class="st0" d="M16.9 5.4h-.9v2.2h1c.5 0 .8 0 1.1-.1.2-.1.4-.3.5-.4.1-.2.2-.4.2-.6 0-.2-.1-.4-.2-.6-.1-.2-.3-.3-.5-.4-.4-.1-.7-.1-1.2-.1"/><path class="st0" d="M10.5 0h-10.5v10.1h10.5v-10.1zm-7.3 8.5v-7h1.8c.6 0 1 .1 1.3.2.4.2.7.4.8.7.2.3.3.6.3.9 0 .7-.4 1.2-1.1 1.5.5.1.9.3 1.2.6.3.3.5.7.5 1.2 0 .4-.1.7-.3.9-.2.3-.5.5-.8.7-.4.2-.8.3-1.3.3h-2.4z"/><path class="st0" d="M5.1 2.4h-.9v2.1h.7c.5 0 .9-.1 1.1-.3.2-.2.3-.5.3-.8 0-.7-.4-1-1.2-1"/><path class="st0" d="M5.1 5.4h-.9v2.2h1c.5 0 .9 0 1.1-.1.2-.1.3-.2.5-.4.1-.2.2-.4.2-.6 0-.2-.1-.4-.2-.6-.2-.2-.3-.3-.6-.4-.2-.1-.6-.1-1.1-.1"/></svg>