<?xml version="1.0" encoding="UTF-8"?>
<svg width="161px" height="95px" viewBox="0 0 161 95" version="1.1" xmlns="http://www.w3.org/2000/svg" xmlns:xlink="http://www.w3.org/1999/xlink">
    <!-- Generator: Sketch 45.2 (43514) - http://www.bohemiancoding.com/sketch -->
    <title>national-theatre</title>
    <desc>Created with Sketch.</desc>
    <defs></defs>
    <g id="Page-1" stroke="none" stroke-width="1" fill="none" fill-rule="evenodd">
        <g id="national-theatre" fill-rule="nonzero" fill="#ffffff">
            <path d="M0.31,0.707 L36.717,0.707 L80.141,66.512 L80.141,94.049 L62.606,94.049 L27.279,41.024 C9.587,13.353 8.348,11.171 0.311,10.146 L0.311,0.707 L0.31,0.707 Z" id="Shape"></path>
            <path d="M70.157,0.707 L92.001,0.707 L92.001,11.225 C82.399,13.76 80.405,21.575 80.405,29.293 L80.405,36.305 L70.157,36.305 L70.157,0.707 L70.157,0.707 Z" id="Shape"></path>
            <path d="M10.909,34.417 L20.617,48.979 L20.617,73.25 C20.617,83.39 31.27,86.601 31.27,86.601 L31.27,94.049 L0.257,94.049 L0.257,86.736 C7.485,84.848 10.909,76.597 10.909,73.253 L10.909,34.417 L10.909,34.417 Z" id="Shape"></path>
            <path d="M160.498,0.707 L138.654,0.707 L138.654,11.359 C148.256,13.894 150.245,22.12 150.245,29.834 L150.245,36.307 L160.498,36.305 L160.498,0.707 L160.498,0.707 Z" id="Shape"></path>
            <path d="M131.104,0.707 C131.104,0.707 131.104,56.557 131.104,69.508 C131.104,77.059 132.183,83.531 141.083,86.497 L141.083,94.049 L89.574,94.049 L89.574,86.229 C98.069,83.801 100.092,78.138 100.092,68.16 C100.092,35.475 100.092,0.707 100.092,0.707 L131.104,0.707 L131.104,0.707 Z" id="Shape"></path>
        </g>
    </g>
</svg>