<svg width="161" height="95" xmlns="http://www.w3.org/2000/svg"><title>national-theatre</title><desc>Created with Sketch.</desc><g fill="#fff"><path d="M.31.707h36.407l43.424 65.805v27.537h-17.535l-35.327-53.025c-17.692-27.671-18.931-29.853-26.968-30.878v-9.439h-.001z" id="Shape"/><path d="M70.157.707h21.844v10.518c-9.602 2.535-11.596 10.35-11.596 18.068v7.012h-10.248v-35.598z" id="Shape"/><path d="M10.909 34.417l9.708 14.562v24.271c0 10.14 10.653 13.351 10.653 13.351v7.448h-31.013v-7.313c7.228-1.888 10.652-10.139 10.652-13.483v-38.836z" id="Shape"/><path d="M160.498.707h-21.844v10.652c9.602 2.535 11.591 10.761 11.591 18.475v6.473l10.253-.002v-35.598z" id="Shape"/><path d="M131.104.707v68.801c0 7.551 1.079 14.023 9.979 16.989v7.552h-51.509v-7.82c8.495-2.428 10.518-8.091 10.518-18.069v-67.453h31.012z"/></g></svg>