<svg width="235" height="38" xmlns="http://www.w3.org/2000/svg"><title>logo</title><desc>Created with Sketch.</desc><g fill="none"><g fill="#fff"><path d="M11.9 17c3.1-.7 6.4-3.1 6.4-8.1 0-3.7-2.1-7.7-9.6-7.7h-8.7v28.1h3.1v-12h5.5l6.9 12h3.8l-7.4-12.3zm-8.8-2.8v-10.4h5.4c3.3 0 6.5 1.2 6.5 5.3 0 3.4-2.5 5.1-6.2 5.1h-5.7z" id="Shape"/><polygon id="Shape" points="34 1 49.9 1 49.9 3.8 37.1 3.8 37.1 13.3 49.5 13.3 49.5 16.1 37.1 16.1 37.1 26.3 49.9 26.3 49.9 29.1 34 29.1"/><path d="M75 1h-8.7v28.1h9.9c9 0 13.4-7.2 13.4-14.2-.1-6.6-3.4-13.9-14.6-13.9m.6 25.3h-6.2v-22.5h5.4c8.4 0 11.4 5.4 11.4 11 0 5.8-3.4 11.5-10.6 11.5" id="Shape"/><path d="M118.3 14.5c3.7-.8 4.6-3.9 4.6-7 0-3.5-2.7-6.6-7.6-6.6h-9.1v28.1h9.3c5 0 8.4-3.5 8.4-7.7 0-4.4-2.5-6.5-5.6-6.8zm-8.9-10.9h4.8c3.2 0 5.4 1 5.4 4.8 0 3.3-2.1 5.1-5.5 5.1h-4.7v-9.9zm5.8 22.7h-5.9v-10.2h5.2c4.7 0 6.3 2.8 6.3 5 0 2.8-1.9 5.2-5.6 5.2z" id="Shape"/><path d="M140.2 1h3.1v18.3c0 5.1 2.9 7.5 7.2 7.5 3.9 0 7.2-2.4 7.2-8.1v-17.7h3.1v17.7c0 7.4-4.6 10.9-10.3 10.9-6.8 0-10.3-4-10.3-9.8v-18.8z" id="Shape"/><path d="M190.3 16.8c3.1-.7 6.4-3.1 6.4-8.1 0-3.7-2.1-7.7-9.6-7.7h-8.7v28.1h3.1v-12h5.5l6.9 12h3.9l-7.5-12.3zm-8.8-2.6v-10.4h5.4c3.3 0 6.4 1.1 6.4 5.3 0 3.4-2.5 5.1-6.2 5.1h-5.6z" id="Shape"/><polygon points="212.5 1 215.9 1 231.8 24.2 231.8 24.2 231.8 1 235 1 235 29.1 231.6 29.1 215.8 5.9 215.7 5.9 215.7 29.1 212.5 29.1"/></g><rect fill="#FFC627" y="35.1" width="235" height="2.8"/></g></svg>